font.ufo
<glyph name="exclam" format="2">
	<unicode hex="0021"/>
	<advance width="266"/>
	<outline>
		<contour>
			<point x="134" y="-10" type="curve" smooth="yes"/>
			<point x="157" y="-10"/>
			<point x="175" y="9"/>
			<point x="175" y="31" type="curve" smooth="yes"/>
			<point x="175" y="55"/>
			<point x="157" y="73"/>
			<point x="134" y="73" type="curve" smooth="yes"/>
			<point x="110" y="73"/>
			<point x="92" y="55"/>
			<point x="92" y="31" type="curve" smooth="yes"/>
			<point x="92" y="9"/>
			<point x="110" y="-10"/>
		</contour>
		<contour>
			<point x="134" y="691" type="curve" smooth="yes"/>
			<point x="114" y="691"/>
			<point x="102" y="679"/>
			<point x="102" y="652" type="curve" smooth="yes"/>
			<point x="102" y="601"/>
			<point x="109" y="519"/>
			<point x="116" y="388" type="curve" smooth="yes"/>
			<point x="123" y="188" type="line"/>
			<point x="144" y="188" type="line"/>
			<point x="152" y="388" type="line" smooth="yes"/>
			<point x="158" y="519"/>
			<point x="166" y="601"/>
			<point x="166" y="652" type="curve" smooth="yes"/>
			<point x="166" y="679"/>
			<point x="154" y="691"/>
		</contour>
	</outline>
</glyph>
<glyph name="A" format="2">
	<unicode hex="0041"/>
	<advance width="645"/>
	<outline>
		<contour>
			<point x="9" y="0" type="line"/>
			<point x="214" y="0" type="line"/>
			<point x="214" y="23" type="line"/>
			<point x="114" y="32" type="line"/>
			<point x="98" y="32" type="line"/>
			<point x="9" y="23" type="line"/>
		</contour>
		<contour>
			<point x="80" y="0" type="line"/>
			<point x="111" y="0" type="line"/>
			<point x="312" y="623" type="line"/>
			<point x="316" y="635" type="line"/>
			<point x="300" y="635" type="line"/>
			<point x="507" y="0" type="line"/>
			<point x="560" y="0" type="line"/>
			<point x="333" y="682" type="line"/>
			<point x="303" y="682" type="line"/>
		</contour>
		<contour>
			<point x="178" y="240" type="line"/>
			<point x="450" y="240" type="line"/>
			<point x="450" y="267" type="line"/>
			<point x="178" y="267" type="line"/>
		</contour>
		<contour>
			<point x="394" y="0" type="line"/>
			<point x="638" y="0" type="line"/>
			<point x="638" y="23" type="line"/>
			<point x="529" y="32" type="line"/>
			<point x="510" y="32" type="line"/>
			<point x="394" y="23" type="line"/>
		</contour>
	</outline>
	<anchor name="aboveUC" x="318" y="694"/>
	<anchor name="belowLC" x="307" y="-20"/>
	<anchor name="ogonek" x="539" y="0"/>
</glyph>
<glyph name="C" format="2">
	<unicode hex="0043"/>
	<advance width="625"/>
	<outline>
		<contour>
			<point x="376" y="-14" type="curve" smooth="yes"/>
			<point x="445" y="-14"/>
			<point x="504" y="-2"/>
			<point x="568" y="37" type="curve"/>
			<point x="573" y="181" type="line"/>
			<point x="542" y="181" type="line"/>
			<point x="517" y="35" type="line"/>
			<point x="548" y="42" type="line"/>
			<point x="549" y="68" type="line"/>
			<point x="494" y="28"/>
			<point x="437" y="14"/>
			<point x="376" y="14" type="curve" smooth="yes"/>
			<point x="224" y="14"/>
			<point x="114" y="134"/>
			<point x="114" y="337" type="curve" smooth="yes"/>
			<point x="114" y="537"/>
			<point x="223" y="660"/>
			<point x="382" y="660" type="curve" smooth="yes"/>
			<point x="444" y="660"/>
			<point x="488" y="644"/>
			<point x="543" y="603" type="curve"/>
			<point x="543" y="633" type="line"/>
			<point x="510" y="642" type="line"/>
			<point x="534" y="493" type="line"/>
			<point x="565" y="493" type="line"/>
			<point x="560" y="636" type="line"/>
			<point x="500" y="674"/>
			<point x="444" y="687"/>
			<point x="376" y="687" type="curve" smooth="yes"/>
			<point x="190" y="687"/>
			<point x="57" y="545"/>
			<point x="57" y="337" type="curve" smooth="yes"/>
			<point x="57" y="128"/>
			<point x="184" y="-14"/>
		</contour>
	</outline>
	<anchor name="aboveUC" x="373" y="694"/>
	<anchor name="baseLC" x="373" y="0"/>
	<anchor name="belowLC" x="374" y="-20"/>
</glyph>
<glyph name="I" format="2">
	<unicode hex="0049"/>
	<advance width="351"/>
	<outline>
		<contour>
			<point x="51" y="0" type="line"/>
			<point x="301" y="0" type="line"/>
			<point x="301" y="23" type="line"/>
			<point x="184" y="33" type="line"/>
			<point x="167" y="33" type="line"/>
			<point x="51" y="23" type="line"/>
		</contour>
		<contour>
			<point x="148" y="0" type="curve"/>
			<point x="204" y="0" type="line"/>
			<point x="201" y="98"/>
			<point x="201" y="208"/>
			<point x="201" y="313" type="curve" smooth="yes"/>
			<point x="201" y="363" type="line" smooth="yes"/>
			<point x="201" y="467"/>
			<point x="201" y="577"/>
			<point x="204" y="674" type="curve"/>
			<point x="148" y="674" type="line"/>
			<point x="150" y="577"/>
			<point x="150" y="467"/>
			<point x="150" y="363" type="curve" smooth="yes"/>
			<point x="150" y="313" type="line" smooth="yes"/>
			<point x="150" y="208"/>
			<point x="150" y="97"/>
		</contour>
		<contour>
			<point x="51" y="650" type="line"/>
			<point x="167" y="641" type="line"/>
			<point x="184" y="641" type="line"/>
			<point x="301" y="650" type="line"/>
			<point x="301" y="674" type="line"/>
			<point x="51" y="674" type="line"/>
		</contour>
	</outline>
	<anchor name="aboveUC" x="176" y="694"/>
	<anchor name="belowLC" x="176" y="-20"/>
	<anchor name="ogonek" x="205" y="0"/>
</glyph>
<glyph name="J" format="2">
	<unicode hex="004A"/>
	<advance width="354"/>
	<outline>
		<contour>
			<point x="59" y="-125" type="curve" smooth="yes"/>
			<point x="101" y="-125"/>
			<point x="135" y="-108"/>
			<point x="165" y="-71" type="curve" smooth="yes"/>
			<point x="201" y="-25"/>
			<point x="215" y="34"/>
			<point x="215" y="174" type="curve" smooth="yes"/>
			<point x="215" y="361" type="line" smooth="yes"/>
			<point x="215" y="468"/>
			<point x="215" y="572"/>
			<point x="217" y="674" type="curve"/>
			<point x="163" y="674" type="line"/>
			<point x="165" y="368"/>
			<point x="167" y="258"/>
			<point x="167" y="127" type="curve" smooth="yes"/>
			<point x="167" y="-5"/>
			<point x="144" y="-69"/>
			<point x="96" y="-100" type="curve"/>
			<point x="96" y="-106" type="line"/>
			<point x="115" y="-106" type="line"/>
			<point x="115" y="-100" type="line"/>
			<point x="97" y="-86" type="line" smooth="yes"/>
			<point x="75" y="-70"/>
			<point x="59" y="-63"/>
			<point x="39" y="-63" type="curve" smooth="yes"/>
			<point x="16" y="-63"/>
			<point x="-1" y="-72"/>
			<point x="-5" y="-91" type="curve"/>
			<point x="-1" y="-116"/>
			<point x="27" y="-125"/>
		</contour>
		<contour>
			<point x="53" y="650" type="line"/>
			<point x="180" y="641" type="line"/>
			<point x="197" y="641" type="line"/>
			<point x="314" y="650" type="line"/>
			<point x="314" y="674" type="line"/>
			<point x="53" y="674" type="line"/>
		</contour>
	</outline>
	<anchor name="aboveUC" x="188" y="694"/>
	<anchor name="belowLC" x="134" y="-140"/>
</glyph>
<glyph name="P" format="2">
	<unicode hex="0050"/>
	<advance width="564"/>
	<outline>
		<contour>
			<point x="51" y="0" type="line"/>
			<point x="309" y="0" type="line"/>
			<point x="309" y="23" type="line"/>
			<point x="185" y="33" type="line"/>
			<point x="167" y="33" type="line"/>
			<point x="51" y="23" type="line"/>
		</contour>
		<contour>
			<point x="148" y="0" type="curve"/>
			<point x="204" y="0" type="line"/>
			<point x="201" y="98"/>
			<point x="201" y="206"/>
			<point x="201" y="305" type="curve" smooth="yes"/>
			<point x="201" y="363" type="line" smooth="yes"/>
			<point x="201" y="467"/>
			<point x="201" y="577"/>
			<point x="204" y="674" type="curve"/>
			<point x="148" y="674" type="line"/>
			<point x="150" y="577"/>
			<point x="150" y="467"/>
			<point x="150" y="363" type="curve" smooth="yes"/>
			<point x="150" y="313" type="line" smooth="yes"/>
			<point x="150" y="208"/>
			<point x="150" y="97"/>
		</contour>
		<contour>
			<point x="175" y="282" type="line"/>
			<point x="265" y="282" type="line" smooth="yes"/>
			<point x="448" y="282"/>
			<point x="527" y="370"/>
			<point x="527" y="481" type="curve" smooth="yes"/>
			<point x="527" y="598"/>
			<point x="451" y="674"/>
			<point x="298" y="674" type="curve" smooth="yes"/>
			<point x="175" y="674" type="line"/>
			<point x="175" y="647" type="line"/>
			<point x="287" y="647" type="line" smooth="yes"/>
			<point x="419" y="647"/>
			<point x="475" y="587"/>
			<point x="475" y="481" type="curve" smooth="yes"/>
			<point x="475" y="381"/>
			<point x="417" y="308"/>
			<point x="261" y="308" type="curve" smooth="yes"/>
			<point x="175" y="308" type="line"/>
		</contour>
		<contour>
			<point x="51" y="650" type="line"/>
			<point x="167" y="641" type="line"/>
			<point x="177" y="641" type="line"/>
			<point x="177" y="674" type="line"/>
			<point x="51" y="674" type="line"/>
		</contour>
	</outline>
	<anchor name="aboveUC" x="291" y="694"/>
	<anchor name="belowLC" x="176" y="-20"/>
</glyph>
<glyph name="Q" format="2">
	<unicode hex="0051"/>
	<advance width="689"/>
	<outline>
		<contour>
			<point x="487" y="-205" type="curve" smooth="yes"/>
			<point x="522" y="-205"/>
			<point x="565" y="-196"/>
			<point x="597" y="-175" type="curve"/>
			<point x="589" y="-156" type="line"/>
			<point x="559" y="-168"/>
			<point x="532" y="-173"/>
			<point x="500" y="-173" type="curve" smooth="yes"/>
			<point x="415" y="-173"/>
			<point x="360" y="-104"/>
			<point x="367" y="4" type="curve"/>
			<point x="317" y="5" type="line"/>
			<point x="317" y="-11" type="line" smooth="yes"/>
			<point x="317" y="-109"/>
			<point x="368" y="-205"/>
		</contour>
		<component base="O"/>
	</outline>
	<anchor name="aboveUC" x="345" y="694"/>
</glyph>
<glyph name="R" format="2">
	<unicode hex="0052"/>
	<advance width="638"/>
	<outline>
		<contour>
			<point x="51" y="0" type="line"/>
			<point x="301" y="0" type="line"/>
			<point x="301" y="23" type="line"/>
			<point x="185" y="33" type="line"/>
			<point x="167" y="33" type="line"/>
			<point x="51" y="23" type="line"/>
		</contour>
		<contour>
			<point x="148" y="0" type="curve"/>
			<point x="203" y="0" type="line"/>
			<point x="201" y="98"/>
			<point x="201" y="208"/>
			<point x="201" y="320" type="curve" smooth="yes"/>
			<point x="201" y="342" type="line" smooth="yes"/>
			<point x="201" y="468"/>
			<point x="201" y="576"/>
			<point x="203" y="674" type="curve"/>
			<point x="148" y="674" type="line"/>
			<point x="150" y="577"/>
			<point x="150" y="467"/>
			<point x="150" y="363" type="curve" smooth="yes"/>
			<point x="150" y="313" type="line" smooth="yes"/>
			<point x="150" y="208"/>
			<point x="150" y="97"/>
		</contour>
		<contour>
			<point x="556" y="-6" type="curve" smooth="yes"/>
			<point x="584" y="-6"/>
			<point x="607" y="-3"/>
			<point x="622" y="0" type="curve"/>
			<point x="622" y="23" type="line"/>
			<point x="514" y="31" type="line"/>
			<point x="537" y="18" type="line"/>
			<point x="461" y="215" type="line" smooth="yes"/>
			<point x="432" y="291"/>
			<point x="400" y="321"/>
			<point x="323" y="327" type="curve"/>
			<point x="331" y="319" type="line"/>
			<point x="458" y="326"/>
			<point x="530" y="402"/>
			<point x="530" y="499" type="curve" smooth="yes"/>
			<point x="530" y="612"/>
			<point x="450" y="674"/>
			<point x="308" y="674" type="curve" smooth="yes"/>
			<point x="175" y="674" type="line"/>
			<point x="175" y="647" type="line"/>
			<point x="306" y="647" type="line" smooth="yes"/>
			<point x="425" y="647"/>
			<point x="479" y="590"/>
			<point x="479" y="499" type="curve" smooth="yes"/>
			<point x="479" y="410"/>
			<point x="412" y="340"/>
			<point x="309" y="340" type="curve" smooth="yes"/>
			<point x="175" y="340" type="line"/>
			<point x="175" y="314" type="line"/>
			<point x="272" y="314" type="line" smooth="yes"/>
			<point x="357" y="314"/>
			<point x="385" y="288"/>
			<point x="411" y="213" type="curve" smooth="yes"/>
			<point x="474" y="41" type="line" smooth="yes"/>
			<point x="486" y="7"/>
			<point x="503" y="-6"/>
		</contour>
		<contour>
			<point x="51" y="650" type="line"/>
			<point x="167" y="641" type="line"/>
			<point x="177" y="641" type="line"/>
			<point x="177" y="674" type="line"/>
			<point x="51" y="674" type="line"/>
		</contour>
	</outline>
	<anchor name="aboveUC" x="314" y="694"/>
	<anchor name="belowLC" x="337" y="-20"/>
</glyph>
<glyph name="S" format="2">
	<unicode hex="0053"/>
	<advance width="505"/>
	<outline>
		<contour>
			<point x="236" y="-14" type="curve" smooth="yes"/>
			<point x="364" y="-14"/>
			<point x="455" y="55"/>
			<point x="455" y="168" type="curve" smooth="yes"/>
			<point x="455" y="265"/>
			<point x="402" y="314"/>
			<point x="276" y="365" type="curve" smooth="yes"/>
			<point x="238" y="381" type="line" smooth="yes"/>
			<point x="163" y="412"/>
			<point x="112" y="451"/>
			<point x="112" y="527" type="curve" smooth="yes"/>
			<point x="112" y="618"/>
			<point x="179" y="660"/>
			<point x="266" y="660" type="curve" smooth="yes"/>
			<point x="322" y="660"/>
			<point x="362" y="646"/>
			<point x="405" y="611" type="curve"/>
			<point x="405" y="633" type="line"/>
			<point x="374" y="649" type="line"/>
			<point x="392" y="509" type="line"/>
			<point x="422" y="509" type="line"/>
			<point x="426" y="638" type="line"/>
			<point x="382" y="670"/>
			<point x="337" y="687"/>
			<point x="267" y="687" type="curve" smooth="yes"/>
			<point x="160" y="687"/>
			<point x="67" y="632"/>
			<point x="67" y="517" type="curve" smooth="yes"/>
			<point x="67" y="424"/>
			<point x="129" y="370"/>
			<point x="226" y="330" type="curve" smooth="yes"/>
			<point x="264" y="315" type="line" smooth="yes"/>
			<point x="365" y="273"/>
			<point x="410" y="237"/>
			<point x="410" y="161" type="curve" smooth="yes"/>
			<point x="410" y="63"/>
			<point x="337" y="14"/>
			<point x="235" y="14" type="curve" smooth="yes"/>
			<point x="168" y="14"/>
			<point x="125" y="30"/>
			<point x="71" y="69" type="curve"/>
			<point x="70" y="47" type="line"/>
			<point x="103" y="31" type="line"/>
			<point x="85" y="175" type="line"/>
			<point x="56" y="175" type="line"/>
			<point x="50" y="40" type="line"/>
			<point x="91" y="12"/>
			<point x="160" y="-14"/>
		</contour>
	</outline>
	<anchor name="aboveUC" x="268" y="694"/>
	<anchor name="baseLC" x="238" y="0"/>
	<anchor name="belowLC" x="239" y="-20"/>
</glyph>
<glyph name="T" format="2">
	<unicode hex="0054"/>
	<advance width="587"/>
	<outline>
		<contour>
			<point x="158" y="0" type="line"/>
			<point x="429" y="0" type="line"/>
			<point x="429" y="23" type="line"/>
			<point x="302" y="33" type="line"/>
			<point x="285" y="33" type="line"/>
			<point x="158" y="23" type="line"/>
		</contour>
		<contour>
			<point x="266" y="0" type="curve"/>
			<point x="321" y="0" type="line"/>
			<point x="319" y="98"/>
			<point x="319" y="208"/>
			<point x="319" y="313" type="curve" smooth="yes"/>
			<point x="319" y="363" type="line" smooth="yes"/>
			<point x="319" y="467"/>
			<point x="319" y="577"/>
			<point x="321" y="674" type="curve"/>
			<point x="266" y="674" type="line"/>
			<point x="268" y="577"/>
			<point x="268" y="467"/>
			<point x="268" y="363" type="curve" smooth="yes"/>
			<point x="268" y="313" type="line" smooth="yes"/>
			<point x="268" y="208"/>
			<point x="268" y="97"/>
		</contour>
		<contour>
			<point x="22" y="503" type="line"/>
			<point x="51" y="503" type="line"/>
			<point x="79" y="671" type="line"/>
			<point x="54" y="646" type="line"/>
			<point x="533" y="646" type="line"/>
			<point x="509" y="671" type="line"/>
			<point x="536" y="503" type="line"/>
			<point x="566" y="503" type="line"/>
			<point x="556" y="674" type="line"/>
			<point x="31" y="674" type="line"/>
		</contour>
	</outline>
	<anchor name="aboveUC" x="294" y="694"/>
	<anchor name="baseLC" x="294" y="0"/>
	<anchor name="belowLC" x="294" y="-20"/>
</glyph>
<glyph name="U" format="2">
	<unicode hex="0055"/>
	<advance width="719"/>
	<outline>
		<contour>
			<point x="361" y="-14" type="curve" smooth="yes"/>
			<point x="508" y="-14"/>
			<point x="588" y="73"/>
			<point x="588" y="253" type="curve" smooth="yes"/>
			<point x="588" y="674" type="line"/>
			<point x="558" y="674" type="line"/>
			<point x="558" y="275" type="line" smooth="yes"/>
			<point x="558" y="94"/>
			<point x="498" y="25"/>
			<point x="367" y="25" type="curve" smooth="yes"/>
			<point x="258" y="25"/>
			<point x="187" y="87"/>
			<point x="187" y="258" type="curve" smooth="yes"/>
			<point x="187" y="353" type="line" smooth="yes"/>
			<point x="187" y="472"/>
			<point x="187" y="573"/>
			<point x="189" y="674" type="curve"/>
			<point x="134" y="674" type="line"/>
			<point x="136" y="573"/>
			<point x="136" y="470"/>
			<point x="136" y="353" type="curve" smooth="yes"/>
			<point x="136" y="245" type="line" smooth="yes"/>
			<point x="136" y="61"/>
			<point x="226" y="-14"/>
		</contour>
		<contour>
			<point x="46" y="650" type="line"/>
			<point x="156" y="641" type="line"/>
			<point x="173" y="641" type="line"/>
			<point x="290" y="650" type="line"/>
			<point x="290" y="674" type="line"/>
			<point x="46" y="674" type="line"/>
		</contour>
		<contour>
			<point x="450" y="650" type="line"/>
			<point x="564" y="641" type="line"/>
			<point x="578" y="641" type="line"/>
			<point x="675" y="650" type="line"/>
			<point x="675" y="674" type="line"/>
			<point x="450" y="674" type="line"/>
		</contour>
	</outline>
	<anchor name="aboveUC" x="374" y="694"/>
	<anchor name="belowLC" x="365" y="-20"/>
	<anchor name="hornLC" x="585" y="607"/>
	<anchor name="ogonek" x="442" y="0"/>
</glyph>
<glyph name="W" format="2">
	<unicode hex="0057"/>
	<advance width="942"/>
	<outline>
		<contour>
			<point x="275" y="-8" type="line"/>
			<point x="300" y="-8" type="line"/>
			<point x="476" y="596" type="line"/>
			<point x="480" y="609" type="line"/>
			<point x="464" y="609" type="line"/>
			<point x="646" y="-8" type="line"/>
			<point x="671" y="-8" type="line"/>
			<point x="851" y="674" type="line"/>
			<point x="820" y="674" type="line"/>
			<point x="664" y="69" type="line"/>
			<point x="660" y="56" type="line"/>
			<point x="675" y="56" type="line"/>
			<point x="495" y="674" type="line"/>
			<point x="472" y="674" type="line"/>
			<point x="294" y="71" type="line"/>
			<point x="290" y="58" type="line"/>
			<point x="306" y="58" type="line"/>
			<point x="142" y="674" type="line"/>
			<point x="89" y="674" type="line"/>
		</contour>
		<contour>
			<point x="12" y="650" type="line"/>
			<point x="118" y="641" type="line"/>
			<point x="135" y="641" type="line"/>
			<point x="248" y="650" type="line"/>
			<point x="248" y="674" type="line"/>
			<point x="12" y="674" type="line"/>
		</contour>
		<contour>
			<point x="369" y="650" type="line"/>
			<point x="475" y="641" type="line"/>
			<point x="492" y="641" type="line"/>
			<point x="601" y="650" type="line"/>
			<point x="601" y="674" type="line"/>
			<point x="369" y="674" type="line"/>
		</contour>
		<contour>
			<point x="715" y="650" type="line"/>
			<point x="818" y="641" type="line"/>
			<point x="833" y="641" type="line"/>
			<point x="933" y="650" type="line"/>
			<point x="933" y="674" type="line"/>
			<point x="715" y="674" type="line"/>
		</contour>
	</outline>
	<anchor name="aboveUC" x="483" y="694"/>
	<anchor name="belowLC" x="476" y="-20"/>
</glyph>
<glyph name="Z" format="2">
	<unicode hex="005A"/>
	<advance width="538"/>
	<outline>
		<contour>
			<point x="26" y="0" type="line"/>
			<point x="503" y="0" type="line"/>
			<point x="513" y="171" type="line"/>
			<point x="483" y="171" type="line"/>
			<point x="454" y="13" type="line"/>
			<point x="477" y="28" type="line"/>
			<point x="279" y="28" type="line"/>
			<point x="82" y="28" type="line"/>
			<point x="82" y="37" type="line"/>
			<point x="76" y="13" type="line"/>
			<point x="492" y="652" type="line"/>
			<point x="492" y="674" type="line"/>
			<point x="46" y="674" type="line"/>
			<point x="37" y="505" type="line"/>
			<point x="67" y="505" type="line"/>
			<point x="96" y="662" type="line"/>
			<point x="71" y="646" type="line"/>
			<point x="254" y="646" type="line"/>
			<point x="437" y="646" type="line"/>
			<point x="437" y="636" type="line"/>
			<point x="444" y="661" type="line"/>
			<point x="26" y="22" type="line"/>
		</contour>
	</outline>
	<anchor name="aboveUC" x="263" y="694"/>
	<anchor name="belowLC" x="281" y="-20"/>
</glyph>
<glyph name="a" format="2">
	<unicode hex="0061"/>
	<advance width="493"/>
	<outline>
		<contour>
			<point x="174" y="-13" type="curve" smooth="yes"/>
			<point x="237" y="-13"/>
			<point x="280" y="17"/>
			<point x="339" y="82" type="curve"/>
			<point x="355" y="82" type="line"/>
			<point x="351" y="119" type="line"/>
			<point x="278" y="47"/>
			<point x="240" y="24"/>
			<point x="191" y="24" type="curve" smooth="yes"/>
			<point x="136" y="24"/>
			<point x="100" y="55"/>
			<point x="100" y="113" type="curve" smooth="yes"/>
			<point x="100" y="158"/>
			<point x="127" y="197"/>
			<point x="210" y="227" type="curve" smooth="yes"/>
			<point x="255" y="243"/>
			<point x="308" y="258"/>
			<point x="357" y="271" type="curve"/>
			<point x="357" y="292" type="line"/>
			<point x="305" y="279"/>
			<point x="252" y="267"/>
			<point x="201" y="251" type="curve" smooth="yes"/>
			<point x="92" y="216"/>
			<point x="51" y="169"/>
			<point x="51" y="104" type="curve" smooth="yes"/>
			<point x="51" y="28"/>
			<point x="104" y="-13"/>
		</contour>
		<contour>
			<point x="408" y="-11" type="curve" smooth="yes"/>
			<point x="436" y="-11"/>
			<point x="461" y="2"/>
			<point x="478" y="26" type="curve"/>
			<point x="465" y="39" type="line"/>
			<point x="451" y="26"/>
			<point x="439" y="20"/>
			<point x="423" y="20" type="curve" smooth="yes"/>
			<point x="395" y="20"/>
			<point x="381" y="37"/>
			<point x="381" y="96" type="curve" smooth="yes"/>
			<point x="381" y="326" type="line" smooth="yes"/>
			<point x="381" y="433"/>
			<point x="332" y="479"/>
			<point x="235" y="479" type="curve" smooth="yes"/>
			<point x="150" y="479"/>
			<point x="85" y="438"/>
			<point x="64" y="365" type="curve"/>
			<point x="67" y="348"/>
			<point x="77" y="338"/>
			<point x="94" y="338" type="curve" smooth="yes"/>
			<point x="111" y="338"/>
			<point x="122" y="347"/>
			<point x="127" y="367" type="curve" smooth="yes"/>
			<point x="146" y="442" type="line"/>
			<point x="118" y="417" type="line"/>
			<point x="155" y="441"/>
			<point x="188" y="452"/>
			<point x="226" y="452" type="curve" smooth="yes"/>
			<point x="299" y="452"/>
			<point x="334" y="424"/>
			<point x="334" y="319" type="curve" smooth="yes"/>
			<point x="334" y="91" type="line"/>
			<point x="334" y="87" type="line"/>
			<point x="336" y="25"/>
			<point x="360" y="-11"/>
		</contour>
	</outline>
	<anchor name="aboveLC" x="231" y="486"/>
	<anchor name="belowLC" x="237" y="-20"/>
	<anchor name="ogonek" x="424" y="0"/>
</glyph>
<glyph name="c" format="2">
	<unicode hex="0063"/>
	<advance width="472"/>
	<outline>
		<contour>
			<point x="265" y="-13" type="curve" smooth="yes"/>
			<point x="342" y="-13"/>
			<point x="397" y="22"/>
			<point x="436" y="80" type="curve"/>
			<point x="422" y="91" type="line"/>
			<point x="381" y="45"/>
			<point x="330" y="25"/>
			<point x="274" y="25" type="curve" smooth="yes"/>
			<point x="170" y="25"/>
			<point x="98" y="104"/>
			<point x="98" y="234" type="curve" smooth="yes"/>
			<point x="98" y="367"/>
			<point x="173" y="452"/>
			<point x="271" y="452" type="curve" smooth="yes"/>
			<point x="307" y="452"/>
			<point x="339" y="442"/>
			<point x="376" y="415" type="curve"/>
			<point x="342" y="448" type="line"/>
			<point x="368" y="368" type="line" smooth="yes"/>
			<point x="373" y="350"/>
			<point x="383" y="339"/>
			<point x="402" y="339" type="curve" smooth="yes"/>
			<point x="418" y="339"/>
			<point x="429" y="348"/>
			<point x="432" y="365" type="curve"/>
			<point x="410" y="436"/>
			<point x="348" y="478"/>
			<point x="271" y="478" type="curve" smooth="yes"/>
			<point x="156" y="478"/>
			<point x="48" y="388"/>
			<point x="48" y="229" type="curve" smooth="yes"/>
			<point x="48" y="77"/>
			<point x="135" y="-13"/>
		</contour>
	</outline>
	<anchor name="aboveLC" x="270" y="486"/>
	<anchor name="baseLC" x="265" y="0"/>
	<anchor name="belowLC" x="265" y="-20"/>
</glyph>
<glyph name="d" format="2">
	<unicode hex="0064"/>
	<advance width="558"/>
	<outline>
		<contour>
			<point x="242" y="-13" type="curve" smooth="yes"/>
			<point x="305" y="-13"/>
			<point x="360" y="16"/>
			<point x="403" y="79" type="curve"/>
			<point x="412" y="79" type="line"/>
			<point x="404" y="109" type="line"/>
			<point x="356" y="46"/>
			<point x="311" y="20"/>
			<point x="253" y="20" type="curve" smooth="yes"/>
			<point x="166" y="20"/>
			<point x="99" y="89"/>
			<point x="99" y="226" type="curve" smooth="yes"/>
			<point x="99" y="377"/>
			<point x="174" y="445"/>
			<point x="261" y="445" type="curve" smooth="yes"/>
			<point x="314" y="445"/>
			<point x="356" y="422"/>
			<point x="405" y="365" type="curve"/>
			<point x="413" y="393" type="line"/>
			<point x="403" y="393" type="line"/>
			<point x="359" y="455"/>
			<point x="306" y="478"/>
			<point x="255" y="478" type="curve" smooth="yes"/>
			<point x="141" y="478"/>
			<point x="49" y="385"/>
			<point x="49" y="225" type="curve" smooth="yes"/>
			<point x="49" y="81"/>
			<point x="130" y="-13"/>
		</contour>
		<contour>
			<point x="396" y="-7" type="line"/>
			<point x="531" y="0" type="line"/>
			<point x="531" y="22" type="line"/>
			<point x="440" y="30" type="line"/>
			<point x="440" y="588" type="line"/>
			<point x="443" y="738" type="line"/>
			<point x="431" y="745" type="line"/>
			<point x="309" y="723" type="line"/>
			<point x="309" y="701" type="line"/>
			<point x="395" y="697" type="line"/>
			<point x="395" y="391" type="line"/>
			<point x="394" y="384" type="line"/>
			<point x="394" y="88" type="line"/>
			<point x="394" y="86" type="line"/>
		</contour>
	</outline>
	<anchor name="aboveLC" x="409" y="746"/>
	<anchor name="belowLC" x="261" y="-20"/>
</glyph>
<glyph name="e" format="2">
	<unicode hex="0065"/>
	<advance width="484"/>
	<outline>
		<contour>
			<point x="269" y="-13" type="curve" smooth="yes"/>
			<point x="342" y="-13"/>
			<point x="401" y="21"/>
			<point x="441" y="80" type="curve"/>
			<point x="428" y="91" type="line"/>
			<point x="389" y="48"/>
			<point x="339" y="25"/>
			<point x="278" y="25" type="curve" smooth="yes"/>
			<point x="171" y="25"/>
			<point x="98" y="97"/>
			<point x="98" y="241" type="curve" smooth="yes"/>
			<point x="98" y="367"/>
			<point x="170" y="452"/>
			<point x="260" y="452" type="curve" smooth="yes"/>
			<point x="344" y="452"/>
			<point x="391" y="387"/>
			<point x="391" y="309" type="curve" smooth="yes"/>
			<point x="391" y="279"/>
			<point x="383" y="266"/>
			<point x="355" y="266" type="curve" smooth="yes"/>
			<point x="73" y="266" type="line"/>
			<point x="73" y="241" type="line"/>
			<point x="431" y="241" type="line"/>
			<point x="435" y="255"/>
			<point x="437" y="273"/>
			<point x="437" y="295" type="curve" smooth="yes"/>
			<point x="437" y="399"/>
			<point x="369" y="478"/>
			<point x="260" y="478" type="curve" smooth="yes"/>
			<point x="145" y="478"/>
			<point x="49" y="379"/>
			<point x="49" y="229" type="curve" smooth="yes"/>
			<point x="49" y="68"/>
			<point x="140" y="-13"/>
		</contour>
	</outline>
	<anchor name="aboveLC" x="262" y="486"/>
	<anchor name="belowLC" x="267" y="-20"/>
	<anchor name="ogonek" x="335" y="0"/>
</glyph>
<glyph name="h" format="2">
	<unicode hex="0068"/>
	<advance width="590"/>
	<outline>
		<contour>
			<point x="40" y="0" type="line"/>
			<point x="249" y="0" type="line"/>
			<point x="249" y="22" type="line"/>
			<point x="154" y="32" type="line"/>
			<point x="141" y="32" type="line"/>
			<point x="40" y="22" type="line"/>
		</contour>
		<contour>
			<point x="122" y="0" type="curve"/>
			<point x="174" y="0" type="line"/>
			<point x="172" y="45"/>
			<point x="171" y="148"/>
			<point x="171" y="210" type="curve" smooth="yes"/>
			<point x="171" y="355" type="line"/>
			<point x="170" y="363" type="line"/>
			<point x="170" y="586" type="line"/>
			<point x="173" y="738" type="line"/>
			<point x="160" y="745" type="line"/>
			<point x="39" y="723" type="line"/>
			<point x="39" y="701" type="line"/>
			<point x="125" y="697" type="line"/>
			<point x="125" y="210" type="line" smooth="yes"/>
			<point x="125" y="148"/>
			<point x="124" y="45"/>
		</contour>
		<contour>
			<point x="350" y="0" type="line"/>
			<point x="557" y="0" type="line"/>
			<point x="557" y="22" type="line"/>
			<point x="463" y="32" type="line"/>
			<point x="450" y="32" type="line"/>
			<point x="350" y="22" type="line"/>
		</contour>
		<contour>
			<point x="431" y="0" type="curve"/>
			<point x="483" y="0" type="line"/>
			<point x="481" y="45"/>
			<point x="480" y="146"/>
			<point x="480" y="210" type="curve" smooth="yes"/>
			<point x="480" y="308" type="line" smooth="yes"/>
			<point x="480" y="433"/>
			<point x="436" y="478"/>
			<point x="359" y="478" type="curve" smooth="yes"/>
			<point x="296" y="478"/>
			<point x="226" y="442"/>
			<point x="161" y="364" type="curve"/>
			<point x="154" y="364" type="line"/>
			<point x="164" y="339" type="line"/>
			<point x="236" y="419"/>
			<point x="297" y="439"/>
			<point x="341" y="439" type="curve" smooth="yes"/>
			<point x="401" y="439"/>
			<point x="434" y="405"/>
			<point x="434" y="307" type="curve" smooth="yes"/>
			<point x="434" y="210" type="line" smooth="yes"/>
			<point x="434" y="146"/>
			<point x="433" y="45"/>
		</contour>
	</outline>
	<anchor name="aboveLC" x="148" y="746"/>
	<anchor name="belowLC" x="299" y="-20"/>
</glyph>
<glyph name="j" format="2">
	<unicode hex="006A"/>
	<advance width="271"/>
	<outline>
		<contour>
			<point x="8" y="-256" type="curve" smooth="yes"/>
			<point x="51" y="-256"/>
			<point x="80" y="-242"/>
			<point x="109" y="-212" type="curve" smooth="yes"/>
			<point x="164" y="-157"/>
			<point x="169" y="-83"/>
			<point x="169" y="93" type="curve" smooth="yes"/>
			<point x="169" y="347" type="line"/>
			<point x="171" y="468" type="line"/>
			<point x="161" y="475" type="line"/>
			<point x="35" y="447" type="line"/>
			<point x="35" y="425" type="line"/>
			<point x="121" y="421" type="line"/>
			<point x="123" y="372"/>
			<point x="124" y="320"/>
			<point x="124" y="257" type="curve" smooth="yes"/>
			<point x="124" y="69" type="line" smooth="yes"/>
			<point x="124" y="-57"/>
			<point x="119" y="-146"/>
			<point x="92" y="-190" type="curve" smooth="yes"/>
			<point x="80" y="-211"/>
			<point x="61" y="-225"/>
			<point x="42" y="-232" type="curve"/>
			<point x="42" y="-240" type="line"/>
			<point x="68" y="-240" type="line"/>
			<point x="68" y="-235" type="line"/>
			<point x="37" y="-215" type="line" smooth="yes"/>
			<point x="16" y="-201"/>
			<point x="-2" y="-195"/>
			<point x="-20" y="-195" type="curve" smooth="yes"/>
			<point x="-42" y="-195"/>
			<point x="-57" y="-205"/>
			<point x="-61" y="-223" type="curve"/>
			<point x="-56" y="-240"/>
			<point x="-33" y="-256"/>
		</contour>
		<contour>
			<point x="141" y="609" type="curve" smooth="yes"/>
			<point x="164" y="609"/>
			<point x="184" y="626"/>
			<point x="184" y="651" type="curve" smooth="yes"/>
			<point x="184" y="676"/>
			<point x="164" y="693"/>
			<point x="141" y="693" type="curve" smooth="yes"/>
			<point x="118" y="693"/>
			<point x="99" y="676"/>
			<point x="99" y="651" type="curve" smooth="yes"/>
			<point x="99" y="626"/>
			<point x="118" y="609"/>
		</contour>
	</outline>
	<anchor name="aboveLC" x="142" y="693"/>
	<anchor name="belowLC" x="51" y="-268"/>
</glyph>
<glyph name="n" format="2">
	<unicode hex="006E"/>
	<advance width="590"/>
	<outline>
		<contour>
			<point x="41" y="0" type="line"/>
			<point x="249" y="0" type="line"/>
			<point x="249" y="22" type="line"/>
			<point x="154" y="32" type="line"/>
			<point x="141" y="32" type="line"/>
			<point x="41" y="22" type="line"/>
		</contour>
		<contour>
			<point x="122" y="0" type="curve"/>
			<point x="175" y="0" type="line"/>
			<point x="172" y="45"/>
			<point x="171" y="148"/>
			<point x="171" y="210" type="curve" smooth="yes"/>
			<point x="171" y="359" type="line"/>
			<point x="171" y="361" type="line"/>
			<point x="167" y="468" type="line"/>
			<point x="157" y="475" type="line"/>
			<point x="36" y="447" type="line"/>
			<point x="36" y="425" type="line"/>
			<point x="122" y="421" type="line"/>
			<point x="124" y="372"/>
			<point x="125" y="321"/>
			<point x="125" y="257" type="curve" smooth="yes"/>
			<point x="125" y="210" type="line" smooth="yes"/>
			<point x="125" y="148"/>
			<point x="124" y="45"/>
		</contour>
		<contour>
			<point x="349" y="0" type="line"/>
			<point x="556" y="0" type="line"/>
			<point x="556" y="22" type="line"/>
			<point x="462" y="32" type="line"/>
			<point x="450" y="32" type="line"/>
			<point x="349" y="22" type="line"/>
		</contour>
		<contour>
			<point x="430" y="0" type="curve"/>
			<point x="482" y="0" type="line"/>
			<point x="480" y="45"/>
			<point x="479" y="146"/>
			<point x="479" y="210" type="curve" smooth="yes"/>
			<point x="479" y="308" type="line" smooth="yes"/>
			<point x="479" y="433"/>
			<point x="435" y="478"/>
			<point x="358" y="478" type="curve" smooth="yes"/>
			<point x="295" y="478"/>
			<point x="225" y="442"/>
			<point x="161" y="364" type="curve"/>
			<point x="155" y="364" type="line"/>
			<point x="163" y="340" type="line"/>
			<point x="235" y="418"/>
			<point x="296" y="439"/>
			<point x="340" y="439" type="curve" smooth="yes"/>
			<point x="400" y="439"/>
			<point x="433" y="405"/>
			<point x="433" y="307" type="curve" smooth="yes"/>
			<point x="433" y="210" type="line" smooth="yes"/>
			<point x="433" y="146"/>
			<point x="432" y="45"/>
		</contour>
	</outline>
	<anchor name="aboveLC" x="301" y="486"/>
	<anchor name="belowLC" x="302" y="-20"/>
</glyph>
<glyph name="o" format="2">
	<unicode hex="006F"/>
	<advance width="527"/>
	<outline>
		<contour>
			<point x="263" y="-13" type="curve" smooth="yes"/>
			<point x="371" y="-13"/>
			<point x="478" y="66"/>
			<point x="478" y="232" type="curve" smooth="yes"/>
			<point x="478" y="399"/>
			<point x="370" y="478"/>
			<point x="263" y="478" type="curve" smooth="yes"/>
			<point x="156" y="478"/>
			<point x="49" y="397"/>
			<point x="49" y="230" type="curve" smooth="yes"/>
			<point x="49" y="64"/>
			<point x="156" y="-13"/>
		</contour>
		<contour>
			<point x="263" y="13" type="curve" smooth="yes"/>
			<point x="166" y="13"/>
			<point x="100" y="90"/>
			<point x="100" y="230" type="curve" smooth="yes"/>
			<point x="100" y="371"/>
			<point x="166" y="453"/>
			<point x="263" y="453" type="curve" smooth="yes"/>
			<point x="360" y="453"/>
			<point x="426" y="373"/>
			<point x="426" y="232" type="curve" smooth="yes"/>
			<point x="426" y="92"/>
			<point x="360" y="13"/>
		</contour>
	</outline>
	<anchor name="aboveLC" x="263" y="486"/>
	<anchor name="belowLC" x="262" y="-20"/>
	<anchor name="hornLC" x="393" y="388"/>
	<anchor name="ogonek" x="334" y="0"/>
</glyph>
<glyph name="w" format="2">
	<unicode hex="0077"/>
	<advance width="749"/>
	<outline>
		<contour>
			<point x="217" y="-5" type="line"/>
			<point x="238" y="-5" type="line"/>
			<point x="383" y="413" type="line"/>
			<point x="387" y="424" type="line"/>
			<point x="370" y="424" type="line"/>
			<point x="516" y="-5" type="line"/>
			<point x="538" y="-5" type="line"/>
			<point x="691" y="466" type="line"/>
			<point x="659" y="466" type="line"/>
			<point x="531" y="53" type="line"/>
			<point x="528" y="41" type="line"/>
			<point x="544" y="41" type="line"/>
			<point x="398" y="466" type="line"/>
			<point x="375" y="466" type="line"/>
			<point x="232" y="54" type="line"/>
			<point x="227" y="41" type="line"/>
			<point x="245" y="41" type="line"/>
			<point x="107" y="466" type="line"/>
			<point x="54" y="466" type="line"/>
		</contour>
		<contour>
			<point x="0" y="443" type="line"/>
			<point x="85" y="433" type="line"/>
			<point x="98" y="433" type="line"/>
			<point x="200" y="443" type="line"/>
			<point x="200" y="466" type="line"/>
			<point x="0" y="466" type="line"/>
		</contour>
		<contour>
			<point x="292" y="443" type="line"/>
			<point x="380" y="434" type="line"/>
			<point x="397" y="434" type="line"/>
			<point x="482" y="443" type="line"/>
			<point x="482" y="466" type="line"/>
			<point x="292" y="466" type="line"/>
		</contour>
		<contour>
			<point x="566" y="443" type="line"/>
			<point x="662" y="434" type="line"/>
			<point x="673" y="434" type="line"/>
			<point x="742" y="443" type="line"/>
			<point x="742" y="466" type="line"/>
			<point x="566" y="466" type="line"/>
		</contour>
	</outline>
	<anchor name="aboveLC" x="386" y="486"/>
	<anchor name="belowLC" x="378" y="-20"/>
</glyph>
<glyph name="x" format="2">
	<unicode hex="0078"/>
	<advance width="494"/>
	<outline>
		<contour>
			<point x="10" y="0" type="line"/>
			<point x="182" y="0" type="line"/>
			<point x="182" y="22" type="line"/>
			<point x="101" y="31" type="line"/>
			<point x="88" y="31" type="line"/>
			<point x="10" y="22" type="line"/>
		</contour>
		<contour>
			<point x="53" y="0" type="line"/>
			<point x="89" y="0" type="line"/>
			<point x="254" y="229" type="line"/>
			<point x="254" y="230" type="line"/>
			<point x="238" y="246" type="line"/>
		</contour>
		<contour>
			<point x="287" y="0" type="line"/>
			<point x="484" y="0" type="line"/>
			<point x="484" y="22" type="line"/>
			<point x="396" y="32" type="line"/>
			<point x="383" y="32" type="line"/>
			<point x="287" y="22" type="line"/>
		</contour>
		<contour>
			<point x="255" y="223" type="line"/>
			<point x="436" y="466" type="line"/>
			<point x="401" y="466" type="line"/>
			<point x="239" y="241" type="line"/>
			<point x="239" y="240" type="line"/>
		</contour>
		<contour>
			<point x="383" y="0" type="line"/>
			<point x="439" y="0" type="line"/>
			<point x="262" y="251" type="line"/>
			<point x="114" y="466" type="line"/>
			<point x="61" y="466" type="line"/>
			<point x="231" y="221" type="line"/>
		</contour>
		<contour>
			<point x="16" y="443" type="line"/>
			<point x="104" y="433" type="line"/>
			<point x="117" y="433" type="line"/>
			<point x="207" y="443" type="line"/>
			<point x="207" y="466" type="line"/>
			<point x="16" y="466" type="line"/>
		</contour>
		<contour>
			<point x="306" y="443" type="line"/>
			<point x="389" y="434" type="line"/>
			<point x="400" y="434" type="line"/>
			<point x="475" y="443" type="line"/>
			<point x="475" y="466" type="line"/>
			<point x="306" y="466" type="line"/>
		</contour>
	</outline>
	<anchor name="aboveLC" x="256" y="486"/>
	<anchor name="belowLC" x="237" y="-20"/>
</glyph>
<glyph name="y" format="2">
	<unicode hex="0079"/>
	<advance width="492"/>
	<outline>
		<contour>
			<point x="66" y="-256" type="curve" smooth="yes"/>
			<point x="139" y="-256"/>
			<point x="198" y="-187"/>
			<point x="249" y="-50" type="curve" smooth="yes"/>
			<point x="440" y="466" type="line"/>
			<point x="408" y="466" type="line"/>
			<point x="250" y="28" type="line"/>
			<point x="218" y="-59" type="line" smooth="yes"/>
			<point x="183" y="-154"/>
			<point x="134" y="-219"/>
			<point x="73" y="-231" type="curve"/>
			<point x="93" y="-243" type="line"/>
			<point x="116" y="-234" type="line"/>
			<point x="92" y="-214" type="line" smooth="yes"/>
			<point x="72" y="-197"/>
			<point x="53" y="-188"/>
			<point x="34" y="-188" type="curve" smooth="yes"/>
			<point x="13" y="-188"/>
			<point x="-4" y="-198"/>
			<point x="-8" y="-216" type="curve"/>
			<point x="-2" y="-242"/>
			<point x="31" y="-256"/>
		</contour>
		<contour>
			<point x="242" y="-27" type="line"/>
			<point x="263" y="20" type="line"/>
			<point x="263" y="38" type="line"/>
			<point x="105" y="466" type="line"/>
			<point x="51" y="466" type="line"/>
		</contour>
		<contour>
			<point x="-3" y="444" type="line"/>
			<point x="86" y="435" type="line"/>
			<point x="99" y="435" type="line"/>
			<point x="202" y="443" type="line"/>
			<point x="202" y="466" type="line"/>
			<point x="-3" y="466" type="line"/>
		</contour>
		<contour>
			<point x="311" y="444" type="line"/>
			<point x="407" y="435" type="line"/>
			<point x="418" y="435" type="line"/>
			<point x="491" y="444" type="line"/>
			<point x="491" y="466" type="line"/>
			<point x="311" y="466" type="line"/>
		</contour>
	</outline>
	<anchor name="aboveLC" x="260" y="486"/>
	<anchor name="belowLC" x="118" y="-268"/>
</glyph>
<glyph name="z" format="2">
	<unicode hex="007A"/>
	<advance width="444"/>
	<outline>
		<contour>
			<point x="44" y="0" type="line"/>
			<point x="403" y="0" type="line"/>
			<point x="411" y="147" type="line"/>
			<point x="384" y="147" type="line"/>
			<point x="356" y="10" type="line"/>
			<point x="378" y="25" type="line"/>
			<point x="229" y="25" type="line"/>
			<point x="93" y="25" type="line"/>
			<point x="93" y="42" type="line"/>
			<point x="87" y="8" type="line"/>
			<point x="396" y="444" type="line"/>
			<point x="396" y="466" type="line"/>
			<point x="54" y="466" type="line"/>
			<point x="48" y="332" type="line"/>
			<point x="74" y="328" type="line"/>
			<point x="100" y="456" type="line"/>
			<point x="77" y="441" type="line"/>
			<point x="219" y="441" type="line"/>
			<point x="347" y="441" type="line"/>
			<point x="353" y="433" type="line"/>
			<point x="353" y="457" type="line"/>
			<point x="44" y="21" type="line"/>
		</contour>
	</outline>
	<anchor name="aboveLC" x="230" y="486"/>
	<anchor name="belowLC" x="231" y="-20"/>
</glyph>
<glyph name="yen" format="2">
	<unicode hex="00A5"/>
	<advance width="485"/>
	<outline>
		<contour>
			<point x="254" y="243" type="line"/>
			<point x="438" y="652" type="line"/>
			<point x="407" y="652" type="line"/>
			<point x="251" y="297" type="line"/>
			<point x="247" y="288" type="line"/>
			<point x="260" y="288" type="line"/>
			<point x="99" y="652" type="line"/>
			<point x="46" y="652" type="line"/>
			<point x="234" y="241" type="line"/>
		</contour>
		<contour>
			<point x="81" y="619" type="line"/>
			<point x="96" y="619" type="line"/>
			<point x="204" y="629" type="line"/>
			<point x="204" y="652" type="line"/>
			<point x="-6" y="652" type="line"/>
			<point x="-6" y="629" type="line"/>
		</contour>
		<contour>
			<point x="234" y="32" type="line"/>
			<point x="113" y="23" type="line"/>
			<point x="113" y="0" type="line"/>
			<point x="373" y="0" type="line"/>
			<point x="373" y="23" type="line"/>
			<point x="252" y="32" type="line"/>
		</contour>
		<contour>
			<point x="220" y="176" type="line" smooth="yes"/>
			<point x="220" y="122"/>
			<point x="219" y="79"/>
			<point x="218" y="0" type="curve"/>
			<point x="268" y="0" type="line"/>
			<point x="266" y="79"/>
			<point x="266" y="122"/>
			<point x="266" y="176" type="curve" smooth="yes"/>
			<point x="266" y="292" type="line"/>
			<point x="220" y="292" type="line"/>
		</contour>
		<contour>
			<point x="404" y="620" type="line"/>
			<point x="415" y="620" type="line"/>
			<point x="490" y="629" type="line"/>
			<point x="490" y="652" type="line"/>
			<point x="303" y="652" type="line"/>
			<point x="303" y="629" type="line"/>
		</contour>
		<contour>
			<point x="55" y="152" type="line"/>
			<point x="430" y="152" type="line"/>
			<point x="430" y="181" type="line"/>
			<point x="55" y="181" type="line"/>
		</contour>
		<contour>
			<point x="55" y="268" type="line"/>
			<point x="430" y="268" type="line"/>
			<point x="430" y="296" type="line"/>
			<point x="55" y="296" type="line"/>
		</contour>
	</outline>
</glyph>
<glyph name="logicalnot" format="2">
	<unicode hex="00AC"/>
	<advance width="522"/>
	<outline>
		<contour>
			<point x="36" y="355" type="line"/>
			<point x="461" y="355" type="line"/>
			<point x="450" y="366" type="line"/>
			<point x="450" y="171" type="line"/>
			<point x="486" y="171" type="line"/>
			<point x="486" y="388" type="line"/>
			<point x="36" y="388" type="line"/>
		</contour>
	</outline>
</glyph>
<glyph name="three.sups" format="2">
	<unicode hex="00B3"/>
	<advance width="341"/>
	<outline>
		<contour>
			<point x="163" y="420" type="curve" smooth="yes"/>
			<point x="241" y="420"/>
			<point x="301" y="463"/>
			<point x="301" y="535" type="curve" smooth="yes"/>
			<point x="301" y="597"/>
			<point x="256" y="637"/>
			<point x="174" y="640" type="curve"/>
			<point x="176" y="634" type="line"/>
			<point x="244" y="641"/>
			<point x="286" y="685"/>
			<point x="286" y="738" type="curve" smooth="yes"/>
			<point x="286" y="795"/>
			<point x="241" y="835"/>
			<point x="169" y="835" type="curve" smooth="yes"/>
			<point x="114" y="835"/>
			<point x="64" y="810"/>
			<point x="53" y="755" type="curve"/>
			<point x="56" y="744"/>
			<point x="64" y="738"/>
			<point x="75" y="738" type="curve" smooth="yes"/>
			<point x="88" y="738"/>
			<point x="97" y="746"/>
			<point x="102" y="767" type="curve" smooth="yes"/>
			<point x="117" y="818" type="line"/>
			<point x="94" y="798" type="line"/>
			<point x="118" y="811"/>
			<point x="138" y="814"/>
			<point x="161" y="814" type="curve" smooth="yes"/>
			<point x="213" y="814"/>
			<point x="244" y="783"/>
			<point x="244" y="735" type="curve" smooth="yes"/>
			<point x="244" y="682"/>
			<point x="205" y="649"/>
			<point x="145" y="649" type="curve" smooth="yes"/>
			<point x="119" y="649" type="line"/>
			<point x="119" y="626" type="line"/>
			<point x="149" y="626" type="line" smooth="yes"/>
			<point x="223" y="626"/>
			<point x="257" y="590"/>
			<point x="257" y="535" type="curve" smooth="yes"/>
			<point x="257" y="479"/>
			<point x="220" y="441"/>
			<point x="154" y="441" type="curve" smooth="yes"/>
			<point x="128" y="441"/>
			<point x="107" y="445"/>
			<point x="85" y="457" type="curve"/>
			<point x="107" y="436" type="line"/>
			<point x="91" y="489" type="line" smooth="yes"/>
			<point x="85" y="512"/>
			<point x="77" y="519"/>
			<point x="64" y="519" type="curve" smooth="yes"/>
			<point x="53" y="519"/>
			<point x="44" y="514"/>
			<point x="40" y="502" type="curve"/>
			<point x="53" y="448"/>
			<point x="98" y="420"/>
		</contour>
	</outline>
</glyph>
<glyph name="one.sups" format="2">
	<unicode hex="00B9"/>
	<advance width="341"/>
	<outline>
		<contour>
			<point x="63" y="429" type="line"/>
			<point x="295" y="429" type="line"/>
			<point x="295" y="446" type="line"/>
			<point x="196" y="457" type="line"/>
			<point x="165" y="457" type="line"/>
			<point x="63" y="446" type="line"/>
		</contour>
		<contour>
			<point x="160" y="429" type="line"/>
			<point x="202" y="429" type="line"/>
			<point x="202" y="827" type="line"/>
			<point x="194" y="833" type="line"/>
			<point x="71" y="801" type="line"/>
			<point x="71" y="781" type="line"/>
			<point x="160" y="793" type="line"/>
		</contour>
	</outline>
</glyph>
<glyph name="AE" format="2">
	<unicode hex="00C6"/>
	<advance width="896"/>
	<outline>
		<contour>
			<point x="460" y="0" type="curve"/>
			<point x="514" y="0" type="line"/>
			<point x="512" y="98"/>
			<point x="512" y="208"/>
			<point x="512" y="330" type="curve" smooth="yes"/>
			<point x="512" y="354" type="line" smooth="yes"/>
			<point x="512" y="467"/>
			<point x="512" y="577"/>
			<point x="514" y="674" type="curve"/>
			<point x="463" y="674" type="line"/>
			<point x="463" y="285" type="line" smooth="yes"/>
			<point x="463" y="197"/>
			<point x="462" y="91"/>
		</contour>
		<contour>
			<point x="10" y="0" type="line"/>
			<point x="215" y="0" type="line"/>
			<point x="215" y="23" type="line"/>
			<point x="117" y="33" type="line"/>
			<point x="102" y="33" type="line"/>
			<point x="10" y="23" type="line"/>
		</contour>
		<contour>
			<point x="699" y="232" type="line"/>
			<point x="723" y="232" type="line"/>
			<point x="723" y="453" type="line"/>
			<point x="699" y="453" type="line"/>
			<point x="685" y="352" type="line"/>
			<point x="685" y="334" type="line"/>
		</contour>
		<contour>
			<point x="809" y="510" type="line"/>
			<point x="839" y="510" type="line"/>
			<point x="830" y="674" type="line"/>
			<point x="487" y="674" type="line"/>
			<point x="487" y="646" type="line"/>
			<point x="786" y="646" type="line"/>
		</contour>
		<contour>
			<point x="487" y="0" type="line"/>
			<point x="845" y="0" type="line"/>
			<point x="855" y="167" type="line"/>
			<point x="825" y="167" type="line"/>
			<point x="802" y="28" type="line"/>
			<point x="487" y="28" type="line"/>
		</contour>
		<contour>
			<point x="341" y="650" type="line"/>
			<point x="443" y="641" type="line"/>
			<point x="486" y="641" type="line"/>
			<point x="486" y="674" type="line"/>
			<point x="341" y="674" type="line"/>
		</contour>
		<contour>
			<point x="364" y="0" type="line"/>
			<point x="488" y="0" type="line"/>
			<point x="488" y="33" type="line"/>
			<point x="479" y="33" type="line"/>
			<point x="364" y="23" type="line"/>
		</contour>
		<contour>
			<point x="74" y="0" type="line"/>
			<point x="109" y="0" type="line"/>
			<point x="251" y="267" type="line"/>
			<point x="469" y="674" type="line"/>
			<point x="434" y="674" type="line"/>
		</contour>
		<contour>
			<point x="233" y="254" type="line"/>
			<point x="487" y="254" type="line"/>
			<point x="487" y="280" type="line"/>
			<point x="233" y="280" type="line"/>
		</contour>
		<contour>
			<point x="487" y="329" type="line"/>
			<point x="701" y="329" type="line"/>
			<point x="701" y="356" type="line"/>
			<point x="487" y="356" type="line"/>
		</contour>
	</outline>
	<anchor name="aboveUC" x="602" y="694"/>
</glyph>
<glyph name="ae" format="2">
	<unicode hex="00E6"/>
	<advance width="761"/>
	<outline>
		<contour>
			<point x="177" y="-13" type="curve" smooth="yes"/>
			<point x="246" y="-13"/>
			<point x="292" y="22"/>
			<point x="370" y="108" type="curve"/>
			<point x="376" y="108" type="line"/>
			<point x="360" y="126" type="line"/>
			<point x="281" y="47"/>
			<point x="245" y="24"/>
			<point x="193" y="24" type="curve" smooth="yes"/>
			<point x="135" y="24"/>
			<point x="100" y="57"/>
			<point x="100" y="113" type="curve" smooth="yes"/>
			<point x="100" y="158"/>
			<point x="128" y="196"/>
			<point x="209" y="227" type="curve" smooth="yes"/>
			<point x="251" y="243"/>
			<point x="307" y="259"/>
			<point x="356" y="270" type="curve"/>
			<point x="356" y="291" type="line"/>
			<point x="305" y="280"/>
			<point x="249" y="267"/>
			<point x="201" y="251" type="curve" smooth="yes"/>
			<point x="93" y="214"/>
			<point x="51" y="170"/>
			<point x="51" y="105" type="curve" smooth="yes"/>
			<point x="51" y="28"/>
			<point x="103" y="-13"/>
		</contour>
		<contour>
			<point x="548" y="-13" type="curve" smooth="yes"/>
			<point x="620" y="-13"/>
			<point x="678" y="20"/>
			<point x="717" y="78" type="curve"/>
			<point x="704" y="90" type="line"/>
			<point x="665" y="47"/>
			<point x="616" y="25"/>
			<point x="557" y="25" type="curve" smooth="yes"/>
			<point x="453" y="25"/>
			<point x="382" y="97"/>
			<point x="382" y="241" type="curve" smooth="yes"/>
			<point x="382" y="367"/>
			<point x="452" y="452"/>
			<point x="540" y="452" type="curve" smooth="yes"/>
			<point x="622" y="452"/>
			<point x="668" y="387"/>
			<point x="668" y="309" type="curve" smooth="yes"/>
			<point x="668" y="279"/>
			<point x="660" y="266"/>
			<point x="633" y="266" type="curve" smooth="yes"/>
			<point x="356" y="266" type="line"/>
			<point x="356" y="241" type="line"/>
			<point x="709" y="241" type="line"/>
			<point x="713" y="255"/>
			<point x="714" y="273"/>
			<point x="714" y="295" type="curve" smooth="yes"/>
			<point x="714" y="399"/>
			<point x="648" y="478"/>
			<point x="541" y="478" type="curve" smooth="yes"/>
			<point x="458" y="478"/>
			<point x="385" y="421"/>
			<point x="353" y="329" type="curve"/>
			<point x="378" y="330" type="line"/>
			<point x="378" y="434"/>
			<point x="327" y="478"/>
			<point x="235" y="478" type="curve" smooth="yes"/>
			<point x="150" y="478"/>
			<point x="84" y="438"/>
			<point x="65" y="363" type="curve"/>
			<point x="67" y="347"/>
			<point x="78" y="336"/>
			<point x="95" y="336" type="curve" smooth="yes"/>
			<point x="111" y="336"/>
			<point x="124" y="346"/>
			<point x="129" y="365" type="curve" smooth="yes"/>
			<point x="147" y="442" type="line"/>
			<point x="117" y="416" type="line"/>
			<point x="154" y="442"/>
			<point x="188" y="452"/>
			<point x="226" y="452" type="curve" smooth="yes"/>
			<point x="298" y="452"/>
			<point x="334" y="423"/>
			<point x="334" y="318" type="curve" smooth="yes"/>
			<point x="334" y="234" type="line" smooth="yes"/>
			<point x="334" y="68"/>
			<point x="424" y="-13"/>
		</contour>
	</outline>
	<anchor name="aboveLC" x="380" y="486"/>
	<anchor name="belowLC" x="364" y="-20"/>
</glyph>
<glyph name="divide" format="2">
	<unicode hex="00F7"/>
	<advance width="521"/>
	<outline>
		<contour>
			<point x="260" y="101" type="curve" smooth="yes"/>
			<point x="285" y="101"/>
			<point x="303" y="119"/>
			<point x="303" y="143" type="curve" smooth="yes"/>
			<point x="303" y="167"/>
			<point x="285" y="184"/>
			<point x="260" y="184" type="curve" smooth="yes"/>
			<point x="236" y="184"/>
			<point x="218" y="167"/>
			<point x="218" y="143" type="curve" smooth="yes"/>
			<point x="218" y="119"/>
			<point x="236" y="101"/>
		</contour>
		<contour>
			<point x="260" y="480" type="curve" smooth="yes"/>
			<point x="285" y="480"/>
			<point x="303" y="498"/>
			<point x="303" y="521" type="curve" smooth="yes"/>
			<point x="303" y="546"/>
			<point x="285" y="563"/>
			<point x="260" y="563" type="curve" smooth="yes"/>
			<point x="236" y="563"/>
			<point x="218" y="546"/>
			<point x="218" y="521" type="curve" smooth="yes"/>
			<point x="218" y="498"/>
			<point x="236" y="480"/>
		</contour>
		<component base="minus"/>
	</outline>
</glyph>
<glyph name="aogonek" format="2">
	<unicode hex="0105"/>
	<advance width="493"/>
	<outline>
		<contour>
			<point x="174" y="-13" type="curve" smooth="yes"/>
			<point x="237" y="-13"/>
			<point x="280" y="17"/>
			<point x="339" y="82" type="curve"/>
			<point x="355" y="82" type="line"/>
			<point x="351" y="119" type="line"/>
			<point x="278" y="47"/>
			<point x="240" y="24"/>
			<point x="191" y="24" type="curve" smooth="yes"/>
			<point x="136" y="24"/>
			<point x="100" y="55"/>
			<point x="100" y="113" type="curve" smooth="yes"/>
			<point x="100" y="158"/>
			<point x="127" y="197"/>
			<point x="210" y="227" type="curve" smooth="yes"/>
			<point x="255" y="243"/>
			<point x="308" y="258"/>
			<point x="357" y="271" type="curve"/>
			<point x="357" y="292" type="line"/>
			<point x="305" y="279"/>
			<point x="252" y="267"/>
			<point x="201" y="251" type="curve" smooth="yes"/>
			<point x="92" y="216"/>
			<point x="51" y="169"/>
			<point x="51" y="104" type="curve" smooth="yes"/>
			<point x="51" y="28"/>
			<point x="104" y="-13"/>
		</contour>
		<contour>
			<point x="408" y="-219" type="curve" smooth="yes"/>
			<point x="446" y="-219"/>
			<point x="479" y="-202"/>
			<point x="498" y="-175" type="curve"/>
			<point x="488" y="-163" type="line"/>
			<point x="467" y="-180"/>
			<point x="448" y="-185"/>
			<point x="426" y="-185" type="curve" smooth="yes"/>
			<point x="388" y="-185"/>
			<point x="360" y="-160"/>
			<point x="360" y="-114" type="curve" smooth="yes"/>
			<point x="360" y="-72"/>
			<point x="399" y="-33"/>
			<point x="443" y="-4" type="curve" smooth="yes"/>
			<point x="457" y="6"/>
			<point x="467" y="13"/>
			<point x="477" y="26" type="curve"/>
			<point x="466" y="39" type="line"/>
			<point x="450" y="26"/>
			<point x="437" y="20"/>
			<point x="422" y="20" type="curve" smooth="yes"/>
			<point x="395" y="20"/>
			<point x="381" y="37"/>
			<point x="381" y="96" type="curve" smooth="yes"/>
			<point x="381" y="326" type="line" smooth="yes"/>
			<point x="381" y="433"/>
			<point x="332" y="479"/>
			<point x="235" y="479" type="curve" smooth="yes"/>
			<point x="150" y="479"/>
			<point x="85" y="438"/>
			<point x="64" y="365" type="curve"/>
			<point x="67" y="348"/>
			<point x="77" y="338"/>
			<point x="94" y="338" type="curve" smooth="yes"/>
			<point x="111" y="338"/>
			<point x="122" y="347"/>
			<point x="127" y="367" type="curve" smooth="yes"/>
			<point x="146" y="443" type="line"/>
			<point x="117" y="417" type="line"/>
			<point x="156" y="442"/>
			<point x="189" y="452"/>
			<point x="226" y="452" type="curve" smooth="yes"/>
			<point x="299" y="452"/>
			<point x="334" y="424"/>
			<point x="334" y="319" type="curve" smooth="yes"/>
			<point x="334" y="91" type="line"/>
			<point x="334" y="87" type="line" smooth="yes"/>
			<point x="336" y="25"/>
			<point x="360" y="-10"/>
			<point x="409" y="-10" type="curve" smooth="yes"/>
			<point x="411" y="-10"/>
			<point x="415" y="-10"/>
			<point x="420" y="-9" type="curve"/>
			<point x="419" y="-4" type="line"/>
			<point x="366" y="-36"/>
			<point x="321" y="-78"/>
			<point x="321" y="-131" type="curve" smooth="yes"/>
			<point x="321" y="-186"/>
			<point x="359" y="-219"/>
		</contour>
	</outline>
	<anchor name="aboveLC" x="234" y="486"/>
	<anchor name="belowLC" x="243" y="-20"/>
</glyph>
<glyph name="dcroat" format="2">
	<unicode hex="0111"/>
	<advance width="558"/>
	<outline>
		<contour>
			<point x="202" y="571" type="line"/>
			<point x="526" y="571" type="line"/>
			<point x="526" y="599" type="line"/>
			<point x="202" y="599" type="line"/>
		</contour>
		<contour>
			<point x="99" y="223" type="curve" smooth="yes"/>
			<point x="99" y="368"/>
			<point x="174" y="434"/>
			<point x="261" y="434" type="curve" smooth="yes"/>
			<point x="314" y="434"/>
			<point x="356" y="410"/>
			<point x="405" y="354" type="curve"/>
			<point x="414" y="372" type="line"/>
			<point x="410" y="372" type="line"/>
			<point x="365" y="441"/>
			<point x="310" y="467"/>
			<point x="255" y="467" type="curve" smooth="yes"/>
			<point x="141" y="467"/>
			<point x="49" y="376"/>
			<point x="49" y="222" type="curve" smooth="yes"/>
			<point x="49" y="79"/>
			<point x="130" y="-13"/>
			<point x="242" y="-13" type="curve" smooth="yes"/>
			<point x="307" y="-13"/>
			<point x="364" y="18"/>
			<point x="409" y="90" type="curve"/>
			<point x="407" y="103" type="line"/>
			<point x="404" y="109" type="line"/>
			<point x="356" y="46"/>
			<point x="311" y="20"/>
			<point x="253" y="20" type="curve" smooth="yes"/>
			<point x="166" y="20"/>
			<point x="99" y="88"/>
		</contour>
		<contour>
			<point x="531" y="0" type="line"/>
			<point x="531" y="22" type="line"/>
			<point x="440" y="30" type="line"/>
			<point x="440" y="580" type="line"/>
			<point x="443" y="738" type="line"/>
			<point x="431" y="745" type="line"/>
			<point x="309" y="723" type="line"/>
			<point x="309" y="701" type="line"/>
			<point x="395" y="698" type="line"/>
			<point x="395" y="380" type="line"/>
			<point x="394" y="375" type="line"/>
			<point x="394" y="89" type="line"/>
			<point x="394" y="86" type="line"/>
			<point x="396" y="-7" type="line"/>
		</contour>
	</outline>
</glyph>
<glyph name="eogonek" format="2">
	<unicode hex="0119"/>
	<advance width="484"/>
	<outline>
		<contour>
			<point x="333" y="-219" type="curve" smooth="yes"/>
			<point x="371" y="-219"/>
			<point x="404" y="-202"/>
			<point x="423" y="-175" type="curve"/>
			<point x="413" y="-163" type="line"/>
			<point x="392" y="-180"/>
			<point x="372" y="-185"/>
			<point x="351" y="-185" type="curve" smooth="yes"/>
			<point x="313" y="-185"/>
			<point x="284" y="-160"/>
			<point x="284" y="-113" type="curve" smooth="yes"/>
			<point x="284" y="-69"/>
			<point x="323" y="-21"/>
			<point x="365" y="9" type="curve" smooth="yes"/>
			<point x="393" y="29"/>
			<point x="417" y="49"/>
			<point x="435" y="79" type="curve"/>
			<point x="421" y="91" type="line"/>
			<point x="383" y="49"/>
			<point x="336" y="25"/>
			<point x="275" y="25" type="curve" smooth="yes"/>
			<point x="177" y="25"/>
			<point x="98" y="98"/>
			<point x="98" y="242" type="curve" smooth="yes"/>
			<point x="98" y="370"/>
			<point x="170" y="452"/>
			<point x="260" y="452" type="curve" smooth="yes"/>
			<point x="345" y="452"/>
			<point x="391" y="387"/>
			<point x="391" y="309" type="curve" smooth="yes"/>
			<point x="391" y="279"/>
			<point x="383" y="267"/>
			<point x="355" y="267" type="curve" smooth="yes"/>
			<point x="73" y="267" type="line"/>
			<point x="73" y="241" type="line"/>
			<point x="431" y="241" type="line"/>
			<point x="435" y="256"/>
			<point x="437" y="274"/>
			<point x="437" y="295" type="curve" smooth="yes"/>
			<point x="437" y="400"/>
			<point x="369" y="478"/>
			<point x="260" y="478" type="curve" smooth="yes"/>
			<point x="148" y="478"/>
			<point x="49" y="381"/>
			<point x="49" y="232" type="curve" smooth="yes"/>
			<point x="49" y="69"/>
			<point x="146" y="-13"/>
			<point x="265" y="-13" type="curve" smooth="yes"/>
			<point x="289" y="-13"/>
			<point x="315" y="-9"/>
			<point x="339" y="-1" type="curve"/>
			<point x="342" y="10" type="line"/>
			<point x="298" y="-19"/>
			<point x="246" y="-71"/>
			<point x="246" y="-130" type="curve" smooth="yes"/>
			<point x="246" y="-185"/>
			<point x="284" y="-219"/>
		</contour>
	</outline>
	<anchor name="aboveLC" x="262" y="486"/>
	<anchor name="belowLC" x="267" y="-20"/>
</glyph>
<glyph name="dotlessi" format="2">
	<unicode hex="0131"/>
	<advance width="292"/>
	<outline>
		<contour>
			<point x="42" y="0" type="line"/>
			<point x="250" y="0" type="line"/>
			<point x="250" y="22" type="line"/>
			<point x="155" y="32" type="line"/>
			<point x="142" y="32" type="line"/>
			<point x="42" y="22" type="line"/>
		</contour>
		<contour>
			<point x="123" y="0" type="curve"/>
			<point x="175" y="0" type="line"/>
			<point x="173" y="45"/>
			<point x="172" y="148"/>
			<point x="172" y="210" type="curve" smooth="yes"/>
			<point x="172" y="347" type="line"/>
			<point x="175" y="468" type="line"/>
			<point x="164" y="475" type="line"/>
			<point x="37" y="447" type="line"/>
			<point x="37" y="425" type="line"/>
			<point x="123" y="421" type="line"/>
			<point x="125" y="372"/>
			<point x="126" y="320"/>
			<point x="126" y="257" type="curve" smooth="yes"/>
			<point x="126" y="210" type="line" smooth="yes"/>
			<point x="126" y="148"/>
			<point x="125" y="45"/>
		</contour>
	</outline>
	<anchor name="aboveLC" x="145" y="486"/>
	<anchor name="belowLC" x="149" y="-20"/>
	<anchor name="ogonek" x="175" y="0"/>
</glyph>
<glyph name="kgreenlandic" format="2">
	<unicode hex="0138"/>
	<advance width="531"/>
	<outline>
		<contour>
			<point x="38" y="0" type="line"/>
			<point x="247" y="0" type="line"/>
			<point x="247" y="22" type="line"/>
			<point x="152" y="32" type="line"/>
			<point x="139" y="32" type="line"/>
			<point x="38" y="22" type="line"/>
		</contour>
		<contour>
			<point x="119" y="0" type="curve"/>
			<point x="172" y="0" type="line"/>
			<point x="170" y="45"/>
			<point x="169" y="148"/>
			<point x="169" y="210" type="curve" smooth="yes"/>
			<point x="169" y="347" type="line"/>
			<point x="171" y="466" type="line"/>
			<point x="161" y="473" type="line"/>
			<point x="34" y="445" type="line"/>
			<point x="34" y="424" type="line"/>
			<point x="120" y="419" type="line"/>
			<point x="122" y="370"/>
			<point x="123" y="319"/>
			<point x="123" y="256" type="curve" smooth="yes"/>
			<point x="123" y="210" type="line" smooth="yes"/>
			<point x="123" y="148"/>
			<point x="122" y="45"/>
		</contour>
		<contour>
			<point x="146" y="158" type="line"/>
			<point x="446" y="466" type="line"/>
			<point x="408" y="466" type="line"/>
			<point x="149" y="197" type="line"/>
			<point x="146" y="197" type="line"/>
		</contour>
		<contour>
			<point x="413" y="0" type="line"/>
			<point x="524" y="0" type="line"/>
			<point x="524" y="22" type="line"/>
			<point x="424" y="32" type="line"/>
			<point x="460" y="14" type="line"/>
			<point x="277" y="308" type="line"/>
			<point x="244" y="275" type="line"/>
		</contour>
		<contour>
			<point x="388" y="431" type="line"/>
			<point x="400" y="433" type="line"/>
			<point x="505" y="443" type="line"/>
			<point x="505" y="466" type="line"/>
			<point x="287" y="466" type="line"/>
			<point x="287" y="443" type="line"/>
		</contour>
	</outline>
</glyph>
<glyph name="eng" format="2">
	<unicode hex="014B"/>
	<advance width="585"/>
	<outline>
		<contour>
			<point x="41" y="0" type="line"/>
			<point x="249" y="0" type="line"/>
			<point x="249" y="22" type="line"/>
			<point x="154" y="32" type="line"/>
			<point x="141" y="32" type="line"/>
			<point x="41" y="22" type="line"/>
		</contour>
		<contour>
			<point x="122" y="0" type="curve"/>
			<point x="175" y="0" type="line"/>
			<point x="172" y="45"/>
			<point x="171" y="148"/>
			<point x="171" y="210" type="curve" smooth="yes"/>
			<point x="171" y="359" type="line"/>
			<point x="171" y="360" type="line"/>
			<point x="167" y="468" type="line"/>
			<point x="157" y="475" type="line"/>
			<point x="36" y="447" type="line"/>
			<point x="36" y="425" type="line"/>
			<point x="122" y="421" type="line"/>
			<point x="124" y="372"/>
			<point x="125" y="321"/>
			<point x="125" y="257" type="curve" smooth="yes"/>
			<point x="125" y="210" type="line" smooth="yes"/>
			<point x="125" y="148"/>
			<point x="124" y="45"/>
		</contour>
		<contour>
			<point x="318" y="-256" type="curve" smooth="yes"/>
			<point x="360" y="-256"/>
			<point x="390" y="-241"/>
			<point x="418" y="-212" type="curve" smooth="yes"/>
			<point x="470" y="-160"/>
			<point x="479" y="-94"/>
			<point x="479" y="101" type="curve" smooth="yes"/>
			<point x="479" y="308" type="line" smooth="yes"/>
			<point x="479" y="433"/>
			<point x="435" y="478"/>
			<point x="358" y="478" type="curve" smooth="yes"/>
			<point x="293" y="478"/>
			<point x="221" y="440"/>
			<point x="156" y="358" type="curve"/>
			<point x="153" y="358" type="line"/>
			<point x="163" y="340" type="line"/>
			<point x="235" y="418"/>
			<point x="296" y="439"/>
			<point x="340" y="439" type="curve" smooth="yes"/>
			<point x="400" y="439"/>
			<point x="433" y="405"/>
			<point x="433" y="307" type="curve" smooth="yes"/>
			<point x="433" y="69" type="line" smooth="yes"/>
			<point x="433" y="-57"/>
			<point x="429" y="-146"/>
			<point x="402" y="-191" type="curve" smooth="yes"/>
			<point x="389" y="-211"/>
			<point x="370" y="-225"/>
			<point x="351" y="-232" type="curve"/>
			<point x="351" y="-241" type="line"/>
			<point x="376" y="-241" type="line"/>
			<point x="376" y="-234" type="line"/>
			<point x="347" y="-215" type="line" smooth="yes"/>
			<point x="325" y="-201"/>
			<point x="308" y="-195"/>
			<point x="290" y="-195" type="curve" smooth="yes"/>
			<point x="267" y="-195"/>
			<point x="253" y="-205"/>
			<point x="249" y="-223" type="curve"/>
			<point x="253" y="-240"/>
			<point x="276" y="-256"/>
		</contour>
	</outline>
</glyph>
<glyph name="Uogonek" format="2">
	<unicode hex="0172"/>
	<advance width="719"/>
	<outline>
		<contour>
			<point x="156" y="641" type="line"/>
			<point x="173" y="641" type="line"/>
			<point x="290" y="650" type="line"/>
			<point x="290" y="674" type="line"/>
			<point x="46" y="674" type="line"/>
			<point x="46" y="650" type="line"/>
		</contour>
		<contour>
			<point x="440" y="-225" type="curve" smooth="yes"/>
			<point x="475" y="-225"/>
			<point x="499" y="-213"/>
			<point x="521" y="-189" type="curve"/>
			<point x="512" y="-175" type="line"/>
			<point x="492" y="-187"/>
			<point x="476" y="-192"/>
			<point x="456" y="-192" type="curve" smooth="yes"/>
			<point x="422" y="-192"/>
			<point x="398" y="-167"/>
			<point x="398" y="-124" type="curve" smooth="yes"/>
			<point x="398" y="-67"/>
			<point x="432" y="-18"/>
			<point x="487" y="17" type="curve" smooth="yes"/>
			<point x="552" y="58"/>
			<point x="588" y="131"/>
			<point x="588" y="253" type="curve" smooth="yes"/>
			<point x="588" y="674" type="line"/>
			<point x="558" y="674" type="line"/>
			<point x="558" y="274" type="line" smooth="yes"/>
			<point x="558" y="93"/>
			<point x="498" y="25"/>
			<point x="366" y="25" type="curve" smooth="yes"/>
			<point x="258" y="25"/>
			<point x="187" y="86"/>
			<point x="187" y="257" type="curve" smooth="yes"/>
			<point x="187" y="353" type="line" smooth="yes"/>
			<point x="187" y="471"/>
			<point x="187" y="573"/>
			<point x="189" y="674" type="curve"/>
			<point x="134" y="674" type="line"/>
			<point x="136" y="573"/>
			<point x="136" y="470"/>
			<point x="136" y="353" type="curve" smooth="yes"/>
			<point x="136" y="244" type="line" smooth="yes"/>
			<point x="136" y="60"/>
			<point x="226" y="-14"/>
			<point x="363" y="-14" type="curve" smooth="yes"/>
			<point x="395" y="-14"/>
			<point x="422" y="-9"/>
			<point x="447" y="-1" type="curve"/>
			<point x="447" y="5" type="line"/>
			<point x="400" y="-28"/>
			<point x="360" y="-75"/>
			<point x="360" y="-141" type="curve" smooth="yes"/>
			<point x="360" y="-194"/>
			<point x="394" y="-225"/>
		</contour>
		<contour>
			<point x="566" y="641" type="line"/>
			<point x="580" y="641" type="line"/>
			<point x="675" y="650" type="line"/>
			<point x="675" y="674" type="line"/>
			<point x="450" y="674" type="line"/>
			<point x="450" y="650" type="line"/>
		</contour>
	</outline>
	<anchor name="aboveUC" x="374" y="694"/>
</glyph>
<glyph name="uogonek" format="2">
	<unicode hex="0173"/>
	<advance width="583"/>
	<outline>
		<contour>
			<point x="387" y="-132" type="curve" smooth="yes"/>
			<point x="387" y="-188"/>
			<point x="425" y="-220"/>
			<point x="475" y="-220" type="curve" smooth="yes"/>
			<point x="513" y="-220"/>
			<point x="546" y="-205"/>
			<point x="565" y="-177" type="curve"/>
			<point x="556" y="-164" type="line"/>
			<point x="534" y="-182"/>
			<point x="515" y="-187"/>
			<point x="494" y="-187" type="curve" smooth="yes"/>
			<point x="454" y="-187"/>
			<point x="426" y="-161"/>
			<point x="426" y="-113" type="curve" smooth="yes"/>
			<point x="426" y="-72"/>
			<point x="453" y="-32"/>
			<point x="501" y="3" type="curve"/>
			<point x="481" y="3" type="line"/>
			<point x="429" y="-30"/>
			<point x="387" y="-76"/>
		</contour>
		<component base="u"/>
	</outline>
	<anchor name="aboveLC" x="274" y="486"/>
	<anchor name="belowLC" x="296" y="-20"/>
</glyph>
<glyph name="Schwa" format="2">
	<unicode hex="018F"/>
	<advance width="642"/>
	<outline>
		<contour>
			<point x="55" y="276" type="curve" smooth="yes"/>
			<point x="55" y="113"/>
			<point x="147" y="-14"/>
			<point x="320" y="-14" type="curve" smooth="yes"/>
			<point x="469" y="-14"/>
			<point x="586" y="119"/>
			<point x="586" y="342" type="curve" smooth="yes"/>
			<point x="586" y="572"/>
			<point x="454" y="687"/>
			<point x="302" y="687" type="curve" smooth="yes"/>
			<point x="215" y="687"/>
			<point x="143" y="649"/>
			<point x="92" y="585" type="curve"/>
			<point x="107" y="569" type="line"/>
			<point x="156" y="622"/>
			<point x="218" y="654"/>
			<point x="293" y="654" type="curve" smooth="yes"/>
			<point x="422" y="654"/>
			<point x="531" y="552"/>
			<point x="531" y="339" type="curve" smooth="yes"/>
			<point x="531" y="139"/>
			<point x="454" y="14"/>
			<point x="321" y="14" type="curve" smooth="yes"/>
			<point x="179" y="14"/>
			<point x="108" y="137"/>
			<point x="108" y="267" type="curve" smooth="yes"/>
			<point x="108" y="295"/>
			<point x="109" y="309"/>
			<point x="112" y="330" type="curve"/>
			<point x="550" y="330" type="line"/>
			<point x="549" y="357" type="line"/>
			<point x="63" y="357" type="line"/>
			<point x="58" y="337"/>
			<point x="55" y="311"/>
		</contour>
	</outline>
	<anchor name="aboveUC" x="307" y="694"/>
	<anchor name="belowLC" x="320" y="-20"/>
</glyph>
<glyph name="uhorn" format="2">
	<unicode hex="01B0"/>
	<advance width="583"/>
	<outline>
		<contour>
			<point x="243" y="-13" type="curve" smooth="yes"/>
			<point x="315" y="-13"/>
			<point x="375" y="29"/>
			<point x="427" y="98" type="curve"/>
			<point x="437" y="98" type="line"/>
			<point x="424" y="121" type="line"/>
			<point x="369" y="56"/>
			<point x="314" y="27"/>
			<point x="258" y="27" type="curve" smooth="yes"/>
			<point x="194" y="27"/>
			<point x="158" y="63"/>
			<point x="158" y="168" type="curve" smooth="yes"/>
			<point x="158" y="347" type="line"/>
			<point x="162" y="461" type="line"/>
			<point x="153" y="471" type="line"/>
			<point x="33" y="460" type="line"/>
			<point x="33" y="438" type="line"/>
			<point x="128" y="427" type="line"/>
			<point x="113" y="442" type="line"/>
			<point x="112" y="163" type="line" smooth="yes"/>
			<point x="111" y="32"/>
			<point x="158" y="-13"/>
		</contour>
		<contour>
			<point x="421" y="-6" type="line"/>
			<point x="541" y="0" type="line"/>
			<point x="541" y="22" type="line"/>
			<point x="465" y="30" type="line"/>
			<point x="465" y="347" type="line"/>
			<point x="469" y="461" type="line"/>
			<point x="445" y="450" type="line"/>
			<point x="522" y="457"/>
			<point x="557" y="511"/>
			<point x="557" y="568" type="curve" smooth="yes"/>
			<point x="557" y="596"/>
			<point x="548" y="616"/>
			<point x="538" y="633" type="curve"/>
			<point x="531" y="638"/>
			<point x="525" y="640"/>
			<point x="518" y="640" type="curve" smooth="yes"/>
			<point x="503" y="640"/>
			<point x="493" y="629"/>
			<point x="493" y="615" type="curve" smooth="yes"/>
			<point x="493" y="594"/>
			<point x="518" y="579"/>
			<point x="518" y="539" type="curve" smooth="yes"/>
			<point x="518" y="504"/>
			<point x="500" y="474"/>
			<point x="446" y="469" type="curve" smooth="yes"/>
			<point x="340" y="460" type="line"/>
			<point x="340" y="437" type="line"/>
			<point x="420" y="430" type="line"/>
			<point x="419" y="106" type="line"/>
			<point x="419" y="104" type="line"/>
		</contour>
	</outline>
	<anchor name="aboveLC" x="279" y="486"/>
	<anchor name="belowLC" x="294" y="-20"/>
</glyph>
<glyph name="r.sups" format="2">
	<unicode hex="02B3"/>
	<advance width="271"/>
	<outline>
		<contour>
			<point x="81" y="429" type="line"/>
			<point x="120" y="429" type="line"/>
			<point x="120" y="646" type="line"/>
			<point x="120" y="647" type="line"/>
			<point x="117" y="734" type="line"/>
			<point x="109" y="739" type="line"/>
			<point x="24" y="716" type="line"/>
			<point x="24" y="698" type="line"/>
			<point x="81" y="694" type="line"/>
		</contour>
		<contour>
			<point x="119" y="617" type="line"/>
			<point x="139" y="672"/>
			<point x="169" y="706"/>
			<point x="212" y="719" type="curve"/>
			<point x="181" y="717" type="line"/>
			<point x="197" y="705" type="line" smooth="yes"/>
			<point x="210" y="695"/>
			<point x="222" y="689"/>
			<point x="234" y="689" type="curve" smooth="yes"/>
			<point x="251" y="689"/>
			<point x="263" y="699"/>
			<point x="264" y="716" type="curve"/>
			<point x="260" y="734"/>
			<point x="242" y="742"/>
			<point x="224" y="742" type="curve" smooth="yes"/>
			<point x="179" y="742"/>
			<point x="137" y="704"/>
			<point x="116" y="643" type="curve"/>
			<point x="103" y="643" type="line"/>
		</contour>
		<contour>
			<point x="28" y="429" type="line"/>
			<point x="180" y="429" type="line"/>
			<point x="180" y="446" type="line"/>
			<point x="108" y="455" type="line"/>
			<point x="95" y="455" type="line"/>
			<point x="28" y="446" type="line"/>
		</contour>
	</outline>
</glyph>
<glyph name="w.sups" format="2">
	<unicode hex="02B7"/>
	<advance width="504"/>
	<outline>
		<contour>
			<point x="143" y="423" type="line"/>
			<point x="161" y="423" type="line"/>
			<point x="255" y="679" type="line"/>
			<point x="257" y="686" type="line"/>
			<point x="247" y="685" type="line"/>
			<point x="343" y="423" type="line"/>
			<point x="360" y="423" type="line"/>
			<point x="466" y="731" type="line"/>
			<point x="442" y="731" type="line"/>
			<point x="357" y="477" type="line"/>
			<point x="355" y="469" type="line"/>
			<point x="367" y="468" type="line"/>
			<point x="271" y="731" type="line"/>
			<point x="252" y="731" type="line"/>
			<point x="158" y="477" type="line"/>
			<point x="155" y="468" type="line"/>
			<point x="168" y="467" type="line"/>
			<point x="78" y="731" type="line"/>
			<point x="34" y="731" type="line"/>
		</contour>
		<contour>
			<point x="0" y="713" type="line"/>
			<point x="59" y="706" type="line"/>
			<point x="71" y="706" type="line"/>
			<point x="139" y="713" type="line"/>
			<point x="139" y="731" type="line"/>
			<point x="0" y="731" type="line"/>
		</contour>
		<contour>
			<point x="196" y="713" type="line"/>
			<point x="257" y="706" type="line"/>
			<point x="270" y="706" type="line"/>
			<point x="328" y="713" type="line"/>
			<point x="328" y="731" type="line"/>
			<point x="196" y="731" type="line"/>
		</contour>
		<contour>
			<point x="381" y="713" type="line"/>
			<point x="444" y="706" type="line"/>
			<point x="453" y="706" type="line"/>
			<point x="499" y="713" type="line"/>
			<point x="499" y="731" type="line"/>
			<point x="381" y="731" type="line"/>
		</contour>
	</outline>
</glyph>
<glyph name="y.sups" format="2">
	<unicode hex="02B8"/>
	<advance width="333"/>
	<outline>
		<contour>
			<point x="50" y="266" type="curve" smooth="yes"/>
			<point x="99" y="266"/>
			<point x="138" y="311"/>
			<point x="172" y="400" type="curve" smooth="yes"/>
			<point x="297" y="731" type="line"/>
			<point x="273" y="731" type="line"/>
			<point x="171" y="453" type="line"/>
			<point x="158" y="419" type="line" smooth="yes"/>
			<point x="126" y="332"/>
			<point x="101" y="298"/>
			<point x="54" y="284" type="curve"/>
			<point x="69" y="277" type="line"/>
			<point x="86" y="284" type="line"/>
			<point x="69" y="299" type="line" smooth="yes"/>
			<point x="53" y="312"/>
			<point x="40" y="317"/>
			<point x="27" y="317" type="curve" smooth="yes"/>
			<point x="12" y="317"/>
			<point x="-1" y="311"/>
			<point x="-4" y="296" type="curve"/>
			<point x="0" y="278"/>
			<point x="23" y="266"/>
		</contour>
		<contour>
			<point x="-1" y="713" type="line"/>
			<point x="60" y="705" type="line"/>
			<point x="73" y="705" type="line"/>
			<point x="145" y="713" type="line"/>
			<point x="145" y="731" type="line"/>
			<point x="-1" y="731" type="line"/>
		</contour>
		<contour>
			<point x="211" y="713" type="line"/>
			<point x="273" y="706" type="line"/>
			<point x="282" y="706" type="line"/>
			<point x="332" y="713" type="line"/>
			<point x="332" y="731" type="line"/>
			<point x="211" y="731" type="line"/>
		</contour>
		<contour>
			<point x="164" y="407" type="line"/>
			<point x="183" y="452" type="line"/>
			<point x="185" y="458" type="line"/>
			<point x="77" y="731" type="line"/>
			<point x="33" y="731" type="line"/>
		</contour>
	</outline>
</glyph>
<glyph name="ringhalfleftmod" format="2">
	<unicode hex="02BF"/>
	<advance width="155"/>
	<outline>
		<contour>
			<point x="28" y="654" type="curve" smooth="yes"/>
			<point x="28" y="597"/>
			<point x="69" y="563"/>
			<point x="127" y="562" type="curve"/>
			<point x="127" y="588" type="line"/>
			<point x="87" y="588"/>
			<point x="61" y="619"/>
			<point x="61" y="654" type="curve" smooth="yes"/>
			<point x="61" y="689"/>
			<point x="87" y="720"/>
			<point x="127" y="720" type="curve"/>
			<point x="127" y="746" type="line"/>
			<point x="69" y="745"/>
			<point x="28" y="710"/>
		</contour>
	</outline>
</glyph>
<glyph name="l.sups" format="2">
	<unicode hex="02E1"/>
	<advance width="193"/>
	<outline>
		<contour>
			<point x="22" y="429" type="line"/>
			<point x="174" y="429" type="line"/>
			<point x="174" y="446" type="line"/>
			<point x="104" y="455" type="line"/>
			<point x="92" y="455" type="line"/>
			<point x="22" y="446" type="line"/>
		</contour>
		<contour>
			<point x="79" y="429" type="line"/>
			<point x="118" y="429" type="line"/>
			<point x="118" y="900" type="line"/>
			<point x="110" y="905" type="line"/>
			<point x="23" y="887" type="line"/>
			<point x="23" y="870" type="line"/>
			<point x="79" y="866" type="line"/>
		</contour>
	</outline>
</glyph>
<glyph name="s.sups" format="2">
	<unicode hex="02E2"/>
	<advance width="282"/>
	<outline>
		<contour>
			<point x="133" y="420" type="curve" smooth="yes"/>
			<point x="212" y="420"/>
			<point x="251" y="460"/>
			<point x="251" y="509" type="curve" smooth="yes"/>
			<point x="251" y="551"/>
			<point x="225" y="577"/>
			<point x="167" y="598" type="curve" smooth="yes"/>
			<point x="141" y="607" type="line" smooth="yes"/>
			<point x="98" y="623"/>
			<point x="77" y="638"/>
			<point x="77" y="667" type="curve" smooth="yes"/>
			<point x="77" y="699"/>
			<point x="99" y="721"/>
			<point x="147" y="721" type="curve" smooth="yes"/>
			<point x="173" y="721"/>
			<point x="195" y="714"/>
			<point x="217" y="700" type="curve"/>
			<point x="217" y="721" type="line"/>
			<point x="202" y="721" type="line"/>
			<point x="215" y="651" type="line"/>
			<point x="235" y="651" type="line"/>
			<point x="237" y="717" type="line"/>
			<point x="208" y="733"/>
			<point x="183" y="742"/>
			<point x="148" y="742" type="curve" smooth="yes"/>
			<point x="80" y="742"/>
			<point x="41" y="705"/>
			<point x="41" y="656" type="curve" smooth="yes"/>
			<point x="41" y="612"/>
			<point x="74" y="588"/>
			<point x="120" y="571" type="curve" smooth="yes"/>
			<point x="148" y="561" type="line" smooth="yes"/>
			<point x="196" y="544"/>
			<point x="215" y="527"/>
			<point x="215" y="498" type="curve" smooth="yes"/>
			<point x="215" y="463"/>
			<point x="188" y="440"/>
			<point x="134" y="440" type="curve" smooth="yes"/>
			<point x="99" y="440"/>
			<point x="79" y="447"/>
			<point x="53" y="462" type="curve"/>
			<point x="53" y="446" type="line"/>
			<point x="72" y="439" type="line"/>
			<point x="57" y="515" type="line"/>
			<point x="36" y="515" type="line"/>
			<point x="36" y="443" type="line"/>
			<point x="68" y="428"/>
			<point x="95" y="420"/>
		</contour>
	</outline>
</glyph>
<glyph name="x.sups" format="2">
	<unicode hex="02E3"/>
	<advance width="330"/>
	<outline>
		<contour>
			<point x="7" y="429" type="line"/>
			<point x="122" y="429" type="line"/>
			<point x="122" y="446" type="line"/>
			<point x="68" y="453" type="line"/>
			<point x="59" y="453" type="line"/>
			<point x="7" y="446" type="line"/>
		</contour>
		<contour>
			<point x="10" y="713" type="line"/>
			<point x="70" y="706" type="line"/>
			<point x="81" y="706" type="line"/>
			<point x="141" y="713" type="line"/>
			<point x="141" y="731" type="line"/>
			<point x="10" y="731" type="line"/>
		</contour>
		<contour>
			<point x="250" y="429" type="line"/>
			<point x="296" y="429" type="line"/>
			<point x="178" y="595" type="line"/>
			<point x="81" y="731" type="line"/>
			<point x="37" y="731" type="line"/>
			<point x="150" y="571" type="line"/>
		</contour>
		<contour>
			<point x="187" y="429" type="line"/>
			<point x="323" y="429" type="line"/>
			<point x="323" y="446" type="line"/>
			<point x="263" y="455" type="line"/>
			<point x="252" y="455" type="line"/>
			<point x="187" y="446" type="line"/>
		</contour>
		<contour>
			<point x="203" y="713" type="line"/>
			<point x="258" y="706" type="line"/>
			<point x="267" y="706" type="line"/>
			<point x="315" y="713" type="line"/>
			<point x="315" y="731" type="line"/>
			<point x="203" y="731" type="line"/>
		</contour>
		<contour>
			<point x="34" y="429" type="line"/>
			<point x="60" y="429" type="line"/>
			<point x="163" y="570" type="line"/>
			<point x="170" y="570" type="line"/>
			<point x="157" y="592" type="line"/>
		</contour>
		<contour>
			<point x="170" y="570" type="line"/>
			<point x="292" y="731" type="line"/>
			<point x="266" y="731" type="line"/>
			<point x="165" y="593" type="line"/>
			<point x="158" y="593" type="line"/>
		</contour>
	</outline>
</glyph>
<glyph name="gravecmb" format="2">
	<unicode hex="0300"/>
	<outline>
		<contour>
			<point x="46" y="565" type="line"/>
			<point x="13" y="612"/>
			<point x="-22" y="662"/>
			<point x="-51" y="702" type="curve" smooth="yes"/>
			<point x="-69" y="727"/>
			<point x="-79" y="736"/>
			<point x="-91" y="736" type="curve" smooth="yes"/>
			<point x="-104" y="736"/>
			<point x="-115" y="728"/>
			<point x="-115" y="713" type="curve" smooth="yes"/>
			<point x="-115" y="701"/>
			<point x="-107" y="691"/>
			<point x="-84" y="668" type="curve" smooth="yes"/>
			<point x="-53" y="638"/>
			<point x="-16" y="601"/>
			<point x="31" y="553" type="curve"/>
		</contour>
	</outline>
	<anchor name="_aboveLC" x="0" y="486"/>
	<anchor name="aboveLC" x="0" y="736"/>
</glyph>
<glyph name="tildecmb" format="2">
	<unicode hex="0303"/>
	<outline>
		<contour>
			<point x="-150" y="589" type="curve"/>
			<point x="-133" y="583" type="line"/>
			<point x="-120" y="631"/>
			<point x="-101" y="658"/>
			<point x="-69" y="658" type="curve" smooth="yes"/>
			<point x="-43" y="658"/>
			<point x="-27" y="638"/>
			<point x="-6" y="616" type="curve" smooth="yes"/>
			<point x="13" y="595"/>
			<point x="33" y="578"/>
			<point x="66" y="578" type="curve" smooth="yes"/>
			<point x="113" y="578"/>
			<point x="141" y="621"/>
			<point x="150" y="681" type="curve"/>
			<point x="133" y="686" type="line"/>
			<point x="120" y="639"/>
			<point x="101" y="611"/>
			<point x="69" y="611" type="curve" smooth="yes"/>
			<point x="43" y="611"/>
			<point x="27" y="630"/>
			<point x="7" y="653" type="curve" smooth="yes"/>
			<point x="-12" y="674"/>
			<point x="-34" y="692"/>
			<point x="-66" y="692" type="curve" smooth="yes"/>
			<point x="-113" y="692"/>
			<point x="-141" y="650"/>
		</contour>
	</outline>
	<anchor name="_aboveLC" x="0" y="486"/>
	<anchor name="aboveLC" x="0" y="692"/>
</glyph>
<glyph name="horncmb" format="2">
	<unicode hex="031B"/>
	<outline>
		<contour>
			<point x="0" y="466" type="line"/>
			<point x="77" y="474"/>
			<point x="113" y="537"/>
			<point x="113" y="602" type="curve" smooth="yes"/>
			<point x="113" y="634"/>
			<point x="105" y="657"/>
			<point x="94" y="675" type="curve"/>
			<point x="87" y="681"/>
			<point x="81" y="682"/>
			<point x="74" y="682" type="curve" smooth="yes"/>
			<point x="59" y="682"/>
			<point x="49" y="671"/>
			<point x="49" y="658" type="curve" smooth="yes"/>
			<point x="49" y="634"/>
			<point x="73" y="617"/>
			<point x="73" y="571" type="curve" smooth="yes"/>
			<point x="73" y="528"/>
			<point x="52" y="493"/>
			<point x="0" y="485" type="curve"/>
		</contour>
	</outline>
	<anchor name="_hornLC" x="0" y="466"/>
</glyph>
<glyph name="Sigma" format="2">
	<unicode hex="03A3"/>
	<advance width="550"/>
	<outline>
		<contour>
			<point x="472" y="505" type="line"/>
			<point x="501" y="505" type="line"/>
			<point x="492" y="674" type="line"/>
			<point x="62" y="674" type="line"/>
			<point x="62" y="646" type="line"/>
			<point x="469" y="646" type="line"/>
			<point x="441" y="671" type="line"/>
		</contour>
		<contour>
			<point x="511" y="0" type="line"/>
			<point x="521" y="185" type="line"/>
			<point x="492" y="185" type="line"/>
			<point x="461" y="19" type="line"/>
			<point x="488" y="45" type="line"/>
			<point x="64" y="45" type="line"/>
			<point x="72" y="28" type="line"/>
			<point x="316" y="348" type="line"/>
			<point x="92" y="663" type="line"/>
			<point x="92" y="674" type="line"/>
			<point x="43" y="674" type="line"/>
			<point x="43" y="651" type="line"/>
			<point x="279" y="322" type="line"/>
			<point x="279" y="348" type="line"/>
			<point x="34" y="28" type="line"/>
			<point x="34" y="0" type="line"/>
		</contour>
	</outline>
</glyph>
<glyph name="alpha" format="2">
	<unicode hex="03B1"/>
	<advance width="543"/>
	<outline>
		<contour>
			<point x="236" y="-13" type="curve" smooth="yes"/>
			<point x="300" y="-13"/>
			<point x="370" y="26"/>
			<point x="397" y="123" type="curve"/>
			<point x="388" y="122" type="line"/>
			<point x="388" y="23"/>
			<point x="410" y="-13"/>
			<point x="458" y="-13" type="curve" smooth="yes"/>
			<point x="488" y="-13"/>
			<point x="512" y="5"/>
			<point x="525" y="28" type="curve"/>
			<point x="516" y="43" type="line"/>
			<point x="502" y="33"/>
			<point x="489" y="28"/>
			<point x="472" y="28" type="curve" smooth="yes"/>
			<point x="442" y="28"/>
			<point x="425" y="46"/>
			<point x="425" y="109" type="curve" smooth="yes"/>
			<point x="425" y="176"/>
			<point x="441" y="331"/>
			<point x="460" y="468" type="curve"/>
			<point x="451" y="474" type="line"/>
			<point x="411" y="462" type="line"/>
			<point x="402" y="361" type="line"/>
			<point x="390" y="190" type="line"/>
			<point x="382" y="69"/>
			<point x="306" y="18"/>
			<point x="243" y="18" type="curve" smooth="yes"/>
			<point x="149" y="18"/>
			<point x="97" y="99"/>
			<point x="97" y="230" type="curve" smooth="yes"/>
			<point x="97" y="379"/>
			<point x="166" y="448"/>
			<point x="252" y="448" type="curve" smooth="yes"/>
			<point x="322" y="448"/>
			<point x="384" y="400"/>
			<point x="408" y="282" type="curve"/>
			<point x="425" y="325" type="line"/>
			<point x="418" y="325" type="line"/>
			<point x="390" y="429"/>
			<point x="330" y="478"/>
			<point x="249" y="478" type="curve" smooth="yes"/>
			<point x="145" y="478"/>
			<point x="47" y="394"/>
			<point x="47" y="223" type="curve" smooth="yes"/>
			<point x="47" y="73"/>
			<point x="126" y="-13"/>
		</contour>
	</outline>
	<anchor name="aboveLC" x="262" y="486"/>
	<anchor name="belowLC" x="256" y="-20"/>
</glyph>
<glyph name="zeta" format="2">
	<unicode hex="03B6"/>
	<advance width="408"/>
	<outline>
		<contour>
			<point x="311" y="-205" type="curve"/>
			<point x="338" y="-205" type="line"/>
			<point x="367" y="-157"/>
			<point x="384" y="-118"/>
			<point x="384" y="-77" type="curve" smooth="yes"/>
			<point x="384" y="-18"/>
			<point x="358" y="20"/>
			<point x="250" y="47" type="curve" smooth="yes"/>
			<point x="135" y="77"/>
			<point x="95" y="116"/>
			<point x="95" y="191" type="curve" smooth="yes"/>
			<point x="95" y="313"/>
			<point x="185" y="451"/>
			<point x="400" y="711" type="curve"/>
			<point x="399" y="736" type="line"/>
			<point x="82" y="748" type="line"/>
			<point x="82" y="705" type="line"/>
			<point x="367" y="706" type="line"/>
			<point x="367" y="697" type="line"/>
			<point x="376" y="722" type="line"/>
			<point x="144" y="455"/>
			<point x="48" y="300"/>
			<point x="48" y="182" type="curve" smooth="yes"/>
			<point x="48" y="95"/>
			<point x="93" y="39"/>
			<point x="233" y="4" type="curve" smooth="yes"/>
			<point x="328" y="-20"/>
			<point x="344" y="-50"/>
			<point x="344" y="-91" type="curve" smooth="yes"/>
			<point x="344" y="-124"/>
			<point x="330" y="-161"/>
		</contour>
	</outline>
</glyph>
<glyph name="eta" format="2">
	<unicode hex="03B7"/>
	<advance width="528"/>
	<outline>
		<contour>
			<point x="102" y="-2" type="line"/>
			<point x="111" y="-9" type="line"/>
			<point x="154" y="0" type="line"/>
			<point x="150" y="347" type="line"/>
			<point x="150" y="353" type="line" smooth="yes"/>
			<point x="150" y="449"/>
			<point x="127" y="475"/>
			<point x="84" y="475" type="curve" smooth="yes"/>
			<point x="56" y="475"/>
			<point x="36" y="461"/>
			<point x="25" y="446" type="curve"/>
			<point x="32" y="430" type="line"/>
			<point x="42" y="434"/>
			<point x="54" y="437"/>
			<point x="66" y="437" type="curve" smooth="yes"/>
			<point x="99" y="437"/>
			<point x="112" y="419"/>
			<point x="112" y="368" type="curve" smooth="yes"/>
			<point x="109" y="148" type="line"/>
		</contour>
		<contour>
			<point x="401" y="-189" type="line"/>
			<point x="410" y="-195" type="line"/>
			<point x="453" y="-184" type="line"/>
			<point x="448" y="312" type="line" smooth="yes"/>
			<point x="447" y="435"/>
			<point x="392" y="478"/>
			<point x="322" y="478" type="curve" smooth="yes"/>
			<point x="261" y="478"/>
			<point x="171" y="430"/>
			<point x="138" y="328" type="curve"/>
			<point x="136" y="327" type="line"/>
			<point x="145" y="317" type="line"/>
			<point x="184" y="399"/>
			<point x="251" y="436"/>
			<point x="307" y="436" type="curve" smooth="yes"/>
			<point x="372" y="436"/>
			<point x="415" y="398"/>
			<point x="413" y="303" type="curve" smooth="yes"/>
			<point x="408" y="-22" type="line"/>
		</contour>
	</outline>
	<anchor name="aboveLC" x="280" y="486"/>
	<anchor name="belowLC" x="125" y="-20"/>
</glyph>
<glyph name="iota" format="2">
	<unicode hex="03B9"/>
	<advance width="258"/>
	<outline>
		<contour>
			<point x="173" y="-13" type="curve" smooth="yes"/>
			<point x="204" y="-13"/>
			<point x="227" y="8"/>
			<point x="239" y="29" type="curve"/>
			<point x="232" y="43" type="line"/>
			<point x="218" y="34"/>
			<point x="205" y="27"/>
			<point x="186" y="27" type="curve" smooth="yes"/>
			<point x="156" y="27"/>
			<point x="139" y="43"/>
			<point x="139" y="101" type="curve" smooth="yes"/>
			<point x="139" y="175"/>
			<point x="144" y="260"/>
			<point x="154" y="467" type="curve"/>
			<point x="145" y="474" type="line"/>
			<point x="101" y="461" type="line"/>
			<point x="102" y="98" type="line" smooth="yes"/>
			<point x="102" y="16"/>
			<point x="128" y="-13"/>
		</contour>
	</outline>
	<anchor name="aboveLC" x="131" y="486"/>
</glyph>
<glyph name="kappa" format="2">
	<unicode hex="03BA"/>
	<advance width="507"/>
	<outline>
		<contour>
			<point x="109" y="-9" type="line"/>
			<point x="145" y="0" type="line"/>
			<point x="146" y="46"/>
			<point x="147" y="94"/>
			<point x="148" y="142" type="curve"/>
			<point x="146" y="144" type="line"/>
			<point x="149" y="217"/>
			<point x="151" y="293"/>
			<point x="151" y="364" type="curve" smooth="yes"/>
			<point x="152" y="446"/>
			<point x="132" y="475"/>
			<point x="82" y="475" type="curve" smooth="yes"/>
			<point x="57" y="475"/>
			<point x="36" y="461"/>
			<point x="25" y="446" type="curve"/>
			<point x="32" y="430" type="line"/>
			<point x="42" y="434"/>
			<point x="54" y="437"/>
			<point x="66" y="437" type="curve" smooth="yes"/>
			<point x="99" y="437"/>
			<point x="112" y="419"/>
			<point x="112" y="368" type="curve" smooth="yes"/>
			<point x="109" y="165" type="line"/>
			<point x="100" y="-2" type="line"/>
		</contour>
		<contour>
			<point x="136" y="101" type="line"/>
			<point x="176" y="177"/>
			<point x="199" y="214"/>
			<point x="238" y="271" type="curve"/>
			<point x="292" y="343"/>
			<point x="346" y="396"/>
			<point x="407" y="441" type="curve"/>
			<point x="347" y="411" type="line"/>
			<point x="423" y="414" type="line" smooth="yes"/>
			<point x="461" y="416"/>
			<point x="479" y="427"/>
			<point x="479" y="450" type="curve" smooth="yes"/>
			<point x="479" y="468"/>
			<point x="467" y="475"/>
			<point x="454" y="479" type="curve"/>
			<point x="428" y="477"/>
			<point x="395" y="468"/>
			<point x="354" y="433" type="curve" smooth="yes"/>
			<point x="270" y="361"/>
			<point x="185" y="251"/>
			<point x="131" y="128" type="curve"/>
			<point x="130" y="126" type="line"/>
		</contour>
		<contour>
			<point x="424" y="-13" type="curve" smooth="yes"/>
			<point x="451" y="-13"/>
			<point x="475" y="6"/>
			<point x="490" y="31" type="curve"/>
			<point x="484" y="46" type="line"/>
			<point x="473" y="40"/>
			<point x="455" y="35"/>
			<point x="437" y="35" type="curve" smooth="yes"/>
			<point x="396" y="35"/>
			<point x="369" y="75"/>
			<point x="244" y="287" type="curve"/>
			<point x="224" y="267" type="line"/>
			<point x="347" y="30"/>
			<point x="379" y="-13"/>
		</contour>
	</outline>
</glyph>
<glyph name="nu" format="2">
	<unicode hex="03BD"/>
	<advance width="469"/>
	<outline>
		<contour>
			<point x="215" y="-6" type="curve"/>
			<point x="243" y="-6" type="line"/>
			<point x="336" y="151"/>
			<point x="423" y="335"/>
			<point x="423" y="433" type="curve" smooth="yes"/>
			<point x="423" y="447"/>
			<point x="421" y="459"/>
			<point x="419" y="470" type="curve"/>
			<point x="414" y="475"/>
			<point x="408" y="478"/>
			<point x="397" y="478" type="curve" smooth="yes"/>
			<point x="377" y="478"/>
			<point x="364" y="464"/>
			<point x="364" y="429" type="curve" smooth="yes"/>
			<point x="364" y="402"/>
			<point x="369" y="364"/>
			<point x="378" y="299" type="curve"/>
			<point x="390" y="395" type="line"/>
			<point x="351" y="243"/>
			<point x="307" y="163"/>
			<point x="238" y="30" type="curve"/>
			<point x="234" y="22" type="line"/>
			<point x="245" y="22" type="line"/>
			<point x="223" y="142"/>
			<point x="186" y="262"/>
			<point x="149" y="371" type="curve" smooth="yes"/>
			<point x="123" y="446"/>
			<point x="103" y="475"/>
			<point x="63" y="475" type="curve" smooth="yes"/>
			<point x="39" y="475"/>
			<point x="13" y="461"/>
			<point x="-2" y="444" type="curve"/>
			<point x="5" y="428" type="line"/>
			<point x="15" y="432"/>
			<point x="28" y="436"/>
			<point x="43" y="436" type="curve" smooth="yes"/>
			<point x="68" y="436"/>
			<point x="83" y="421"/>
			<point x="105" y="362" type="curve" smooth="yes"/>
			<point x="146" y="252"/>
			<point x="186" y="131"/>
		</contour>
	</outline>
</glyph>
<glyph name="omicron" format="2">
	<unicode hex="03BF"/>
	<advance width="508"/>
	<outline>
		<contour>
			<point x="251" y="-13" type="curve" smooth="yes"/>
			<point x="352" y="-13"/>
			<point x="461" y="70"/>
			<point x="461" y="238" type="curve" smooth="yes"/>
			<point x="461" y="393"/>
			<point x="373" y="478"/>
			<point x="259" y="478" type="curve" smooth="yes"/>
			<point x="158" y="478"/>
			<point x="47" y="393"/>
			<point x="47" y="231" type="curve" smooth="yes"/>
			<point x="47" y="63"/>
			<point x="144" y="-13"/>
		</contour>
		<contour>
			<point x="256" y="14" type="curve" smooth="yes"/>
			<point x="171" y="14"/>
			<point x="96" y="88"/>
			<point x="96" y="246" type="curve" smooth="yes"/>
			<point x="96" y="364"/>
			<point x="158" y="452"/>
			<point x="253" y="452" type="curve" smooth="yes"/>
			<point x="351" y="452"/>
			<point x="412" y="363"/>
			<point x="412" y="219" type="curve" smooth="yes"/>
			<point x="412" y="105"/>
			<point x="357" y="14"/>
		</contour>
	</outline>
	<anchor name="aboveLC" x="261" y="486"/>
</glyph>
<glyph name="pi" format="2">
	<unicode hex="03C0"/>
	<advance width="576"/>
	<outline>
		<contour>
			<point x="91" y="-11" type="curve" smooth="yes"/>
			<point x="136" y="-11"/>
			<point x="170" y="15"/>
			<point x="176" y="69" type="curve" smooth="yes"/>
			<point x="190" y="191"/>
			<point x="193" y="317"/>
			<point x="194" y="444" type="curve"/>
			<point x="167" y="444" type="line"/>
			<point x="166" y="311"/>
			<point x="162" y="179"/>
			<point x="139" y="32" type="curve"/>
			<point x="157" y="56" type="line"/>
			<point x="123" y="56"/>
			<point x="94" y="54"/>
			<point x="70" y="51" type="curve"/>
			<point x="59" y="44"/>
			<point x="53" y="36"/>
			<point x="53" y="21" type="curve" smooth="yes"/>
			<point x="53" y="4"/>
			<point x="66" y="-11"/>
		</contour>
		<contour>
			<point x="20" y="413" type="line"/>
			<point x="181" y="428" type="line"/>
			<point x="393" y="428" type="line"/>
			<point x="554" y="423" type="line"/>
			<point x="552" y="466" type="line"/>
			<point x="205" y="466" type="line" smooth="yes"/>
			<point x="125" y="466"/>
			<point x="70" y="455"/>
			<point x="17" y="434" type="curve"/>
		</contour>
		<contour>
			<point x="456" y="-13" type="curve" smooth="yes"/>
			<point x="490" y="-13"/>
			<point x="515" y="5"/>
			<point x="530" y="29" type="curve"/>
			<point x="523" y="43" type="line"/>
			<point x="508" y="33"/>
			<point x="493" y="27"/>
			<point x="471" y="27" type="curve" smooth="yes"/>
			<point x="436" y="27"/>
			<point x="417" y="43"/>
			<point x="416" y="104" type="curve" smooth="yes"/>
			<point x="411" y="445" type="line"/>
			<point x="379" y="445" type="line"/>
			<point x="375" y="318"/>
			<point x="371" y="197"/>
			<point x="371" y="102" type="curve" smooth="yes"/>
			<point x="371" y="20"/>
			<point x="399" y="-13"/>
		</contour>
	</outline>
</glyph>
<glyph name="sigma" format="2">
	<unicode hex="03C3"/>
	<advance width="559"/>
	<outline>
		<contour>
			<point x="252" y="-13" type="curve" smooth="yes"/>
			<point x="360" y="-13"/>
			<point x="462" y="73"/>
			<point x="462" y="227" type="curve" smooth="yes"/>
			<point x="462" y="342"/>
			<point x="390" y="440"/>
			<point x="274" y="449" type="curve"/>
			<point x="262" y="441" type="line"/>
			<point x="361" y="425"/>
			<point x="415" y="339"/>
			<point x="415" y="222" type="curve" smooth="yes"/>
			<point x="415" y="93"/>
			<point x="350" y="14"/>
			<point x="259" y="14" type="curve" smooth="yes"/>
			<point x="166" y="14"/>
			<point x="96" y="92"/>
			<point x="96" y="227" type="curve" smooth="yes"/>
			<point x="96" y="353"/>
			<point x="160" y="437"/>
			<point x="292" y="438" type="curve"/>
			<point x="312" y="436" type="line"/>
			<point x="541" y="424" type="line"/>
			<point x="538" y="469" type="line"/>
			<point x="298" y="467" type="line" smooth="yes"/>
			<point x="137" y="466"/>
			<point x="47" y="371"/>
			<point x="47" y="220" type="curve" smooth="yes"/>
			<point x="47" y="74"/>
			<point x="135" y="-13"/>
		</contour>
	</outline>
</glyph>
<glyph name="upsilon" format="2">
	<unicode hex="03C5"/>
	<advance width="514"/>
	<outline>
		<contour>
			<point x="272" y="-13" type="curve" smooth="yes"/>
			<point x="382" y="-13"/>
			<point x="457" y="63"/>
			<point x="457" y="247" type="curve" smooth="yes"/>
			<point x="457" y="331"/>
			<point x="444" y="410"/>
			<point x="427" y="469" type="curve"/>
			<point x="421" y="475"/>
			<point x="412" y="478"/>
			<point x="402" y="478" type="curve" smooth="yes"/>
			<point x="385" y="478"/>
			<point x="373" y="465"/>
			<point x="373" y="446" type="curve" smooth="yes"/>
			<point x="373" y="419"/>
			<point x="389" y="390"/>
			<point x="436" y="293" type="curve"/>
			<point x="433" y="344" type="line"/>
			<point x="420" y="347" type="line"/>
			<point x="426" y="303"/>
			<point x="428" y="273"/>
			<point x="428" y="238" type="curve" smooth="yes"/>
			<point x="428" y="87"/>
			<point x="369" y="19"/>
			<point x="277" y="19" type="curve" smooth="yes"/>
			<point x="185" y="19"/>
			<point x="142" y="68"/>
			<point x="142" y="176" type="curve" smooth="yes"/>
			<point x="142" y="254"/>
			<point x="153" y="315"/>
			<point x="153" y="386" type="curve" smooth="yes"/>
			<point x="153" y="442"/>
			<point x="136" y="476"/>
			<point x="86" y="476" type="curve" smooth="yes"/>
			<point x="57" y="476"/>
			<point x="35" y="462"/>
			<point x="25" y="449" type="curve"/>
			<point x="32" y="433" type="line"/>
			<point x="40" y="435"/>
			<point x="51" y="438"/>
			<point x="62" y="438" type="curve" smooth="yes"/>
			<point x="97" y="438"/>
			<point x="109" y="420"/>
			<point x="109" y="370" type="curve" smooth="yes"/>
			<point x="109" y="320"/>
			<point x="98" y="245"/>
			<point x="98" y="168" type="curve" smooth="yes"/>
			<point x="98" y="39"/>
			<point x="169" y="-13"/>
		</contour>
	</outline>
	<anchor name="aboveLC" x="265" y="486"/>
</glyph>
<glyph name="psi" format="2">
	<unicode hex="03C8"/>
	<advance width="682"/>
	<outline>
		<contour>
			<point x="346" y="-200" type="line"/>
			<point x="388" y="-189" type="line"/>
			<point x="383" y="1" type="line"/>
			<point x="379" y="623" type="line"/>
			<point x="351" y="623" type="line"/>
			<point x="343" y="-2" type="line"/>
			<point x="335" y="-193" type="line"/>
		</contour>
		<contour>
			<point x="351" y="-13" type="curve"/>
			<point x="355" y="18" type="line"/>
			<point x="212" y="18"/>
			<point x="145" y="70"/>
			<point x="145" y="185" type="curve" smooth="yes"/>
			<point x="145" y="257"/>
			<point x="153" y="320"/>
			<point x="153" y="385" type="curve" smooth="yes"/>
			<point x="153" y="441"/>
			<point x="136" y="476"/>
			<point x="86" y="476" type="curve" smooth="yes"/>
			<point x="57" y="476"/>
			<point x="35" y="462"/>
			<point x="25" y="448" type="curve"/>
			<point x="32" y="432" type="line"/>
			<point x="41" y="435"/>
			<point x="52" y="437"/>
			<point x="63" y="437" type="curve" smooth="yes"/>
			<point x="98" y="437"/>
			<point x="109" y="420"/>
			<point x="109" y="369" type="curve" smooth="yes"/>
			<point x="109" y="317"/>
			<point x="101" y="248"/>
			<point x="101" y="181" type="curve" smooth="yes"/>
			<point x="101" y="42"/>
			<point x="200" y="-13"/>
		</contour>
		<contour>
			<point x="364" y="-13" type="line"/>
			<point x="534" y="-13"/>
			<point x="624" y="80"/>
			<point x="624" y="266" type="curve" smooth="yes"/>
			<point x="624" y="339"/>
			<point x="617" y="411"/>
			<point x="604" y="468" type="curve"/>
			<point x="599" y="475"/>
			<point x="590" y="478"/>
			<point x="580" y="478" type="curve" smooth="yes"/>
			<point x="563" y="478"/>
			<point x="549" y="466"/>
			<point x="549" y="444" type="curve" smooth="yes"/>
			<point x="549" y="420"/>
			<point x="561" y="392"/>
			<point x="604" y="292" type="curve"/>
			<point x="598" y="362" type="line"/>
			<point x="589" y="363" type="line"/>
			<point x="593" y="326"/>
			<point x="595" y="296"/>
			<point x="595" y="267" type="curve" smooth="yes"/>
			<point x="595" y="92"/>
			<point x="517" y="18"/>
			<point x="368" y="18" type="curve"/>
		</contour>
	</outline>
</glyph>
<glyph name="omega" format="2">
	<unicode hex="03C9"/>
	<advance width="717"/>
	<outline>
		<contour>
			<point x="221" y="-13" type="curve" smooth="yes"/>
			<point x="298" y="-13"/>
			<point x="355" y="40"/>
			<point x="363" y="126" type="curve"/>
			<point x="352" y="126" type="line"/>
			<point x="365" y="33"/>
			<point x="415" y="-13"/>
			<point x="492" y="-13" type="curve" smooth="yes"/>
			<point x="581" y="-13"/>
			<point x="663" y="50"/>
			<point x="663" y="202" type="curve" smooth="yes"/>
			<point x="663" y="334"/>
			<point x="600" y="423"/>
			<point x="505" y="473" type="curve"/>
			<point x="493" y="454" type="line"/>
			<point x="575" y="401"/>
			<point x="614" y="326"/>
			<point x="614" y="200" type="curve" smooth="yes"/>
			<point x="614" y="74"/>
			<point x="558" y="18"/>
			<point x="493" y="18" type="curve" smooth="yes"/>
			<point x="419" y="18"/>
			<point x="378" y="65"/>
			<point x="378" y="154" type="curve" smooth="yes"/>
			<point x="378" y="195"/>
			<point x="382" y="241"/>
			<point x="386" y="314" type="curve"/>
			<point x="379" y="319" type="line"/>
			<point x="333" y="311" type="line"/>
			<point x="335" y="236"/>
			<point x="338" y="195"/>
			<point x="338" y="151" type="curve" smooth="yes"/>
			<point x="338" y="64"/>
			<point x="288" y="18"/>
			<point x="223" y="18" type="curve" smooth="yes"/>
			<point x="153" y="18"/>
			<point x="103" y="75"/>
			<point x="103" y="200" type="curve" smooth="yes"/>
			<point x="103" y="325"/>
			<point x="145" y="401"/>
			<point x="229" y="454" type="curve"/>
			<point x="217" y="473" type="line"/>
			<point x="121" y="423"/>
			<point x="54" y="331"/>
			<point x="54" y="200" type="curve" smooth="yes"/>
			<point x="54" y="54"/>
			<point x="132" y="-13"/>
		</contour>
	</outline>
	<anchor name="aboveLC" x="362" y="486"/>
	<anchor name="belowLC" x="356" y="-20"/>
</glyph>
<glyph name="koppa" format="2">
	<unicode hex="03D9"/>
	<advance width="508"/>
	<outline>
		<contour>
			<point x="241" y="-199" type="line"/>
			<point x="284" y="-188" type="line"/>
			<point x="276" y="7" type="line"/>
			<point x="242" y="7" type="line"/>
			<point x="231" y="-192" type="line"/>
		</contour>
		<component base="omicron"/>
	</outline>
	<anchor name="aboveLC" x="257" y="486"/>
</glyph>
<glyph name="stigma" format="2">
	<unicode hex="03DB"/>
	<advance width="434"/>
	<outline>
		<contour>
			<point x="311" y="-205" type="curve"/>
			<point x="335" y="-205" type="line"/>
			<point x="364" y="-156"/>
			<point x="382" y="-119"/>
			<point x="382" y="-78" type="curve" smooth="yes"/>
			<point x="382" y="-18"/>
			<point x="357" y="20"/>
			<point x="247" y="48" type="curve" smooth="yes"/>
			<point x="127" y="78"/>
			<point x="83" y="127"/>
			<point x="83" y="232" type="curve" smooth="yes"/>
			<point x="83" y="338"/>
			<point x="137" y="398"/>
			<point x="227" y="412" type="curve" smooth="yes"/>
			<point x="291" y="422" type="line" smooth="yes"/>
			<point x="364" y="434"/>
			<point x="397" y="449"/>
			<point x="411" y="511" type="curve" smooth="yes"/>
			<point x="425" y="568" type="line"/>
			<point x="403" y="572" type="line"/>
			<point x="386" y="525" type="line" smooth="yes"/>
			<point x="374" y="491"/>
			<point x="355" y="479"/>
			<point x="294" y="468" type="curve" smooth="yes"/>
			<point x="233" y="458" type="line" smooth="yes"/>
			<point x="129" y="442"/>
			<point x="49" y="367"/>
			<point x="49" y="224" type="curve" smooth="yes"/>
			<point x="49" y="106"/>
			<point x="92" y="39"/>
			<point x="231" y="4" type="curve" smooth="yes"/>
			<point x="327" y="-20"/>
			<point x="342" y="-50"/>
			<point x="342" y="-91" type="curve" smooth="yes"/>
			<point x="342" y="-124"/>
			<point x="331" y="-161"/>
		</contour>
	</outline>
</glyph>
<glyph name="digamma" format="2">
	<unicode hex="03DD"/>
	<advance width="408"/>
	<outline>
		<contour>
			<point x="95" y="-192" type="line"/>
			<point x="105" y="-199" type="line"/>
			<point x="149" y="-188" type="line"/>
			<point x="140" y="90" type="line"/>
			<point x="140" y="190"/>
			<point x="144" y="286"/>
			<point x="149" y="453" type="curve"/>
			<point x="126" y="436" type="line"/>
			<point x="394" y="430" type="line"/>
			<point x="394" y="471" type="line"/>
			<point x="97" y="462" type="line"/>
			<point x="108" y="89" type="line"/>
		</contour>
		<contour>
			<point x="124" y="162" type="line"/>
			<point x="375" y="153" type="line"/>
			<point x="375" y="194" type="line"/>
			<point x="124" y="189" type="line"/>
		</contour>
	</outline>
	<anchor name="aboveLC" x="250" y="486"/>
</glyph>
<glyph name="sampi" format="2">
	<unicode hex="03E1"/>
	<advance width="531"/>
	<outline>
		<contour>
			<point x="111" y="102" type="line"/>
			<point x="441" y="239" type="line"/>
			<point x="434" y="262" type="line"/>
			<point x="95" y="145" type="line"/>
		</contour>
		<contour>
			<point x="357" y="-160" type="curve"/>
			<point x="377" y="-169" type="line"/>
			<point x="436" y="-69"/>
			<point x="465" y="66"/>
			<point x="465" y="181" type="curve" smooth="yes"/>
			<point x="465" y="459"/>
			<point x="304" y="711"/>
			<point x="43" y="732" type="curve"/>
			<point x="39" y="712" type="line"/>
			<point x="269" y="670"/>
			<point x="422" y="446"/>
			<point x="422" y="159" type="curve" smooth="yes"/>
			<point x="422" y="51"/>
			<point x="401" y="-65"/>
		</contour>
		<contour>
			<point x="44" y="320" type="line"/>
			<point x="383" y="451" type="line"/>
			<point x="375" y="473" type="line"/>
			<point x="32" y="364" type="line"/>
		</contour>
	</outline>
</glyph>
<glyph name="Ieukran" format="2">
	<unicode hex="0404"/>
	<advance width="613"/>
	<outline>
		<contour>
			<point x="364" y="-14" type="curve" smooth="yes"/>
			<point x="433" y="-14"/>
			<point x="492" y="-1"/>
			<point x="556" y="36" type="curve"/>
			<point x="561" y="181" type="line"/>
			<point x="530" y="181" type="line"/>
			<point x="505" y="35" type="line"/>
			<point x="537" y="41" type="line"/>
			<point x="537" y="67" type="line"/>
			<point x="483" y="28"/>
			<point x="425" y="14"/>
			<point x="364" y="14" type="curve" smooth="yes"/>
			<point x="206" y="14"/>
			<point x="110" y="127"/>
			<point x="110" y="337" type="curve" smooth="yes"/>
			<point x="110" y="546"/>
			<point x="204" y="660"/>
			<point x="368" y="660" type="curve" smooth="yes"/>
			<point x="432" y="660"/>
			<point x="475" y="645"/>
			<point x="530" y="606" type="curve"/>
			<point x="530" y="634" type="line"/>
			<point x="497" y="643" type="line"/>
			<point x="521" y="493" type="line"/>
			<point x="552" y="493" type="line"/>
			<point x="547" y="638" type="line"/>
			<point x="487" y="674"/>
			<point x="430" y="687"/>
			<point x="363" y="687" type="curve" smooth="yes"/>
			<point x="175" y="687"/>
			<point x="57" y="544"/>
			<point x="57" y="337" type="curve" smooth="yes"/>
			<point x="57" y="131"/>
			<point x="171" y="-14"/>
		</contour>
		<contour>
			<point x="91" y="328" type="line"/>
			<point x="386" y="328" type="line"/>
			<point x="386" y="356" type="line"/>
			<point x="91" y="356" type="line"/>
		</contour>
		<contour>
			<point x="383" y="231" type="line"/>
			<point x="407" y="231" type="line"/>
			<point x="407" y="453" type="line"/>
			<point x="383" y="453" type="line"/>
			<point x="370" y="352" type="line"/>
			<point x="370" y="334" type="line"/>
		</contour>
	</outline>
	<anchor name="aboveUC" x="349" y="694"/>
</glyph>
<glyph name="Tshe" format="2">
	<unicode hex="040B"/>
	<advance width="736"/>
	<outline>
		<contour>
			<point x="22" y="503" type="line"/>
			<point x="51" y="503" type="line"/>
			<point x="79" y="671" type="line"/>
			<point x="54" y="646" type="line"/>
			<point x="525" y="646" type="line"/>
			<point x="501" y="671" type="line"/>
			<point x="529" y="503" type="line"/>
			<point x="558" y="503" type="line"/>
			<point x="548" y="674" type="line"/>
			<point x="31" y="674" type="line"/>
		</contour>
		<contour>
			<point x="247" y="0" type="curve"/>
			<point x="302" y="0" type="line"/>
			<point x="300" y="98"/>
			<point x="300" y="208"/>
			<point x="300" y="313" type="curve" smooth="yes"/>
			<point x="300" y="361" type="line" smooth="yes"/>
			<point x="300" y="467"/>
			<point x="300" y="577"/>
			<point x="302" y="674" type="curve"/>
			<point x="247" y="674" type="line"/>
			<point x="249" y="577"/>
			<point x="249" y="467"/>
			<point x="249" y="363" type="curve" smooth="yes"/>
			<point x="249" y="313" type="line" smooth="yes"/>
			<point x="249" y="208"/>
			<point x="249" y="97"/>
		</contour>
		<contour>
			<point x="575" y="0" type="curve"/>
			<point x="626" y="0" type="line"/>
			<point x="626" y="203" type="line" smooth="yes"/>
			<point x="626" y="345"/>
			<point x="555" y="381"/>
			<point x="434" y="381" type="curve" smooth="yes"/>
			<point x="371" y="381"/>
			<point x="322" y="375"/>
			<point x="273" y="365" type="curve"/>
			<point x="273" y="341" type="line"/>
			<point x="322" y="350"/>
			<point x="366" y="353"/>
			<point x="417" y="353" type="curve" smooth="yes"/>
			<point x="534" y="353"/>
			<point x="577" y="317"/>
			<point x="577" y="197" type="curve" smooth="yes"/>
			<point x="577" y="135"/>
			<point x="577" y="70"/>
		</contour>
		<contour>
			<point x="141" y="0" type="line"/>
			<point x="402" y="0" type="line"/>
			<point x="402" y="23" type="line"/>
			<point x="282" y="33" type="line"/>
			<point x="266" y="33" type="line"/>
			<point x="141" y="23" type="line"/>
		</contour>
		<contour>
			<point x="489" y="0" type="line"/>
			<point x="705" y="0" type="line"/>
			<point x="705" y="23" type="line"/>
			<point x="613" y="33" type="line"/>
			<point x="591" y="33" type="line"/>
			<point x="489" y="23" type="line"/>
		</contour>
	</outline>
</glyph>
<glyph name="Dzhe" format="2">
	<unicode hex="040F"/>
	<advance width="751"/>
	<outline>
		<contour>
			<point x="148" y="0" type="curve"/>
			<point x="204" y="0" type="line"/>
			<point x="201" y="97"/>
			<point x="201" y="208"/>
			<point x="201" y="313" type="curve" smooth="yes"/>
			<point x="201" y="363" type="line" smooth="yes"/>
			<point x="201" y="467"/>
			<point x="201" y="577"/>
			<point x="204" y="674" type="curve"/>
			<point x="148" y="674" type="line"/>
			<point x="150" y="577"/>
			<point x="150" y="467"/>
			<point x="150" y="363" type="curve" smooth="yes"/>
			<point x="150" y="313" type="line" smooth="yes"/>
			<point x="150" y="208"/>
			<point x="150" y="98"/>
		</contour>
		<contour>
			<point x="549" y="0" type="curve"/>
			<point x="604" y="0" type="line"/>
			<point x="602" y="97"/>
			<point x="602" y="208"/>
			<point x="602" y="313" type="curve" smooth="yes"/>
			<point x="602" y="363" type="line" smooth="yes"/>
			<point x="602" y="467"/>
			<point x="602" y="577"/>
			<point x="604" y="674" type="curve"/>
			<point x="549" y="674" type="line"/>
			<point x="551" y="577"/>
			<point x="551" y="467"/>
			<point x="551" y="363" type="curve" smooth="yes"/>
			<point x="551" y="313" type="line" smooth="yes"/>
			<point x="551" y="208"/>
			<point x="551" y="98"/>
		</contour>
		<contour>
			<point x="51" y="650" type="line"/>
			<point x="167" y="641" type="line"/>
			<point x="184" y="641" type="line"/>
			<point x="301" y="650" type="line"/>
			<point x="301" y="674" type="line"/>
			<point x="51" y="674" type="line"/>
		</contour>
		<contour>
			<point x="451" y="650" type="line"/>
			<point x="568" y="641" type="line"/>
			<point x="586" y="641" type="line"/>
			<point x="702" y="650" type="line"/>
			<point x="702" y="674" type="line"/>
			<point x="451" y="674" type="line"/>
		</contour>
		<contour>
			<point x="51" y="0" type="line"/>
			<point x="178" y="0" type="line"/>
			<point x="178" y="33" type="line"/>
			<point x="167" y="33" type="line"/>
			<point x="51" y="23" type="line"/>
		</contour>
		<contour>
			<point x="702" y="0" type="line"/>
			<point x="702" y="23" type="line"/>
			<point x="585" y="33" type="line"/>
			<point x="574" y="33" type="line"/>
			<point x="573" y="0" type="line"/>
		</contour>
		<contour>
			<point x="351" y="13" type="line"/>
			<point x="361" y="-197" type="line"/>
			<point x="391" y="-197" type="line"/>
			<point x="400" y="13" type="line"/>
		</contour>
		<contour>
			<point x="577" y="0" type="line"/>
			<point x="577" y="28" type="line"/>
			<point x="175" y="28" type="line"/>
			<point x="175" y="0" type="line"/>
		</contour>
	</outline>
</glyph>
<glyph name="Be" format="2">
	<unicode hex="0411"/>
	<advance width="584"/>
	<outline>
		<contour>
			<point x="51" y="0" type="line"/>
			<point x="177" y="0" type="line"/>
			<point x="177" y="33" type="line"/>
			<point x="167" y="33" type="line"/>
			<point x="51" y="23" type="line"/>
		</contour>
		<contour>
			<point x="148" y="0" type="curve"/>
			<point x="203" y="0" type="line"/>
			<point x="201" y="98"/>
			<point x="201" y="208"/>
			<point x="201" y="313" type="curve" smooth="yes"/>
			<point x="201" y="359" type="line" smooth="yes"/>
			<point x="201" y="467"/>
			<point x="201" y="577"/>
			<point x="203" y="674" type="curve"/>
			<point x="148" y="674" type="line"/>
			<point x="150" y="577"/>
			<point x="150" y="467"/>
			<point x="150" y="363" type="curve" smooth="yes"/>
			<point x="150" y="313" type="line" smooth="yes"/>
			<point x="150" y="208"/>
			<point x="150" y="97"/>
		</contour>
		<contour>
			<point x="175" y="0" type="line"/>
			<point x="301" y="0" type="line" smooth="yes"/>
			<point x="465" y="0"/>
			<point x="542" y="81"/>
			<point x="542" y="191" type="curve" smooth="yes"/>
			<point x="542" y="301"/>
			<point x="465" y="376"/>
			<point x="309" y="376" type="curve" smooth="yes"/>
			<point x="266" y="376"/>
			<point x="221" y="372"/>
			<point x="174" y="364" type="curve"/>
			<point x="174" y="337" type="line"/>
			<point x="215" y="345"/>
			<point x="253" y="348"/>
			<point x="296" y="348" type="curve" smooth="yes"/>
			<point x="436" y="348"/>
			<point x="489" y="289"/>
			<point x="489" y="190" type="curve" smooth="yes"/>
			<point x="489" y="86"/>
			<point x="429" y="27"/>
			<point x="295" y="27" type="curve" smooth="yes"/>
			<point x="175" y="27" type="line"/>
		</contour>
		<contour>
			<point x="51" y="650" type="line"/>
			<point x="167" y="641" type="line"/>
			<point x="178" y="641" type="line"/>
			<point x="179" y="674" type="line"/>
			<point x="51" y="674" type="line"/>
		</contour>
		<contour>
			<point x="476" y="510" type="line"/>
			<point x="505" y="510" type="line"/>
			<point x="496" y="674" type="line"/>
			<point x="175" y="674" type="line"/>
			<point x="175" y="646" type="line"/>
			<point x="473" y="646" type="line"/>
			<point x="448" y="671" type="line"/>
		</contour>
	</outline>
</glyph>
<glyph name="De" format="2">
	<unicode hex="0414"/>
	<advance width="687"/>
	<outline>
		<contour>
			<point x="23" y="-181" type="line"/>
			<point x="52" y="-181" type="line"/>
			<point x="71" y="22" type="line"/>
			<point x="45" y="0" type="line"/>
			<point x="621" y="0" type="line"/>
			<point x="598" y="22" type="line"/>
			<point x="615" y="-181" type="line"/>
			<point x="643" y="-181" type="line"/>
			<point x="647" y="28" type="line"/>
			<point x="20" y="28" type="line"/>
		</contour>
		<contour>
			<point x="169" y="650" type="line"/>
			<point x="269" y="641" type="line"/>
			<point x="276" y="641" type="line"/>
			<point x="276" y="674" type="line"/>
			<point x="169" y="674" type="line"/>
		</contour>
		<contour>
			<point x="273" y="646" type="line"/>
			<point x="518" y="646" type="line"/>
			<point x="518" y="674" type="line"/>
			<point x="273" y="674" type="line"/>
		</contour>
		<contour>
			<point x="489" y="0" type="curve"/>
			<point x="545" y="0" type="line"/>
			<point x="542" y="97"/>
			<point x="542" y="208"/>
			<point x="542" y="327" type="curve" smooth="yes"/>
			<point x="542" y="357" type="line" smooth="yes"/>
			<point x="542" y="467"/>
			<point x="542" y="577"/>
			<point x="545" y="674" type="curve"/>
			<point x="489" y="674" type="line"/>
			<point x="491" y="577"/>
			<point x="491" y="467"/>
			<point x="491" y="357" type="curve" smooth="yes"/>
			<point x="491" y="327" type="line" smooth="yes"/>
			<point x="491" y="208"/>
			<point x="491" y="98"/>
		</contour>
		<contour>
			<point x="514" y="641" type="line"/>
			<point x="525" y="641" type="line"/>
			<point x="642" y="650" type="line"/>
			<point x="642" y="674" type="line"/>
			<point x="513" y="674" type="line"/>
		</contour>
		<contour>
			<point x="78" y="27" type="curve"/>
			<point x="116" y="13" type="line"/>
			<point x="116" y="21" type="line"/>
			<point x="157" y="75"/>
			<point x="190" y="139"/>
			<point x="216" y="213" type="curve" smooth="yes"/>
			<point x="261" y="339"/>
			<point x="285" y="494"/>
			<point x="295" y="674" type="curve"/>
			<point x="260" y="674" type="line"/>
			<point x="246" y="390"/>
			<point x="195" y="173"/>
		</contour>
	</outline>
</glyph>
<glyph name="Zhe" format="2">
	<unicode hex="0416"/>
	<advance width="909"/>
	<outline>
		<contour>
			<point x="330" y="0" type="line"/>
			<point x="579" y="0" type="line"/>
			<point x="579" y="23" type="line"/>
			<point x="463" y="33" type="line"/>
			<point x="446" y="33" type="line"/>
			<point x="330" y="23" type="line"/>
		</contour>
		<contour>
			<point x="330" y="650" type="line"/>
			<point x="446" y="641" type="line"/>
			<point x="463" y="641" type="line"/>
			<point x="579" y="650" type="line"/>
			<point x="579" y="674" type="line"/>
			<point x="330" y="674" type="line"/>
		</contour>
		<contour>
			<point x="428" y="0" type="curve"/>
			<point x="481" y="0" type="line"/>
			<point x="478" y="98"/>
			<point x="478" y="209"/>
			<point x="478" y="331" type="curve" smooth="yes"/>
			<point x="478" y="351" type="line" smooth="yes"/>
			<point x="478" y="468"/>
			<point x="478" y="578"/>
			<point x="481" y="674" type="curve"/>
			<point x="428" y="674" type="line"/>
			<point x="431" y="577"/>
			<point x="431" y="467"/>
			<point x="431" y="351" type="curve" smooth="yes"/>
			<point x="431" y="331" type="line" smooth="yes"/>
			<point x="431" y="209"/>
			<point x="431" y="97"/>
		</contour>
		<contour>
			<point x="745" y="41" type="line" smooth="yes"/>
			<point x="758" y="4"/>
			<point x="778" y="-6"/>
			<point x="834" y="-6" type="curve" smooth="yes"/>
			<point x="863" y="-6"/>
			<point x="888" y="-3"/>
			<point x="904" y="0" type="curve"/>
			<point x="904" y="22" type="line"/>
			<point x="786" y="31" type="line"/>
			<point x="808" y="20" type="line"/>
			<point x="724" y="222" type="line" smooth="yes"/>
			<point x="695" y="292"/>
			<point x="652" y="345"/>
			<point x="549" y="352" type="curve"/>
			<point x="543" y="335" type="line"/>
			<point x="620" y="346"/>
			<point x="648" y="367"/>
			<point x="707" y="498" type="curve" smooth="yes"/>
			<point x="738" y="568"/>
			<point x="758" y="605"/>
			<point x="797" y="650" type="curve"/>
			<point x="755" y="627" type="line"/>
			<point x="779" y="622"/>
			<point x="804" y="616"/>
			<point x="827" y="616" type="curve" smooth="yes"/>
			<point x="858" y="616"/>
			<point x="873" y="631"/>
			<point x="873" y="651" type="curve" smooth="yes"/>
			<point x="873" y="670"/>
			<point x="858" y="685"/>
			<point x="836" y="688" type="curve"/>
			<point x="776" y="685"/>
			<point x="742" y="649"/>
			<point x="681" y="509" type="curve" smooth="yes"/>
			<point x="623" y="379"/>
			<point x="597" y="358"/>
			<point x="522" y="358" type="curve" smooth="yes"/>
			<point x="453" y="358" type="line"/>
			<point x="453" y="332" type="line"/>
			<point x="523" y="332" type="line" smooth="yes"/>
			<point x="605" y="332"/>
			<point x="641" y="303"/>
			<point x="673" y="223" type="curve" smooth="yes"/>
		</contour>
		<contour>
			<point x="164" y="41" type="curve" smooth="yes"/>
			<point x="236" y="223" type="line" smooth="yes"/>
			<point x="267" y="303"/>
			<point x="304" y="332"/>
			<point x="386" y="332" type="curve" smooth="yes"/>
			<point x="456" y="332" type="line"/>
			<point x="456" y="358" type="line"/>
			<point x="387" y="358" type="line" smooth="yes"/>
			<point x="312" y="358"/>
			<point x="286" y="379"/>
			<point x="228" y="509" type="curve" smooth="yes"/>
			<point x="166" y="649"/>
			<point x="133" y="685"/>
			<point x="73" y="688" type="curve"/>
			<point x="51" y="685"/>
			<point x="36" y="670"/>
			<point x="36" y="651" type="curve" smooth="yes"/>
			<point x="36" y="631"/>
			<point x="51" y="616"/>
			<point x="82" y="616" type="curve" smooth="yes"/>
			<point x="104" y="616"/>
			<point x="130" y="622"/>
			<point x="153" y="627" type="curve"/>
			<point x="112" y="650" type="line"/>
			<point x="151" y="605"/>
			<point x="171" y="568"/>
			<point x="202" y="498" type="curve" smooth="yes"/>
			<point x="260" y="367"/>
			<point x="289" y="346"/>
			<point x="365" y="335" type="curve"/>
			<point x="360" y="352" type="line"/>
			<point x="257" y="345"/>
			<point x="214" y="292"/>
			<point x="185" y="222" type="curve" smooth="yes"/>
			<point x="101" y="20" type="line"/>
			<point x="123" y="31" type="line"/>
			<point x="5" y="22" type="line"/>
			<point x="5" y="0" type="line"/>
			<point x="20" y="-3"/>
			<point x="46" y="-6"/>
			<point x="75" y="-6" type="curve" smooth="yes"/>
			<point x="131" y="-6"/>
			<point x="150" y="4"/>
		</contour>
	</outline>
	<anchor name="aboveUC" x="455" y="694"/>
</glyph>
<glyph name="Ze" format="2">
	<unicode hex="0417"/>
	<advance width="529"/>
	<outline>
		<contour>
			<point x="242" y="-14" type="curve" smooth="yes"/>
			<point x="393" y="-14"/>
			<point x="482" y="67"/>
			<point x="482" y="177" type="curve" smooth="yes"/>
			<point x="482" y="273"/>
			<point x="422" y="350"/>
			<point x="271" y="356" type="curve"/>
			<point x="271" y="347" type="line"/>
			<point x="394" y="360"/>
			<point x="459" y="434"/>
			<point x="459" y="517" type="curve" smooth="yes"/>
			<point x="459" y="625"/>
			<point x="387" y="687"/>
			<point x="254" y="687" type="curve" smooth="yes"/>
			<point x="182" y="687"/>
			<point x="123" y="673"/>
			<point x="72" y="643" type="curve"/>
			<point x="73" y="513" type="line"/>
			<point x="103" y="513" type="line"/>
			<point x="124" y="652" type="line"/>
			<point x="92" y="639" type="line"/>
			<point x="92" y="621" type="line"/>
			<point x="138" y="649"/>
			<point x="188" y="660"/>
			<point x="249" y="660" type="curve" smooth="yes"/>
			<point x="359" y="660"/>
			<point x="410" y="606"/>
			<point x="410" y="517" type="curve" smooth="yes"/>
			<point x="410" y="425"/>
			<point x="348" y="364"/>
			<point x="223" y="364" type="curve" smooth="yes"/>
			<point x="199" y="364" type="line"/>
			<point x="199" y="337" type="line"/>
			<point x="232" y="337" type="line" smooth="yes"/>
			<point x="378" y="337"/>
			<point x="430" y="272"/>
			<point x="430" y="180" type="curve" smooth="yes"/>
			<point x="430" y="77"/>
			<point x="354" y="14"/>
			<point x="237" y="14" type="curve" smooth="yes"/>
			<point x="182" y="14"/>
			<point x="141" y="23"/>
			<point x="102" y="55" type="curve"/>
			<point x="130" y="24" type="line"/>
			<point x="104" y="103" type="line" smooth="yes"/>
			<point x="96" y="129"/>
			<point x="87" y="140"/>
			<point x="69" y="140" type="curve" smooth="yes"/>
			<point x="54" y="140"/>
			<point x="43" y="131"/>
			<point x="39" y="116" type="curve"/>
			<point x="62" y="34"/>
			<point x="125" y="-14"/>
		</contour>
	</outline>
	<anchor name="aboveUC" x="267" y="694"/>
</glyph>
<glyph name="Tse" format="2">
	<unicode hex="0426"/>
	<advance width="746"/>
	<outline>
		<contour>
			<point x="148" y="0" type="curve"/>
			<point x="204" y="0" type="line"/>
			<point x="201" y="97"/>
			<point x="201" y="208"/>
			<point x="201" y="313" type="curve" smooth="yes"/>
			<point x="201" y="363" type="line" smooth="yes"/>
			<point x="201" y="467"/>
			<point x="201" y="577"/>
			<point x="204" y="674" type="curve"/>
			<point x="148" y="674" type="line"/>
			<point x="150" y="577"/>
			<point x="150" y="467"/>
			<point x="150" y="363" type="curve" smooth="yes"/>
			<point x="150" y="313" type="line" smooth="yes"/>
			<point x="150" y="208"/>
			<point x="150" y="98"/>
		</contour>
		<contour>
			<point x="548" y="0" type="curve"/>
			<point x="604" y="0" type="line"/>
			<point x="601" y="97"/>
			<point x="601" y="208"/>
			<point x="601" y="313" type="curve" smooth="yes"/>
			<point x="601" y="363" type="line" smooth="yes"/>
			<point x="601" y="467"/>
			<point x="601" y="577"/>
			<point x="604" y="674" type="curve"/>
			<point x="548" y="674" type="line"/>
			<point x="550" y="577"/>
			<point x="550" y="467"/>
			<point x="550" y="363" type="curve" smooth="yes"/>
			<point x="550" y="313" type="line" smooth="yes"/>
			<point x="550" y="208"/>
			<point x="550" y="98"/>
		</contour>
		<contour>
			<point x="175" y="0" type="line"/>
			<point x="683" y="0" type="line"/>
			<point x="657" y="21" type="line"/>
			<point x="674" y="-181" type="line"/>
			<point x="702" y="-181" type="line"/>
			<point x="706" y="28" type="line"/>
			<point x="175" y="28" type="line"/>
		</contour>
		<contour>
			<point x="51" y="650" type="line"/>
			<point x="167" y="641" type="line"/>
			<point x="184" y="641" type="line"/>
			<point x="301" y="650" type="line"/>
			<point x="301" y="674" type="line"/>
			<point x="51" y="674" type="line"/>
		</contour>
		<contour>
			<point x="451" y="650" type="line"/>
			<point x="567" y="641" type="line"/>
			<point x="585" y="641" type="line"/>
			<point x="701" y="650" type="line"/>
			<point x="701" y="674" type="line"/>
			<point x="451" y="674" type="line"/>
		</contour>
		<contour>
			<point x="51" y="0" type="line"/>
			<point x="178" y="0" type="line"/>
			<point x="178" y="33" type="line"/>
			<point x="167" y="33" type="line"/>
			<point x="51" y="23" type="line"/>
		</contour>
	</outline>
	<anchor name="aboveUC" x="377" y="694"/>
</glyph>
<glyph name="Che" format="2">
	<unicode hex="0427"/>
	<advance width="684"/>
	<outline>
		<contour>
			<point x="142" y="641" type="line"/>
			<point x="159" y="641" type="line"/>
			<point x="276" y="650" type="line"/>
			<point x="276" y="674" type="line"/>
			<point x="35" y="674" type="line"/>
			<point x="35" y="650" type="line"/>
		</contour>
		<contour>
			<point x="320" y="285" type="curve" smooth="yes"/>
			<point x="373" y="285"/>
			<point x="443" y="296"/>
			<point x="510" y="310" type="curve"/>
			<point x="510" y="334" type="line"/>
			<point x="438" y="323"/>
			<point x="382" y="318"/>
			<point x="331" y="318" type="curve" smooth="yes"/>
			<point x="220" y="318"/>
			<point x="176" y="354"/>
			<point x="176" y="486" type="curve" smooth="yes"/>
			<point x="176" y="542"/>
			<point x="176" y="610"/>
			<point x="178" y="674" type="curve"/>
			<point x="126" y="674" type="line"/>
			<point x="125" y="608"/>
			<point x="125" y="540"/>
			<point x="125" y="474" type="curve" smooth="yes"/>
			<point x="125" y="318"/>
			<point x="201" y="285"/>
		</contour>
		<contour>
			<point x="383" y="0" type="line"/>
			<point x="633" y="0" type="line"/>
			<point x="633" y="23" type="line"/>
			<point x="517" y="33" type="line"/>
			<point x="500" y="33" type="line"/>
			<point x="383" y="23" type="line"/>
		</contour>
		<contour>
			<point x="480" y="0" type="curve"/>
			<point x="536" y="0" type="line"/>
			<point x="533" y="97"/>
			<point x="533" y="208"/>
			<point x="533" y="312" type="curve" smooth="yes"/>
			<point x="533" y="362" type="line" smooth="yes"/>
			<point x="533" y="466"/>
			<point x="533" y="577"/>
			<point x="536" y="674" type="curve"/>
			<point x="480" y="674" type="line"/>
			<point x="483" y="576"/>
			<point x="483" y="466"/>
			<point x="483" y="362" type="curve" smooth="yes"/>
			<point x="483" y="318" type="line" smooth="yes"/>
			<point x="483" y="207"/>
			<point x="483" y="97"/>
		</contour>
		<contour>
			<point x="500" y="641" type="line"/>
			<point x="517" y="641" type="line"/>
			<point x="633" y="650" type="line"/>
			<point x="633" y="674" type="line"/>
			<point x="383" y="674" type="line"/>
			<point x="383" y="650" type="line"/>
		</contour>
	</outline>
	<anchor name="aboveUC" x="334" y="694"/>
</glyph>
<glyph name="Hard" format="2">
	<unicode hex="042A"/>
	<advance width="664"/>
	<outline>
		<contour>
			<point x="274" y="0" type="line"/>
			<point x="394" y="0" type="line" smooth="yes"/>
			<point x="554" y="0"/>
			<point x="635" y="78"/>
			<point x="635" y="194" type="curve" smooth="yes"/>
			<point x="635" y="309"/>
			<point x="555" y="384"/>
			<point x="402" y="384" type="curve" smooth="yes"/>
			<point x="361" y="384"/>
			<point x="319" y="380"/>
			<point x="274" y="372" type="curve"/>
			<point x="274" y="345" type="line"/>
			<point x="312" y="353"/>
			<point x="348" y="356"/>
			<point x="389" y="356" type="curve" smooth="yes"/>
			<point x="526" y="356"/>
			<point x="583" y="297"/>
			<point x="583" y="194" type="curve" smooth="yes"/>
			<point x="583" y="86"/>
			<point x="519" y="27"/>
			<point x="388" y="27" type="curve" smooth="yes"/>
			<point x="274" y="27" type="line"/>
		</contour>
		<contour>
			<point x="247" y="0" type="curve"/>
			<point x="302" y="0" type="line"/>
			<point x="300" y="98"/>
			<point x="300" y="208"/>
			<point x="300" y="313" type="curve" smooth="yes"/>
			<point x="300" y="360" type="line" smooth="yes"/>
			<point x="300" y="467"/>
			<point x="300" y="577"/>
			<point x="302" y="674" type="curve"/>
			<point x="247" y="674" type="line"/>
			<point x="249" y="577"/>
			<point x="249" y="467"/>
			<point x="249" y="363" type="curve" smooth="yes"/>
			<point x="249" y="313" type="line" smooth="yes"/>
			<point x="249" y="208"/>
			<point x="249" y="97"/>
		</contour>
		<contour>
			<point x="22" y="503" type="line"/>
			<point x="51" y="503" type="line"/>
			<point x="79" y="671" type="line"/>
			<point x="54" y="646" type="line"/>
			<point x="268" y="646" type="line"/>
			<point x="268" y="674" type="line"/>
			<point x="31" y="674" type="line"/>
		</contour>
		<contour>
			<point x="150" y="0" type="line"/>
			<point x="276" y="0" type="line"/>
			<point x="276" y="33" type="line"/>
			<point x="266" y="33" type="line"/>
			<point x="150" y="23" type="line"/>
		</contour>
		<contour>
			<point x="271" y="641" type="line"/>
			<point x="283" y="641" type="line"/>
			<point x="405" y="650" type="line"/>
			<point x="405" y="674" type="line"/>
			<point x="271" y="674" type="line"/>
		</contour>
	</outline>
	<anchor name="aboveUC" x="275" y="694"/>
</glyph>
<glyph name="ghe" format="2">
	<unicode hex="0433"/>
	<advance width="431"/>
	<outline>
		<contour>
			<point x="121" y="0" type="curve"/>
			<point x="174" y="0" type="line"/>
			<point x="172" y="45"/>
			<point x="171" y="146"/>
			<point x="171" y="208" type="curve" smooth="yes"/>
			<point x="171" y="253" type="line" smooth="yes"/>
			<point x="171" y="319"/>
			<point x="172" y="421"/>
			<point x="174" y="466" type="curve"/>
			<point x="121" y="466" type="line"/>
			<point x="124" y="421"/>
			<point x="125" y="319"/>
			<point x="125" y="253" type="curve" smooth="yes"/>
			<point x="125" y="208" type="line" smooth="yes"/>
			<point x="125" y="146"/>
			<point x="124" y="45"/>
		</contour>
		<contour>
			<point x="145" y="440" type="line"/>
			<point x="372" y="440" type="line"/>
			<point x="344" y="461" type="line"/>
			<point x="376" y="308" type="line"/>
			<point x="402" y="308" type="line"/>
			<point x="393" y="466" type="line"/>
			<point x="145" y="466" type="line"/>
		</contour>
		<contour>
			<point x="43" y="0" type="line"/>
			<point x="261" y="0" type="line"/>
			<point x="261" y="22" type="line"/>
			<point x="154" y="32" type="line"/>
			<point x="140" y="32" type="line"/>
			<point x="43" y="22" type="line"/>
		</contour>
		<contour>
			<point x="43" y="444" type="line"/>
			<point x="142" y="433" type="line"/>
			<point x="148" y="433" type="line"/>
			<point x="148" y="466" type="line"/>
			<point x="43" y="466" type="line"/>
		</contour>
	</outline>
	<anchor name="aboveLC" x="250" y="486"/>
</glyph>
<glyph name="de" format="2">
	<unicode hex="0434"/>
	<advance width="553"/>
	<outline>
		<contour>
			<point x="494" y="0" type="line"/>
			<point x="468" y="24" type="line"/>
			<point x="486" y="-148" type="line"/>
			<point x="512" y="-148" type="line"/>
			<point x="516" y="26" type="line"/>
			<point x="27" y="26" type="line"/>
			<point x="31" y="-148" type="line"/>
			<point x="57" y="-148" type="line"/>
			<point x="75" y="24" type="line"/>
			<point x="49" y="0" type="line"/>
		</contour>
		<contour>
			<point x="378" y="0" type="curve"/>
			<point x="431" y="0" type="line"/>
			<point x="428" y="45"/>
			<point x="427" y="146"/>
			<point x="427" y="208" type="curve" smooth="yes"/>
			<point x="427" y="257" type="line" smooth="yes"/>
			<point x="427" y="319"/>
			<point x="428" y="421"/>
			<point x="431" y="466" type="curve"/>
			<point x="378" y="466" type="line"/>
			<point x="380" y="421"/>
			<point x="381" y="319"/>
			<point x="381" y="257" type="curve" smooth="yes"/>
			<point x="381" y="208" type="line" smooth="yes"/>
			<point x="381" y="146"/>
			<point x="380" y="45"/>
		</contour>
		<contour>
			<point x="136" y="444" type="line"/>
			<point x="223" y="433" type="line"/>
			<point x="231" y="433" type="line"/>
			<point x="231" y="466" type="line"/>
			<point x="136" y="466" type="line"/>
		</contour>
		<contour>
			<point x="403" y="433" type="line"/>
			<point x="412" y="433" type="line"/>
			<point x="510" y="444" type="line"/>
			<point x="510" y="466" type="line"/>
			<point x="404" y="466" type="line"/>
		</contour>
		<contour>
			<point x="72" y="24" type="curve"/>
			<point x="105" y="8" type="line"/>
			<point x="183" y="123"/>
			<point x="236" y="298"/>
			<point x="246" y="466" type="curve"/>
			<point x="217" y="466" type="line"/>
			<point x="206" y="299"/>
			<point x="154" y="133"/>
		</contour>
		<contour>
			<point x="232" y="440" type="line"/>
			<point x="408" y="440" type="line"/>
			<point x="408" y="466" type="line"/>
			<point x="232" y="466" type="line"/>
		</contour>
	</outline>
</glyph>
<glyph name="icyr" format="2">
	<unicode hex="0438"/>
	<advance width="621"/>
	<outline>
		<contour>
			<point x="43" y="0" type="line"/>
			<point x="252" y="0" type="line"/>
			<point x="252" y="22" type="line"/>
			<point x="155" y="32" type="line"/>
			<point x="141" y="32" type="line"/>
			<point x="43" y="22" type="line"/>
		</contour>
		<contour>
			<point x="368" y="0" type="line"/>
			<point x="579" y="0" type="line"/>
			<point x="579" y="22" type="line"/>
			<point x="481" y="32" type="line"/>
			<point x="467" y="32" type="line"/>
			<point x="368" y="22" type="line"/>
		</contour>
		<contour>
			<point x="121" y="0" type="curve"/>
			<point x="169" y="0" type="line"/>
			<point x="169" y="466" type="line"/>
			<point x="121" y="466" type="line"/>
			<point x="124" y="421"/>
			<point x="125" y="319"/>
			<point x="125" y="257" type="curve" smooth="yes"/>
			<point x="125" y="208" type="line" smooth="yes"/>
			<point x="125" y="146"/>
			<point x="124" y="45"/>
		</contour>
		<contour>
			<point x="154" y="42" type="line"/>
			<point x="481" y="403" type="line"/>
			<point x="486" y="403" type="line"/>
			<point x="467" y="423" type="line"/>
			<point x="137" y="61" type="line"/>
			<point x="132" y="61" type="line"/>
		</contour>
		<contour>
			<point x="453" y="0" type="line"/>
			<point x="500" y="0" type="line"/>
			<point x="498" y="45"/>
			<point x="497" y="146"/>
			<point x="497" y="208" type="curve" smooth="yes"/>
			<point x="497" y="257" type="line" smooth="yes"/>
			<point x="497" y="319"/>
			<point x="498" y="421"/>
			<point x="500" y="466" type="curve"/>
			<point x="453" y="466" type="line"/>
		</contour>
		<contour>
			<point x="43" y="444" type="line"/>
			<point x="142" y="433" type="line"/>
			<point x="155" y="433" type="line"/>
			<point x="252" y="444" type="line"/>
			<point x="252" y="466" type="line"/>
			<point x="43" y="466" type="line"/>
		</contour>
		<contour>
			<point x="368" y="444" type="line"/>
			<point x="468" y="433" type="line"/>
			<point x="482" y="433" type="line"/>
			<point x="579" y="444" type="line"/>
			<point x="579" y="466" type="line"/>
			<point x="368" y="466" type="line"/>
		</contour>
	</outline>
	<anchor name="aboveLC" x="311" y="486"/>
</glyph>
<glyph name="che" format="2">
	<unicode hex="0447"/>
	<advance width="538"/>
	<outline>
		<contour>
			<point x="230" y="192" type="curve" smooth="yes"/>
			<point x="284" y="192"/>
			<point x="337" y="206"/>
			<point x="391" y="225" type="curve"/>
			<point x="391" y="248" type="line"/>
			<point x="339" y="232"/>
			<point x="294" y="224"/>
			<point x="242" y="224" type="curve" smooth="yes"/>
			<point x="168" y="224"/>
			<point x="133" y="246"/>
			<point x="133" y="322" type="curve" smooth="yes"/>
			<point x="133" y="374"/>
			<point x="133" y="416"/>
			<point x="136" y="466" type="curve"/>
			<point x="90" y="466" type="line"/>
			<point x="88" y="417"/>
			<point x="87" y="365"/>
			<point x="87" y="317" type="curve" smooth="yes"/>
			<point x="87" y="229"/>
			<point x="130" y="192"/>
		</contour>
		<contour>
			<point x="364" y="0" type="curve"/>
			<point x="417" y="0" type="line"/>
			<point x="415" y="45"/>
			<point x="414" y="146"/>
			<point x="414" y="208" type="curve" smooth="yes"/>
			<point x="414" y="257" type="line" smooth="yes"/>
			<point x="414" y="319"/>
			<point x="415" y="421"/>
			<point x="417" y="466" type="curve"/>
			<point x="364" y="466" type="line"/>
			<point x="366" y="421"/>
			<point x="367" y="319"/>
			<point x="367" y="257" type="curve" smooth="yes"/>
			<point x="367" y="213" type="line" smooth="yes"/>
			<point x="367" y="146"/>
			<point x="366" y="45"/>
		</contour>
		<contour>
			<point x="16" y="444" type="line"/>
			<point x="106" y="433" type="line"/>
			<point x="118" y="433" type="line"/>
			<point x="215" y="444" type="line"/>
			<point x="215" y="466" type="line"/>
			<point x="16" y="466" type="line"/>
		</contour>
		<contour>
			<point x="285" y="0" type="line"/>
			<point x="495" y="0" type="line"/>
			<point x="495" y="22" type="line"/>
			<point x="396" y="32" type="line"/>
			<point x="383" y="32" type="line"/>
			<point x="285" y="22" type="line"/>
		</contour>
		<contour>
			<point x="286" y="444" type="line"/>
			<point x="384" y="433" type="line"/>
			<point x="398" y="433" type="line"/>
			<point x="495" y="444" type="line"/>
			<point x="495" y="466" type="line"/>
			<point x="286" y="466" type="line"/>
		</contour>
	</outline>
	<anchor name="aboveLC" x="253" y="486"/>
</glyph>
<glyph name="yeru" format="2">
	<unicode hex="044B"/>
	<advance width="720"/>
	<outline>
		<contour>
			<point x="151" y="0" type="line"/>
			<point x="250" y="0" type="line" smooth="yes"/>
			<point x="380" y="0"/>
			<point x="436" y="65"/>
			<point x="436" y="146" type="curve" smooth="yes"/>
			<point x="436" y="225"/>
			<point x="384" y="285"/>
			<point x="263" y="285" type="curve" smooth="yes"/>
			<point x="224" y="285"/>
			<point x="188" y="280"/>
			<point x="151" y="272" type="curve"/>
			<point x="151" y="247" type="line"/>
			<point x="186" y="255"/>
			<point x="218" y="258"/>
			<point x="252" y="258" type="curve" smooth="yes"/>
			<point x="344" y="258"/>
			<point x="388" y="219"/>
			<point x="388" y="144" type="curve" smooth="yes"/>
			<point x="388" y="65"/>
			<point x="341" y="25"/>
			<point x="238" y="25" type="curve" smooth="yes"/>
			<point x="151" y="25" type="line"/>
		</contour>
		<contour>
			<point x="127" y="0" type="curve"/>
			<point x="180" y="0" type="line"/>
			<point x="177" y="45"/>
			<point x="176" y="146"/>
			<point x="176" y="208" type="curve" smooth="yes"/>
			<point x="176" y="257" type="line" smooth="yes"/>
			<point x="176" y="319"/>
			<point x="177" y="421"/>
			<point x="180" y="466" type="curve"/>
			<point x="127" y="466" type="line"/>
			<point x="129" y="421"/>
			<point x="130" y="319"/>
			<point x="130" y="257" type="curve" smooth="yes"/>
			<point x="130" y="208" type="line" smooth="yes"/>
			<point x="130" y="146"/>
			<point x="129" y="45"/>
		</contour>
		<contour>
			<point x="532" y="0" type="curve"/>
			<point x="584" y="0" type="line"/>
			<point x="582" y="45"/>
			<point x="581" y="146"/>
			<point x="581" y="208" type="curve" smooth="yes"/>
			<point x="581" y="257" type="line" smooth="yes"/>
			<point x="581" y="319"/>
			<point x="582" y="421"/>
			<point x="584" y="466" type="curve"/>
			<point x="532" y="466" type="line"/>
			<point x="534" y="421"/>
			<point x="535" y="319"/>
			<point x="535" y="257" type="curve" smooth="yes"/>
			<point x="535" y="208" type="line" smooth="yes"/>
			<point x="535" y="146"/>
			<point x="534" y="45"/>
		</contour>
		<contour>
			<point x="48" y="444" type="line"/>
			<point x="147" y="433" type="line"/>
			<point x="161" y="433" type="line"/>
			<point x="258" y="444" type="line"/>
			<point x="258" y="466" type="line"/>
			<point x="48" y="466" type="line"/>
		</contour>
		<contour>
			<point x="453" y="0" type="line"/>
			<point x="663" y="0" type="line"/>
			<point x="663" y="22" type="line"/>
			<point x="566" y="32" type="line"/>
			<point x="552" y="32" type="line"/>
			<point x="453" y="22" type="line"/>
		</contour>
		<contour>
			<point x="453" y="444" type="line"/>
			<point x="552" y="433" type="line"/>
			<point x="566" y="433" type="line"/>
			<point x="663" y="444" type="line"/>
			<point x="663" y="466" type="line"/>
			<point x="453" y="466" type="line"/>
		</contour>
		<contour>
			<point x="48" y="0" type="line"/>
			<point x="157" y="0" type="line"/>
			<point x="157" y="32" type="line"/>
			<point x="147" y="32" type="line"/>
			<point x="48" y="22" type="line"/>
		</contour>
	</outline>
	<anchor name="aboveLC" x="355" y="486"/>
</glyph>
<glyph name="ecyr" format="2">
	<unicode hex="044D"/>
	<advance width="471"/>
	<outline>
		<contour>
			<point x="202" y="-13" type="curve" smooth="yes"/>
			<point x="331" y="-13"/>
			<point x="422" y="69"/>
			<point x="422" y="238" type="curve" smooth="yes"/>
			<point x="422" y="389"/>
			<point x="337" y="478"/>
			<point x="212" y="478" type="curve" smooth="yes"/>
			<point x="158" y="478"/>
			<point x="105" y="465"/>
			<point x="62" y="438" type="curve"/>
			<point x="65" y="331" type="line"/>
			<point x="94" y="331" type="line"/>
			<point x="110" y="445" type="line"/>
			<point x="88" y="415" type="line"/>
			<point x="124" y="443"/>
			<point x="161" y="452"/>
			<point x="205" y="452" type="curve" smooth="yes"/>
			<point x="311" y="452"/>
			<point x="373" y="376"/>
			<point x="373" y="236" type="curve" smooth="yes"/>
			<point x="373" y="83"/>
			<point x="308" y="13"/>
			<point x="202" y="13" type="curve" smooth="yes"/>
			<point x="163" y="13"/>
			<point x="127" y="20"/>
			<point x="93" y="47" type="curve"/>
			<point x="123" y="20" type="line"/>
			<point x="106" y="84" type="line" smooth="yes"/>
			<point x="100" y="106"/>
			<point x="92" y="117"/>
			<point x="74" y="117" type="curve" smooth="yes"/>
			<point x="61" y="117"/>
			<point x="51" y="108"/>
			<point x="47" y="96" type="curve"/>
			<point x="60" y="25"/>
			<point x="124" y="-13"/>
		</contour>
		<contour>
			<point x="144" y="223" type="line"/>
			<point x="397" y="226" type="line"/>
			<point x="397" y="252" type="line"/>
			<point x="144" y="256" type="line"/>
		</contour>
	</outline>
	<anchor name="aboveLC" x="217" y="486"/>
</glyph>
<glyph name="dzhe" format="2">
	<unicode hex="045F"/>
	<advance width="601"/>
	<outline>
		<contour>
			<point x="121" y="0" type="curve"/>
			<point x="174" y="0" type="line"/>
			<point x="172" y="45"/>
			<point x="171" y="146"/>
			<point x="171" y="208" type="curve" smooth="yes"/>
			<point x="171" y="257" type="line" smooth="yes"/>
			<point x="171" y="319"/>
			<point x="172" y="421"/>
			<point x="174" y="466" type="curve"/>
			<point x="121" y="466" type="line"/>
			<point x="124" y="421"/>
			<point x="125" y="319"/>
			<point x="125" y="257" type="curve" smooth="yes"/>
			<point x="125" y="208" type="line" smooth="yes"/>
			<point x="125" y="146"/>
			<point x="124" y="45"/>
		</contour>
		<contour>
			<point x="424" y="0" type="curve"/>
			<point x="476" y="0" type="line"/>
			<point x="474" y="45"/>
			<point x="473" y="146"/>
			<point x="473" y="208" type="curve" smooth="yes"/>
			<point x="473" y="257" type="line" smooth="yes"/>
			<point x="473" y="319"/>
			<point x="474" y="421"/>
			<point x="476" y="466" type="curve"/>
			<point x="424" y="466" type="line"/>
			<point x="426" y="421"/>
			<point x="427" y="319"/>
			<point x="427" y="257" type="curve" smooth="yes"/>
			<point x="427" y="208" type="line" smooth="yes"/>
			<point x="427" y="146"/>
			<point x="426" y="45"/>
		</contour>
		<contour>
			<point x="43" y="444" type="line"/>
			<point x="142" y="433" type="line"/>
			<point x="155" y="433" type="line"/>
			<point x="251" y="444" type="line"/>
			<point x="251" y="466" type="line"/>
			<point x="43" y="466" type="line"/>
		</contour>
		<contour>
			<point x="347" y="444" type="line"/>
			<point x="445" y="433" type="line"/>
			<point x="458" y="433" type="line"/>
			<point x="555" y="444" type="line"/>
			<point x="555" y="466" type="line"/>
			<point x="347" y="466" type="line"/>
		</contour>
		<contour>
			<point x="43" y="0" type="line"/>
			<point x="149" y="0" type="line"/>
			<point x="149" y="32" type="line"/>
			<point x="142" y="32" type="line"/>
			<point x="43" y="22" type="line"/>
		</contour>
		<contour>
			<point x="453" y="0" type="line"/>
			<point x="558" y="0" type="line"/>
			<point x="558" y="22" type="line"/>
			<point x="459" y="32" type="line"/>
			<point x="453" y="32" type="line"/>
		</contour>
		<contour>
			<point x="148" y="0" type="line"/>
			<point x="453" y="0" type="line"/>
			<point x="453" y="26" type="line"/>
			<point x="148" y="26" type="line"/>
		</contour>
		<contour>
			<point x="287" y="-158" type="line"/>
			<point x="313" y="-158" type="line"/>
			<point x="325" y="16" type="line"/>
			<point x="275" y="16" type="line"/>
		</contour>
	</outline>
</glyph>
<glyph name="Fita" format="2">
	<unicode hex="0472"/>
	<advance width="689"/>
	<outline>
		<contour>
			<point x="604" y="336" type="line"/>
			<point x="604" y="363" type="line"/>
			<point x="85" y="363" type="line"/>
			<point x="85" y="336" type="line"/>
		</contour>
		<contour>
			<point x="112" y="340" type="curve" smooth="yes"/>
			<point x="112" y="522"/>
			<point x="189" y="660"/>
			<point x="345" y="660" type="curve" smooth="yes"/>
			<point x="501" y="660"/>
			<point x="578" y="522"/>
			<point x="578" y="341" type="curve" smooth="yes"/>
			<point x="578" y="148"/>
			<point x="501" y="14"/>
			<point x="345" y="14" type="curve" smooth="yes"/>
			<point x="189" y="14"/>
			<point x="112" y="148"/>
		</contour>
		<contour>
			<point x="345" y="687" type="curve" smooth="yes"/>
			<point x="179" y="687"/>
			<point x="57" y="560"/>
			<point x="57" y="337" type="curve" smooth="yes"/>
			<point x="57" y="112"/>
			<point x="178" y="-14"/>
			<point x="345" y="-14" type="curve" smooth="yes"/>
			<point x="512" y="-14"/>
			<point x="633" y="110"/>
			<point x="633" y="337" type="curve" smooth="yes"/>
			<point x="633" y="564"/>
			<point x="512" y="687"/>
		</contour>
	</outline>
	<anchor name="aboveUC" x="345" y="694"/>
</glyph>
<glyph name="fita" format="2">
	<unicode hex="0473"/>
	<advance width="527"/>
	<outline>
		<contour>
			<point x="81" y="227" type="line"/>
			<point x="447" y="227" type="line"/>
			<point x="447" y="253" type="line"/>
			<point x="81" y="253" type="line"/>
		</contour>
		<contour>
			<point x="263" y="13" type="curve" smooth="yes"/>
			<point x="165" y="13"/>
			<point x="98" y="80"/>
			<point x="98" y="230" type="curve" smooth="yes"/>
			<point x="98" y="381"/>
			<point x="165" y="453"/>
			<point x="263" y="453" type="curve" smooth="yes"/>
			<point x="362" y="453"/>
			<point x="428" y="383"/>
			<point x="428" y="232" type="curve" smooth="yes"/>
			<point x="428" y="82"/>
			<point x="362" y="13"/>
		</contour>
		<contour>
			<point x="263" y="-13" type="curve" smooth="yes"/>
			<point x="371" y="-13"/>
			<point x="478" y="66"/>
			<point x="478" y="232" type="curve" smooth="yes"/>
			<point x="478" y="399"/>
			<point x="370" y="478"/>
			<point x="263" y="478" type="curve" smooth="yes"/>
			<point x="156" y="478"/>
			<point x="49" y="397"/>
			<point x="49" y="230" type="curve" smooth="yes"/>
			<point x="49" y="64"/>
			<point x="156" y="-13"/>
		</contour>
	</outline>
	<anchor name="aboveLC" x="264" y="486"/>
</glyph>
<glyph name="izhitsa" format="2">
	<unicode hex="0475"/>
	<advance width="504"/>
	<outline>
		<contour>
			<point x="-3" y="442" type="line"/>
			<point x="86" y="433" type="line"/>
			<point x="99" y="433" type="line"/>
			<point x="202" y="442" type="line"/>
			<point x="202" y="466" type="line"/>
			<point x="-3" y="466" type="line"/>
		</contour>
		<contour>
			<point x="237" y="-5" type="line"/>
			<point x="262" y="-5" type="line"/>
			<point x="383" y="327" type="line" smooth="yes"/>
			<point x="405" y="385"/>
			<point x="417" y="413"/>
			<point x="441" y="442" type="curve"/>
			<point x="425" y="445" type="line"/>
			<point x="417" y="432" type="line"/>
			<point x="429" y="418"/>
			<point x="444" y="408"/>
			<point x="462" y="408" type="curve" smooth="yes"/>
			<point x="487" y="408"/>
			<point x="503" y="421"/>
			<point x="503" y="442" type="curve" smooth="yes"/>
			<point x="503" y="458"/>
			<point x="491" y="472"/>
			<point x="470" y="477" type="curve"/>
			<point x="445" y="476"/>
			<point x="427" y="468"/>
			<point x="413" y="451" type="curve" smooth="yes"/>
			<point x="395" y="428"/>
			<point x="381" y="397"/>
			<point x="357" y="333" type="curve" smooth="yes"/>
			<point x="255" y="47" type="line"/>
			<point x="251" y="36" type="line"/>
			<point x="268" y="36" type="line"/>
			<point x="105" y="466" type="line"/>
			<point x="51" y="466" type="line"/>
		</contour>
	</outline>
	<anchor name="aboveLC" x="267" y="486"/>
</glyph>
<glyph name="Gheup" format="2">
	<unicode hex="0490"/>
	<advance width="545"/>
	<outline>
		<contour>
			<point x="148" y="0" type="curve"/>
			<point x="204" y="0" type="line"/>
			<point x="201" y="97"/>
			<point x="201" y="207"/>
			<point x="201" y="313" type="curve" smooth="yes"/>
			<point x="201" y="362" type="line" smooth="yes"/>
			<point x="201" y="467"/>
			<point x="201" y="577"/>
			<point x="204" y="674" type="curve"/>
			<point x="148" y="674" type="line"/>
			<point x="150" y="577"/>
			<point x="150" y="467"/>
			<point x="150" y="362" type="curve" smooth="yes"/>
			<point x="150" y="313" type="line" smooth="yes"/>
			<point x="150" y="207"/>
			<point x="150" y="96"/>
		</contour>
		<contour>
			<point x="175" y="646" type="line"/>
			<point x="504" y="646" type="line"/>
			<point x="514" y="815" type="line"/>
			<point x="485" y="815" type="line"/>
			<point x="454" y="648" type="line"/>
			<point x="481" y="674" type="line"/>
			<point x="175" y="674" type="line"/>
		</contour>
		<contour>
			<point x="51" y="0" type="line"/>
			<point x="309" y="0" type="line"/>
			<point x="309" y="23" type="line"/>
			<point x="184" y="33" type="line"/>
			<point x="167" y="33" type="line"/>
			<point x="51" y="23" type="line"/>
		</contour>
		<contour>
			<point x="51" y="650" type="line"/>
			<point x="167" y="641" type="line"/>
			<point x="177" y="641" type="line"/>
			<point x="177" y="674" type="line"/>
			<point x="51" y="674" type="line"/>
		</contour>
	</outline>
</glyph>
<glyph name="zhedescender" format="2">
	<unicode hex="0497"/>
	<advance width="726"/>
	<outline>
		<contour>
			<point x="698" y="0" type="line"/>
			<point x="672" y="22" type="line"/>
			<point x="689" y="-148" type="line"/>
			<point x="715" y="-148" type="line"/>
			<point x="719" y="22" type="line"/>
			<point x="613" y="31" type="line"/>
			<point x="623" y="0" type="line"/>
		</contour>
		<component base="zhe"/>
	</outline>
</glyph>
<glyph name="Kadescender" format="2">
	<unicode hex="049A"/>
	<advance width="645"/>
	<outline>
		<contour>
			<point x="530" y="0" type="line"/>
			<point x="622" y="0" type="line"/>
			<point x="594" y="22" type="line"/>
			<point x="611" y="-181" type="line"/>
			<point x="639" y="-181" type="line"/>
			<point x="643" y="23" type="line"/>
			<point x="519" y="32" type="line"/>
		</contour>
		<component base="Ka"/>
	</outline>
</glyph>
<glyph name="kadescender" format="2">
	<unicode hex="049B"/>
	<advance width="525"/>
	<outline>
		<contour>
			<point x="495" y="0" type="line"/>
			<point x="468" y="22" type="line"/>
			<point x="486" y="-148" type="line"/>
			<point x="512" y="-148" type="line"/>
			<point x="516" y="22" type="line"/>
			<point x="410" y="31" type="line"/>
			<point x="419" y="0" type="line"/>
		</contour>
		<component base="ka"/>
	</outline>
</glyph>
<glyph name="Endescender" format="2">
	<unicode hex="04A2"/>
	<advance width="761"/>
	<outline>
		<contour>
			<point x="604" y="0" type="line"/>
			<point x="699" y="0" type="line"/>
			<point x="672" y="19" type="line"/>
			<point x="689" y="-181" type="line"/>
			<point x="717" y="-181" type="line"/>
			<point x="721" y="24" type="line"/>
			<point x="604" y="33" type="line"/>
		</contour>
		<component base="En"/>
	</outline>
</glyph>
<glyph name="ustraight" format="2">
	<unicode hex="04AF"/>
	<advance width="492"/>
	<outline>
		<contour>
			<point x="234" y="-25" type="line"/>
			<point x="259" y="-25" type="line"/>
			<point x="437" y="466" type="line"/>
			<point x="405" y="466" type="line"/>
			<point x="243" y="3" type="line"/>
			<point x="266" y="17" type="line"/>
			<point x="105" y="466" type="line"/>
			<point x="51" y="466" type="line"/>
		</contour>
		<contour>
			<point x="-3" y="443" type="line"/>
			<point x="86" y="433" type="line"/>
			<point x="99" y="433" type="line"/>
			<point x="199" y="443" type="line"/>
			<point x="199" y="466" type="line"/>
			<point x="-3" y="466" type="line"/>
		</contour>
		<contour>
			<point x="133" y="-248" type="line"/>
			<point x="362" y="-248" type="line"/>
			<point x="362" y="-226" type="line"/>
			<point x="253" y="-216" type="line"/>
			<point x="239" y="-216" type="line"/>
			<point x="133" y="-226" type="line"/>
		</contour>
		<contour>
			<point x="311" y="443" type="line"/>
			<point x="403" y="434" type="line"/>
			<point x="415" y="434" type="line"/>
			<point x="488" y="443" type="line"/>
			<point x="488" y="466" type="line"/>
			<point x="311" y="466" type="line"/>
		</contour>
		<contour>
			<point x="220" y="-248" type="curve"/>
			<point x="272" y="-248" type="line"/>
			<point x="270" y="-197"/>
			<point x="269" y="-102"/>
			<point x="269" y="21" type="curve"/>
			<point x="223" y="21" type="line"/>
			<point x="223" y="-103"/>
			<point x="222" y="-197"/>
		</contour>
	</outline>
	<anchor name="aboveLC" x="257" y="486"/>
</glyph>
<glyph name="ustraightstroke" format="2">
	<unicode hex="04B1"/>
	<advance width="492"/>
	<outline>
		<contour>
			<point x="71" y="0" type="line"/>
			<point x="412" y="0" type="line"/>
			<point x="412" y="26" type="line"/>
			<point x="71" y="26" type="line"/>
		</contour>
		<component base="ustraight"/>
	</outline>
	<anchor name="aboveLC" x="257" y="486"/>
</glyph>
<glyph name="hadescender" format="2">
	<unicode hex="04B3"/>
	<advance width="494"/>
	<outline>
		<contour>
			<point x="471" y="0" type="line"/>
			<point x="445" y="22" type="line"/>
			<point x="463" y="-148" type="line"/>
			<point x="488" y="-148" type="line"/>
			<point x="492" y="22" type="line"/>
			<point x="389" y="34" type="line"/>
			<point x="389" y="0" type="line"/>
		</contour>
		<component base="ha"/>
	</outline>
</glyph>
<glyph name="Chedescender" format="2">
	<unicode hex="04B6"/>
	<advance width="682"/>
	<outline>
		<contour>
			<point x="523" y="0" type="line"/>
			<point x="621" y="0" type="line"/>
			<point x="593" y="23" type="line"/>
			<point x="610" y="-181" type="line"/>
			<point x="638" y="-181" type="line"/>
			<point x="642" y="24" type="line"/>
			<point x="523" y="33" type="line"/>
		</contour>
		<component base="Che"/>
	</outline>
</glyph>
<glyph name="a.sups" format="2">
	<unicode hex="1D43"/>
	<advance width="330"/>
	<outline>
		<contour>
			<point x="271" y="422" type="curve" smooth="yes"/>
			<point x="291" y="422"/>
			<point x="308" y="431"/>
			<point x="320" y="451" type="curve"/>
			<point x="311" y="460" type="line"/>
			<point x="300" y="450"/>
			<point x="292" y="446"/>
			<point x="282" y="446" type="curve" smooth="yes"/>
			<point x="266" y="446"/>
			<point x="257" y="459"/>
			<point x="257" y="491" type="curve" smooth="yes"/>
			<point x="257" y="638" type="line" smooth="yes"/>
			<point x="257" y="711"/>
			<point x="226" y="742"/>
			<point x="161" y="742" type="curve" smooth="yes"/>
			<point x="100" y="742"/>
			<point x="53" y="713"/>
			<point x="40" y="666" type="curve"/>
			<point x="42" y="653"/>
			<point x="50" y="645"/>
			<point x="63" y="645" type="curve" smooth="yes"/>
			<point x="76" y="645"/>
			<point x="85" y="654"/>
			<point x="90" y="671" type="curve" smooth="yes"/>
			<point x="104" y="720" type="line"/>
			<point x="82" y="703" type="line"/>
			<point x="108" y="717"/>
			<point x="127" y="722"/>
			<point x="149" y="722" type="curve" smooth="yes"/>
			<point x="197" y="722"/>
			<point x="217" y="703"/>
			<point x="217" y="637" type="curve" smooth="yes"/>
			<point x="217" y="487" type="line"/>
			<point x="217" y="486" type="line" smooth="yes"/>
			<point x="217" y="446"/>
			<point x="234" y="422"/>
		</contour>
		<contour>
			<point x="113" y="420" type="curve" smooth="yes"/>
			<point x="155" y="420"/>
			<point x="183" y="439"/>
			<point x="220" y="480" type="curve" smooth="yes"/>
			<point x="234" y="491" type="line"/>
			<point x="222" y="500" type="line"/>
			<point x="182" y="463"/>
			<point x="159" y="449"/>
			<point x="129" y="449" type="curve" smooth="yes"/>
			<point x="98" y="449"/>
			<point x="71" y="467"/>
			<point x="71" y="505" type="curve" smooth="yes"/>
			<point x="71" y="533"/>
			<point x="89" y="558"/>
			<point x="141" y="578" type="curve" smooth="yes"/>
			<point x="169" y="587"/>
			<point x="204" y="596"/>
			<point x="237" y="605" type="curve"/>
			<point x="237" y="621" type="line"/>
			<point x="202" y="613"/>
			<point x="166" y="604"/>
			<point x="132" y="594" type="curve" smooth="yes"/>
			<point x="56" y="570"/>
			<point x="30" y="539"/>
			<point x="30" y="497" type="curve" smooth="yes"/>
			<point x="30" y="447"/>
			<point x="66" y="420"/>
		</contour>
	</outline>
</glyph>
<glyph name="b.sups" format="2">
	<unicode hex="1D47"/>
	<advance width="379"/>
	<outline>
		<contour>
			<point x="23" y="433" type="line"/>
			<point x="112" y="427" type="line"/>
			<point x="116" y="484" type="line"/>
			<point x="116" y="485" type="line"/>
			<point x="116" y="682" type="line"/>
			<point x="116" y="684" type="line"/>
			<point x="116" y="904" type="line"/>
			<point x="107" y="909" type="line"/>
			<point x="21" y="891" type="line"/>
			<point x="21" y="874" type="line"/>
			<point x="76" y="870" type="line"/>
			<point x="76" y="456" type="line"/>
			<point x="23" y="450" type="line"/>
		</contour>
		<contour>
			<point x="213" y="423" type="curve" smooth="yes"/>
			<point x="289" y="423"/>
			<point x="345" y="484"/>
			<point x="345" y="589" type="curve" smooth="yes"/>
			<point x="345" y="688"/>
			<point x="291" y="746"/>
			<point x="219" y="746" type="curve" smooth="yes"/>
			<point x="175" y="746"/>
			<point x="133" y="722"/>
			<point x="100" y="673" type="curve"/>
			<point x="97" y="673" type="line"/>
			<point x="104" y="659" type="line"/>
			<point x="140" y="701"/>
			<point x="173" y="719"/>
			<point x="209" y="719" type="curve" smooth="yes"/>
			<point x="263" y="719"/>
			<point x="303" y="677"/>
			<point x="303" y="587" type="curve" smooth="yes"/>
			<point x="303" y="490"/>
			<point x="259" y="451"/>
			<point x="207" y="451" type="curve" smooth="yes"/>
			<point x="169" y="451"/>
			<point x="139" y="468"/>
			<point x="103" y="506" type="curve"/>
			<point x="100" y="503" type="line"/>
			<point x="100" y="495" type="line"/>
			<point x="132" y="442"/>
			<point x="173" y="423"/>
		</contour>
	</outline>
</glyph>
<glyph name="g.sups" format="2">
	<unicode hex="1D4D"/>
	<advance width="336"/>
	<outline>
		<contour>
			<point x="160" y="273" type="curve" smooth="yes"/>
			<point x="265" y="273"/>
			<point x="317" y="328"/>
			<point x="317" y="383" type="curve" smooth="yes"/>
			<point x="317" y="435"/>
			<point x="284" y="464"/>
			<point x="219" y="464" type="curve" smooth="yes"/>
			<point x="143" y="464" type="line" smooth="yes"/>
			<point x="96" y="464"/>
			<point x="81" y="478"/>
			<point x="81" y="501" type="curve" smooth="yes"/>
			<point x="81" y="519"/>
			<point x="89" y="532"/>
			<point x="111" y="551" type="curve"/>
			<point x="102" y="560" type="line"/>
			<point x="102" y="557" type="line"/>
			<point x="65" y="534"/>
			<point x="48" y="512"/>
			<point x="48" y="485" type="curve" smooth="yes"/>
			<point x="48" y="460"/>
			<point x="63" y="440"/>
			<point x="92" y="431" type="curve"/>
			<point x="92" y="430" type="line"/>
			<point x="105" y="426"/>
			<point x="119" y="424"/>
			<point x="137" y="424" type="curve" smooth="yes"/>
			<point x="213" y="424" type="line" smooth="yes"/>
			<point x="263" y="424"/>
			<point x="280" y="401"/>
			<point x="280" y="372" type="curve" smooth="yes"/>
			<point x="280" y="329"/>
			<point x="240" y="295"/>
			<point x="163" y="295" type="curve" smooth="yes"/>
			<point x="99" y="295"/>
			<point x="62" y="319"/>
			<point x="62" y="364" type="curve" smooth="yes"/>
			<point x="62" y="396"/>
			<point x="78" y="415"/>
			<point x="107" y="436" type="curve"/>
			<point x="103" y="441" type="line"/>
			<point x="55" y="421"/>
			<point x="25" y="393"/>
			<point x="25" y="356" type="curve" smooth="yes"/>
			<point x="25" y="308"/>
			<point x="70" y="273"/>
		</contour>
		<contour>
			<point x="157" y="533" type="curve" smooth="yes"/>
			<point x="223" y="533"/>
			<point x="271" y="573"/>
			<point x="271" y="639" type="curve" smooth="yes"/>
			<point x="271" y="670"/>
			<point x="261" y="695"/>
			<point x="243" y="713" type="curve"/>
			<point x="241" y="713" type="line"/>
			<point x="226" y="732"/>
			<point x="193" y="745"/>
			<point x="157" y="745" type="curve" smooth="yes"/>
			<point x="90" y="745"/>
			<point x="42" y="703"/>
			<point x="42" y="638" type="curve" smooth="yes"/>
			<point x="42" y="573"/>
			<point x="89" y="533"/>
		</contour>
		<contour>
			<point x="156" y="551" type="curve" smooth="yes"/>
			<point x="111" y="551"/>
			<point x="82" y="584"/>
			<point x="82" y="638" type="curve" smooth="yes"/>
			<point x="82" y="691"/>
			<point x="112" y="726"/>
			<point x="157" y="726" type="curve" smooth="yes"/>
			<point x="202" y="726"/>
			<point x="232" y="692"/>
			<point x="232" y="639" type="curve" smooth="yes"/>
			<point x="232" y="586"/>
			<point x="201" y="551"/>
		</contour>
		<contour>
			<point x="227" y="705" type="line"/>
			<point x="319" y="705" type="line"/>
			<point x="319" y="736" type="line"/>
			<point x="310" y="742" type="line"/>
			<point x="227" y="717" type="line"/>
			<point x="224" y="717" type="line"/>
		</contour>
	</outline>
</glyph>
<glyph name="m.sups" format="2">
	<unicode hex="1D50"/>
	<advance width="584"/>
	<outline>
		<contour>
			<point x="81" y="429" type="line"/>
			<point x="121" y="429" type="line"/>
			<point x="121" y="662" type="line"/>
			<point x="121" y="664" type="line"/>
			<point x="117" y="734" type="line"/>
			<point x="109" y="739" type="line"/>
			<point x="24" y="716" type="line"/>
			<point x="24" y="698" type="line"/>
			<point x="81" y="694" type="line"/>
		</contour>
		<contour>
			<point x="279" y="429" type="line"/>
			<point x="318" y="429" type="line"/>
			<point x="318" y="631" type="line" smooth="yes"/>
			<point x="318" y="711"/>
			<point x="287" y="742"/>
			<point x="237" y="742" type="curve" smooth="yes"/>
			<point x="195" y="742"/>
			<point x="155" y="718"/>
			<point x="115" y="670" type="curve"/>
			<point x="104" y="670" type="line"/>
			<point x="114" y="648" type="line"/>
			<point x="158" y="693"/>
			<point x="194" y="709"/>
			<point x="223" y="709" type="curve" smooth="yes"/>
			<point x="259" y="709"/>
			<point x="279" y="688"/>
			<point x="279" y="627" type="curve" smooth="yes"/>
		</contour>
		<contour>
			<point x="475" y="429" type="line"/>
			<point x="514" y="429" type="line"/>
			<point x="514" y="632" type="line" smooth="yes"/>
			<point x="514" y="711"/>
			<point x="484" y="742"/>
			<point x="431" y="742" type="curve" smooth="yes"/>
			<point x="389" y="742"/>
			<point x="349" y="719"/>
			<point x="310" y="671" type="curve"/>
			<point x="300" y="671" type="line"/>
			<point x="311" y="651" type="line"/>
			<point x="353" y="693"/>
			<point x="388" y="709"/>
			<point x="417" y="709" type="curve" smooth="yes"/>
			<point x="454" y="709"/>
			<point x="475" y="688"/>
			<point x="475" y="627" type="curve" smooth="yes"/>
		</contour>
		<contour>
			<point x="27" y="429" type="line"/>
			<point x="171" y="429" type="line"/>
			<point x="171" y="446" type="line"/>
			<point x="107" y="455" type="line"/>
			<point x="95" y="455" type="line"/>
			<point x="27" y="446" type="line"/>
		</contour>
		<contour>
			<point x="225" y="429" type="line"/>
			<point x="368" y="429" type="line"/>
			<point x="368" y="446" type="line"/>
			<point x="304" y="455" type="line"/>
			<point x="293" y="455" type="line"/>
			<point x="225" y="446" type="line"/>
		</contour>
		<contour>
			<point x="421" y="429" type="line"/>
			<point x="564" y="429" type="line"/>
			<point x="564" y="446" type="line"/>
			<point x="500" y="455" type="line"/>
			<point x="488" y="455" type="line"/>
			<point x="421" y="446" type="line"/>
		</contour>
	</outline>
</glyph>
<glyph name="t.sups" format="2">
	<unicode hex="1D57"/>
	<advance width="216"/>
	<outline>
		<contour>
			<point x="139" y="426" type="curve" smooth="yes"/>
			<point x="169" y="426"/>
			<point x="191" y="437"/>
			<point x="207" y="456" type="curve"/>
			<point x="197" y="469" type="line"/>
			<point x="181" y="459"/>
			<point x="169" y="454"/>
			<point x="151" y="454" type="curve" smooth="yes"/>
			<point x="124" y="454"/>
			<point x="109" y="469"/>
			<point x="109" y="507" type="curve" smooth="yes"/>
			<point x="109" y="717" type="line"/>
			<point x="109" y="719" type="line"/>
			<point x="112" y="830" type="line"/>
			<point x="87" y="830" type="line"/>
			<point x="69" y="723" type="line"/>
			<point x="89" y="738" type="line"/>
			<point x="11" y="731" type="line"/>
			<point x="11" y="711" type="line"/>
			<point x="69" y="711" type="line"/>
			<point x="69" y="502" type="line" smooth="yes"/>
			<point x="69" y="451"/>
			<point x="94" y="426"/>
		</contour>
		<contour>
			<point x="90" y="711" type="line"/>
			<point x="200" y="711" type="line"/>
			<point x="200" y="735" type="line"/>
			<point x="90" y="735" type="line"/>
		</contour>
	</outline>
</glyph>
<glyph name="u.sups" format="2">
	<unicode hex="1D58"/>
	<advance width="385"/>
	<outline>
		<contour>
			<point x="158" y="423" type="curve" smooth="yes"/>
			<point x="204" y="423"/>
			<point x="243" y="449"/>
			<point x="276" y="491" type="curve"/>
			<point x="288" y="491" type="line"/>
			<point x="279" y="515" type="line"/>
			<point x="243" y="476"/>
			<point x="208" y="456"/>
			<point x="172" y="456" type="curve" smooth="yes"/>
			<point x="133" y="456"/>
			<point x="110" y="477"/>
			<point x="110" y="543" type="curve" smooth="yes"/>
			<point x="110" y="733" type="line"/>
			<point x="104" y="739" type="line"/>
			<point x="20" y="730" type="line"/>
			<point x="20" y="713" type="line"/>
			<point x="80" y="706" type="line"/>
			<point x="70" y="717" type="line"/>
			<point x="70" y="537" type="line" smooth="yes"/>
			<point x="70" y="454"/>
			<point x="101" y="423"/>
		</contour>
		<contour>
			<point x="277" y="428" type="line"/>
			<point x="362" y="433" type="line"/>
			<point x="362" y="450" type="line"/>
			<point x="313" y="457" type="line"/>
			<point x="313" y="733" type="line"/>
			<point x="307" y="739" type="line"/>
			<point x="222" y="730" type="line"/>
			<point x="222" y="713" type="line"/>
			<point x="274" y="707" type="line"/>
			<point x="274" y="497" type="line"/>
			<point x="274" y="495" type="line"/>
		</contour>
	</outline>
</glyph>
<glyph name="v.sups" format="2">
	<unicode hex="1D5B"/>
	<advance width="333"/>
	<outline>
		<contour>
			<point x="161" y="423" type="line"/>
			<point x="180" y="423" type="line"/>
			<point x="298" y="731" type="line"/>
			<point x="275" y="731" type="line"/>
			<point x="176" y="465" type="line"/>
			<point x="173" y="456" type="line"/>
			<point x="186" y="461" type="line"/>
			<point x="78" y="731" type="line"/>
			<point x="33" y="731" type="line"/>
		</contour>
		<contour>
			<point x="0" y="713" type="line"/>
			<point x="60" y="705" type="line"/>
			<point x="73" y="705" type="line"/>
			<point x="143" y="713" type="line"/>
			<point x="143" y="731" type="line"/>
			<point x="0" y="731" type="line"/>
		</contour>
		<contour>
			<point x="211" y="713" type="line"/>
			<point x="273" y="706" type="line"/>
			<point x="282" y="706" type="line"/>
			<point x="331" y="713" type="line"/>
			<point x="331" y="731" type="line"/>
			<point x="211" y="731" type="line"/>
		</contour>
	</outline>
</glyph>
<glyph name="c.sups" format="2">
	<unicode hex="1D9C"/>
	<advance width="316"/>
	<outline>
		<contour>
			<point x="176" y="420" type="curve" smooth="yes"/>
			<point x="231" y="420"/>
			<point x="270" y="445"/>
			<point x="293" y="488" type="curve"/>
			<point x="282" y="496" type="line"/>
			<point x="258" y="467"/>
			<point x="226" y="451"/>
			<point x="186" y="451" type="curve" smooth="yes"/>
			<point x="120" y="451"/>
			<point x="74" y="503"/>
			<point x="74" y="585" type="curve" smooth="yes"/>
			<point x="74" y="670"/>
			<point x="121" y="721"/>
			<point x="183" y="721" type="curve" smooth="yes"/>
			<point x="208" y="721"/>
			<point x="228" y="716"/>
			<point x="251" y="699" type="curve"/>
			<point x="227" y="722" type="line"/>
			<point x="241" y="672" type="line" smooth="yes"/>
			<point x="245" y="653"/>
			<point x="255" y="644"/>
			<point x="269" y="644" type="curve" smooth="yes"/>
			<point x="282" y="644"/>
			<point x="289" y="651"/>
			<point x="292" y="665" type="curve"/>
			<point x="279" y="712"/>
			<point x="236" y="742"/>
			<point x="183" y="742" type="curve" smooth="yes"/>
			<point x="105" y="742"/>
			<point x="32" y="682"/>
			<point x="32" y="580" type="curve" smooth="yes"/>
			<point x="32" y="480"/>
			<point x="92" y="420"/>
		</contour>
	</outline>
</glyph>
<glyph name="z.sups" format="2">
	<unicode hex="1DBB"/>
	<advance width="297"/>
	<outline>
		<contour>
			<point x="27" y="433" type="line"/>
			<point x="272" y="433" type="line"/>
			<point x="277" y="531" type="line"/>
			<point x="257" y="531" type="line"/>
			<point x="234" y="434" type="line"/>
			<point x="256" y="452" type="line"/>
			<point x="59" y="452" type="line"/>
			<point x="62" y="434" type="line"/>
			<point x="268" y="719" type="line"/>
			<point x="268" y="735" type="line"/>
			<point x="34" y="735" type="line"/>
			<point x="30" y="645" type="line"/>
			<point x="51" y="643" type="line"/>
			<point x="71" y="733" type="line"/>
			<point x="53" y="715" type="line"/>
			<point x="236" y="715" type="line"/>
			<point x="233" y="733" type="line"/>
			<point x="27" y="448" type="line"/>
		</contour>
	</outline>
</glyph>
<glyph name="figuredash" format="2">
	<unicode hex="2012"/>
	<advance width="485"/>
	<outline>
		<contour>
			<point x="39" y="291" type="line"/>
			<point x="446" y="291" type="line"/>
			<point x="446" y="327" type="line"/>
			<point x="39" y="327" type="line"/>
		</contour>
	</outline>
</glyph>
<glyph name="emdash" format="2">
	<unicode hex="2014"/>
	<advance width="796"/>
	<outline>
		<contour>
			<point x="39" y="220" type="line"/>
			<point x="757" y="220" type="line"/>
			<point x="757" y="256" type="line"/>
			<point x="39" y="256" type="line"/>
		</contour>
	</outline>
</glyph>
<glyph name="quoteleft" format="2">
	<unicode hex="2018"/>
	<unicode hex="02BB"/>
	<advance width="201"/>
	<outline>
		<contour>
			<point x="51" y="595" type="curve" smooth="yes"/>
			<point x="51" y="574"/>
			<point x="56" y="555"/>
			<point x="67" y="539" type="curve"/>
			<point x="76" y="531"/>
			<point x="87" y="528"/>
			<point x="97" y="528" type="curve" smooth="yes"/>
			<point x="119" y="528"/>
			<point x="134" y="541"/>
			<point x="134" y="563" type="curve" smooth="yes"/>
			<point x="134" y="580"/>
			<point x="128" y="593"/>
			<point x="109" y="608" type="curve" smooth="yes"/>
			<point x="74" y="636" type="line"/>
			<point x="78" y="616" type="line"/>
			<point x="89" y="664"/>
			<point x="111" y="690"/>
			<point x="164" y="716" type="curve"/>
			<point x="154" y="738" type="line"/>
			<point x="84" y="705"/>
			<point x="51" y="657"/>
		</contour>
	</outline>
</glyph>
<glyph name="dagger" format="2">
	<unicode hex="2020"/>
	<advance width="494"/>
	<outline>
		<contour>
			<point x="39" y="505" type="curve" smooth="yes"/>
			<point x="39" y="488"/>
			<point x="49" y="477"/>
			<point x="72" y="477" type="curve" smooth="yes"/>
			<point x="94" y="477"/>
			<point x="140" y="484"/>
			<point x="174" y="488" type="curve" smooth="yes"/>
			<point x="247" y="497" type="line"/>
			<point x="247" y="513" type="line"/>
			<point x="174" y="522" type="line" smooth="yes"/>
			<point x="140" y="527"/>
			<point x="94" y="533"/>
			<point x="72" y="533" type="curve" smooth="yes"/>
			<point x="49" y="533"/>
			<point x="39" y="522"/>
		</contour>
		<contour>
			<point x="247" y="731" type="curve" smooth="yes"/>
			<point x="230" y="731"/>
			<point x="219" y="720"/>
			<point x="219" y="697" type="curve" smooth="yes"/>
			<point x="219" y="675"/>
			<point x="226" y="617"/>
			<point x="230" y="584" type="curve" smooth="yes"/>
			<point x="239" y="504" type="line"/>
			<point x="255" y="504" type="line"/>
			<point x="264" y="584" type="line" smooth="yes"/>
			<point x="268" y="617"/>
			<point x="275" y="675"/>
			<point x="275" y="697" type="curve" smooth="yes"/>
			<point x="275" y="720"/>
			<point x="264" y="731"/>
		</contour>
		<contour>
			<point x="456" y="505" type="curve" smooth="yes"/>
			<point x="456" y="523"/>
			<point x="445" y="533"/>
			<point x="422" y="533" type="curve" smooth="yes"/>
			<point x="401" y="533"/>
			<point x="354" y="527"/>
			<point x="320" y="522" type="curve" smooth="yes"/>
			<point x="247" y="513" type="line"/>
			<point x="247" y="497" type="line"/>
			<point x="320" y="488" type="line" smooth="yes"/>
			<point x="354" y="484"/>
			<point x="401" y="477"/>
			<point x="422" y="477" type="curve" smooth="yes"/>
			<point x="445" y="477"/>
			<point x="456" y="488"/>
		</contour>
		<contour>
			<point x="223" y="344" type="curve" smooth="yes"/>
			<point x="223" y="293"/>
			<point x="230" y="183"/>
			<point x="239" y="-53" type="curve"/>
			<point x="255" y="-53" type="line"/>
			<point x="265" y="183"/>
			<point x="272" y="293"/>
			<point x="272" y="344" type="curve" smooth="yes"/>
			<point x="272" y="379"/>
			<point x="265" y="435"/>
			<point x="255" y="505" type="curve"/>
			<point x="239" y="505" type="line"/>
			<point x="229" y="435"/>
			<point x="223" y="379"/>
		</contour>
	</outline>
</glyph>
<glyph name="zero.sups" format="2">
	<unicode hex="2070"/>
	<advance width="341"/>
	<outline>
		<contour>
			<point x="171" y="420" type="curve" smooth="yes"/>
			<point x="238" y="420"/>
			<point x="301" y="479"/>
			<point x="301" y="627" type="curve" smooth="yes"/>
			<point x="301" y="776"/>
			<point x="238" y="835"/>
			<point x="171" y="835" type="curve" smooth="yes"/>
			<point x="103" y="835"/>
			<point x="41" y="776"/>
			<point x="41" y="627" type="curve" smooth="yes"/>
			<point x="41" y="479"/>
			<point x="103" y="420"/>
		</contour>
		<contour>
			<point x="171" y="441" type="curve" smooth="yes"/>
			<point x="128" y="441"/>
			<point x="85" y="482"/>
			<point x="85" y="627" type="curve" smooth="yes"/>
			<point x="85" y="772"/>
			<point x="128" y="814"/>
			<point x="171" y="814" type="curve" smooth="yes"/>
			<point x="213" y="814"/>
			<point x="256" y="772"/>
			<point x="256" y="627" type="curve" smooth="yes"/>
			<point x="256" y="482"/>
			<point x="213" y="441"/>
		</contour>
	</outline>
</glyph>
<glyph name="four.sups" format="2">
	<unicode hex="2074"/>
	<advance width="341"/>
	<outline>
		<contour>
			<point x="206" y="433" type="line"/>
			<point x="246" y="433" type="line"/>
			<point x="246" y="836" type="line"/>
			<point x="218" y="836" type="line"/>
			<point x="28" y="580" type="line"/>
			<point x="28" y="552" type="line"/>
			<point x="317" y="552" type="line"/>
			<point x="317" y="586" type="line"/>
			<point x="52" y="586" type="line"/>
			<point x="52" y="596" type="line"/>
			<point x="48" y="576" type="line"/>
			<point x="224" y="814" type="line"/>
			<point x="201" y="797" type="line"/>
			<point x="206" y="797" type="line"/>
			<point x="206" y="576" type="line"/>
			<point x="206" y="565" type="line"/>
		</contour>
	</outline>
</glyph>
<glyph name="six.sups" format="2">
	<unicode hex="2076"/>
	<advance width="341"/>
	<outline>
		<contour>
			<point x="178" y="420" type="curve" smooth="yes"/>
			<point x="249" y="420"/>
			<point x="307" y="470"/>
			<point x="307" y="551" type="curve" smooth="yes"/>
			<point x="307" y="625"/>
			<point x="261" y="672"/>
			<point x="190" y="672" type="curve" smooth="yes"/>
			<point x="143" y="672"/>
			<point x="104" y="649"/>
			<point x="72" y="603" type="curve"/>
			<point x="67" y="603" type="line"/>
			<point x="79" y="595" type="line"/>
			<point x="111" y="630"/>
			<point x="144" y="644"/>
			<point x="180" y="644" type="curve" smooth="yes"/>
			<point x="229" y="644"/>
			<point x="264" y="613"/>
			<point x="264" y="546" type="curve" smooth="yes"/>
			<point x="264" y="479"/>
			<point x="227" y="441"/>
			<point x="179" y="441" type="curve" smooth="yes"/>
			<point x="121" y="441"/>
			<point x="88" y="495"/>
			<point x="88" y="598" type="curve" smooth="yes"/>
			<point x="88" y="703"/>
			<point x="156" y="792"/>
			<point x="291" y="819" type="curve"/>
			<point x="288" y="836" type="line"/>
			<point x="134" y="819"/>
			<point x="44" y="707"/>
			<point x="44" y="586" type="curve" smooth="yes"/>
			<point x="44" y="486"/>
			<point x="94" y="420"/>
		</contour>
	</outline>
</glyph>
<glyph name="eight.sups" format="2">
	<unicode hex="2078"/>
	<advance width="341"/>
	<outline>
		<contour>
			<point x="171" y="424" type="curve" smooth="yes"/>
			<point x="249" y="424"/>
			<point x="302" y="467"/>
			<point x="302" y="529" type="curve" smooth="yes"/>
			<point x="302" y="585"/>
			<point x="266" y="619"/>
			<point x="189" y="652" type="curve" smooth="yes"/>
			<point x="121" y="681"/>
			<point x="96" y="711"/>
			<point x="96" y="748" type="curve" smooth="yes"/>
			<point x="96" y="792"/>
			<point x="132" y="819"/>
			<point x="173" y="819" type="curve" smooth="yes"/>
			<point x="221" y="819"/>
			<point x="247" y="787"/>
			<point x="247" y="744" type="curve" smooth="yes"/>
			<point x="247" y="704"/>
			<point x="226" y="675"/>
			<point x="169" y="644" type="curve"/>
			<point x="186" y="633" type="line"/>
			<point x="186" y="638" type="line"/>
			<point x="260" y="669"/>
			<point x="285" y="708"/>
			<point x="285" y="745" type="curve" smooth="yes"/>
			<point x="285" y="801"/>
			<point x="241" y="839"/>
			<point x="174" y="839" type="curve" smooth="yes"/>
			<point x="110" y="839"/>
			<point x="57" y="801"/>
			<point x="57" y="738" type="curve" smooth="yes"/>
			<point x="57" y="690"/>
			<point x="88" y="652"/>
			<point x="153" y="624" type="curve" smooth="yes"/>
			<point x="231" y="590"/>
			<point x="261" y="563"/>
			<point x="261" y="523" type="curve" smooth="yes"/>
			<point x="261" y="478"/>
			<point x="228" y="444"/>
			<point x="172" y="444" type="curve" smooth="yes"/>
			<point x="118" y="444"/>
			<point x="83" y="476"/>
			<point x="83" y="524" type="curve" smooth="yes"/>
			<point x="83" y="567"/>
			<point x="110" y="599"/>
			<point x="169" y="628" type="curve"/>
			<point x="151" y="640" type="line"/>
			<point x="151" y="635" type="line"/>
			<point x="82" y="606"/>
			<point x="43" y="572"/>
			<point x="43" y="521" type="curve" smooth="yes"/>
			<point x="43" y="461"/>
			<point x="92" y="424"/>
		</contour>
	</outline>
</glyph>
<glyph name="nine.sups" format="2">
	<unicode hex="2079"/>
	<advance width="341"/>
	<outline>
		<contour>
			<point x="73" y="423" type="line"/>
			<point x="223" y="458"/>
			<point x="302" y="556"/>
			<point x="302" y="674" type="curve" smooth="yes"/>
			<point x="302" y="776"/>
			<point x="250" y="839"/>
			<point x="170" y="839" type="curve" smooth="yes"/>
			<point x="98" y="839"/>
			<point x="40" y="787"/>
			<point x="40" y="713" type="curve" smooth="yes"/>
			<point x="40" y="638"/>
			<point x="93" y="591"/>
			<point x="165" y="591" type="curve" smooth="yes"/>
			<point x="214" y="591"/>
			<point x="254" y="615"/>
			<point x="278" y="660" type="curve"/>
			<point x="284" y="660" type="line"/>
			<point x="272" y="669" type="line"/>
			<point x="247" y="634"/>
			<point x="212" y="618"/>
			<point x="177" y="618" type="curve" smooth="yes"/>
			<point x="123" y="618"/>
			<point x="83" y="651"/>
			<point x="83" y="717" type="curve" smooth="yes"/>
			<point x="83" y="783"/>
			<point x="123" y="818"/>
			<point x="169" y="818" type="curve" smooth="yes"/>
			<point x="221" y="818"/>
			<point x="258" y="769"/>
			<point x="258" y="673" type="curve" smooth="yes"/>
			<point x="258" y="563"/>
			<point x="201" y="484"/>
			<point x="68" y="440" type="curve"/>
		</contour>
	</outline>
</glyph>
<glyph name="parenright.sups" format="2">
	<unicode hex="207E"/>
	<advance width="233"/>
	<outline>
		<contour>
			<point x="129" y="599" type="curve" smooth="yes"/>
			<point x="129" y="498"/>
			<point x="103" y="419"/>
			<point x="30" y="318" type="curve"/>
			<point x="42" y="308" type="line"/>
			<point x="127" y="393"/>
			<point x="169" y="489"/>
			<point x="169" y="599" type="curve" smooth="yes"/>
			<point x="169" y="710"/>
			<point x="127" y="806"/>
			<point x="42" y="891" type="curve"/>
			<point x="30" y="881" type="line"/>
			<point x="103" y="781"/>
			<point x="129" y="701"/>
		</contour>
	</outline>
</glyph>
<glyph name="n.sups" format="2">
	<unicode hex="207F"/>
	<advance width="396"/>
	<outline>
		<contour>
			<point x="81" y="429" type="line"/>
			<point x="120" y="429" type="line"/>
			<point x="120" y="663" type="line"/>
			<point x="120" y="664" type="line"/>
			<point x="117" y="734" type="line"/>
			<point x="109" y="739" type="line"/>
			<point x="24" y="716" type="line"/>
			<point x="24" y="698" type="line"/>
			<point x="81" y="694" type="line"/>
		</contour>
		<contour>
			<point x="286" y="429" type="line"/>
			<point x="326" y="429" type="line"/>
			<point x="326" y="631" type="line" smooth="yes"/>
			<point x="326" y="711"/>
			<point x="295" y="742"/>
			<point x="242" y="742" type="curve" smooth="yes"/>
			<point x="199" y="742"/>
			<point x="156" y="719"/>
			<point x="115" y="670" type="curve"/>
			<point x="104" y="670" type="line"/>
			<point x="114" y="648" type="line"/>
			<point x="159" y="695"/>
			<point x="197" y="709"/>
			<point x="228" y="709" type="curve" smooth="yes"/>
			<point x="265" y="709"/>
			<point x="286" y="688"/>
			<point x="286" y="627" type="curve" smooth="yes"/>
		</contour>
		<contour>
			<point x="27" y="429" type="line"/>
			<point x="171" y="429" type="line"/>
			<point x="171" y="446" type="line"/>
			<point x="107" y="455" type="line"/>
			<point x="95" y="455" type="line"/>
			<point x="27" y="446" type="line"/>
		</contour>
		<contour>
			<point x="232" y="429" type="line"/>
			<point x="375" y="429" type="line"/>
			<point x="375" y="446" type="line"/>
			<point x="312" y="455" type="line"/>
			<point x="299" y="455" type="line"/>
			<point x="232" y="446" type="line"/>
		</contour>
	</outline>
</glyph>
<glyph name="naira" format="2">
	<unicode hex="20A6"/>
	<advance width="485"/>
	<outline>
		<contour>
			<point x="210" y="0" type="line"/>
			<point x="210" y="23" type="line"/>
			<point x="116" y="31" type="line"/>
			<point x="116" y="564" type="line"/>
			<point x="119" y="564" type="line"/>
			<point x="242" y="272" type="line"/>
			<point x="361" y="-5" type="line"/>
			<point x="397" y="-5" type="line"/>
			<point x="397" y="621" type="line"/>
			<point x="480" y="629" type="line"/>
			<point x="480" y="652" type="line"/>
			<point x="277" y="652" type="line"/>
			<point x="277" y="629" type="line"/>
			<point x="370" y="620" type="line"/>
			<point x="370" y="80" type="line"/>
			<point x="368" y="80" type="line"/>
			<point x="243" y="384" type="line"/>
			<point x="131" y="652" type="line"/>
			<point x="12" y="652" type="line"/>
			<point x="12" y="629" type="line"/>
			<point x="89" y="622" type="line"/>
			<point x="89" y="31" type="line"/>
			<point x="5" y="23" type="line"/>
			<point x="5" y="0" type="line"/>
		</contour>
		<contour>
			<point x="10" y="256" type="line"/>
			<point x="270" y="256" type="line"/>
			<point x="279" y="261" type="line"/>
			<point x="381" y="261" type="line"/>
			<point x="389" y="256" type="line"/>
			<point x="477" y="256" type="line"/>
			<point x="477" y="284" type="line"/>
			<point x="10" y="284" type="line"/>
		</contour>
		<contour>
			<point x="10" y="372" type="line"/>
			<point x="477" y="372" type="line"/>
			<point x="477" y="400" type="line"/>
			<point x="223" y="400" type="line"/>
			<point x="211" y="395" type="line"/>
			<point x="106" y="395" type="line"/>
			<point x="100" y="400" type="line"/>
			<point x="10" y="400" type="line"/>
		</contour>
	</outline>
</glyph>
<glyph name="won" format="2">
	<unicode hex="20A9"/>
	<advance width="485"/>
	<outline>
		<contour>
			<point x="-6" y="629" type="line"/>
			<point x="63" y="620" type="line"/>
			<point x="72" y="620" type="line"/>
			<point x="156" y="629" type="line"/>
			<point x="156" y="652" type="line"/>
			<point x="-6" y="652" type="line"/>
		</contour>
		<contour>
			<point x="14" y="312" type="line"/>
			<point x="106" y="312" type="line"/>
			<point x="116" y="316" type="line"/>
			<point x="376" y="316" type="line"/>
			<point x="384" y="312" type="line"/>
			<point x="465" y="312" type="line"/>
			<point x="465" y="340" type="line"/>
			<point x="14" y="340" type="line"/>
		</contour>
		<contour>
			<point x="131" y="-7" type="line"/>
			<point x="151" y="-7" type="line"/>
			<point x="253" y="487" type="line"/>
			<point x="236" y="481" type="line"/>
			<point x="322" y="-7" type="line"/>
			<point x="341" y="-7" type="line"/>
			<point x="446" y="652" type="line"/>
			<point x="420" y="652" type="line"/>
			<point x="333" y="81" type="line"/>
			<point x="347" y="85" type="line"/>
			<point x="266" y="549" type="line"/>
			<point x="241" y="549" type="line"/>
			<point x="146" y="78" type="line"/>
			<point x="159" y="84" type="line"/>
			<point x="90" y="652" type="line"/>
			<point x="39" y="652" type="line"/>
		</contour>
		<contour>
			<point x="351" y="629" type="line"/>
			<point x="426" y="620" type="line"/>
			<point x="435" y="620" type="line"/>
			<point x="491" y="629" type="line"/>
			<point x="491" y="652" type="line"/>
			<point x="351" y="652" type="line"/>
		</contour>
	</outline>
</glyph>
<glyph name="hryvnia" format="2">
	<unicode hex="20B4"/>
	<advance width="485"/>
	<outline>
		<contour>
			<point x="241" y="-13" type="curve" smooth="yes"/>
			<point x="344" y="-13"/>
			<point x="412" y="38"/>
			<point x="430" y="121" type="curve"/>
			<point x="426" y="136"/>
			<point x="417" y="145"/>
			<point x="401" y="145" type="curve" smooth="yes"/>
			<point x="386" y="145"/>
			<point x="372" y="137"/>
			<point x="365" y="110" type="curve" smooth="yes"/>
			<point x="342" y="27" type="line"/>
			<point x="380" y="60" type="line"/>
			<point x="336" y="25"/>
			<point x="296" y="14"/>
			<point x="245" y="14" type="curve" smooth="yes"/>
			<point x="164" y="14"/>
			<point x="110" y="54"/>
			<point x="110" y="138" type="curve" smooth="yes"/>
			<point x="110" y="187"/>
			<point x="134" y="228"/>
			<point x="188" y="269" type="curve"/>
			<point x="136" y="269" type="line"/>
			<point x="89" y="232"/>
			<point x="65" y="184"/>
			<point x="65" y="133" type="curve" smooth="yes"/>
			<point x="65" y="38"/>
			<point x="136" y="-13"/>
		</contour>
		<contour>
			<point x="291" y="380" type="curve"/>
			<point x="342" y="380" type="line"/>
			<point x="397" y="425"/>
			<point x="415" y="475"/>
			<point x="415" y="523" type="curve" smooth="yes"/>
			<point x="415" y="615"/>
			<point x="350" y="664"/>
			<point x="252" y="664" type="curve" smooth="yes"/>
			<point x="162" y="664"/>
			<point x="93" y="611"/>
			<point x="73" y="527" type="curve"/>
			<point x="77" y="511"/>
			<point x="87" y="503"/>
			<point x="103" y="503" type="curve" smooth="yes"/>
			<point x="118" y="503"/>
			<point x="133" y="511"/>
			<point x="140" y="539" type="curve" smooth="yes"/>
			<point x="165" y="629" type="line"/>
			<point x="125" y="588" type="line"/>
			<point x="168" y="626"/>
			<point x="200" y="638"/>
			<point x="248" y="638" type="curve" smooth="yes"/>
			<point x="321" y="638"/>
			<point x="371" y="601"/>
			<point x="371" y="519" type="curve" smooth="yes"/>
			<point x="371" y="468"/>
			<point x="350" y="430"/>
		</contour>
		<contour>
			<point x="38" y="252" type="line"/>
			<point x="448" y="252" type="line"/>
			<point x="448" y="280" type="line"/>
			<point x="38" y="280" type="line"/>
		</contour>
		<contour>
			<point x="38" y="368" type="line"/>
			<point x="448" y="368" type="line"/>
			<point x="448" y="397" type="line"/>
			<point x="38" y="397" type="line"/>
		</contour>
		<contour>
			<point x="134" y="273" type="line"/>
			<point x="198" y="273" type="line"/>
			<point x="343" y="377" type="line"/>
			<point x="279" y="377" type="line"/>
		</contour>
	</outline>
</glyph>
<glyph name="liraturkish" format="2">
	<unicode hex="20BA"/>
	<advance width="485"/>
	<outline>
		<contour>
			<point x="221" y="-13" type="curve" smooth="yes"/>
			<point x="351" y="-13"/>
			<point x="462" y="69"/>
			<point x="462" y="220" type="curve"/>
			<point x="458" y="231"/>
			<point x="450" y="238"/>
			<point x="437" y="238" type="curve" smooth="yes"/>
			<point x="420" y="238"/>
			<point x="405" y="226"/>
			<point x="405" y="197" type="curve" smooth="yes"/>
			<point x="405" y="185"/>
			<point x="407" y="165"/>
			<point x="408" y="150" type="curve" smooth="yes"/>
			<point x="414" y="100" type="line"/>
			<point x="426" y="108" type="line"/>
			<point x="427" y="142" type="line"/>
			<point x="392" y="63"/>
			<point x="325" y="12"/>
			<point x="224" y="12" type="curve" smooth="yes"/>
			<point x="193" y="12"/>
			<point x="165" y="16"/>
			<point x="143" y="24" type="curve"/>
			<point x="171" y="5" type="line"/>
			<point x="171" y="396" type="line" smooth="yes"/>
			<point x="171" y="495"/>
			<point x="171" y="563"/>
			<point x="173" y="652" type="curve"/>
			<point x="122" y="652" type="line"/>
			<point x="124" y="565"/>
			<point x="124" y="492"/>
			<point x="124" y="385" type="curve" smooth="yes"/>
			<point x="124" y="260" type="line" smooth="yes"/>
			<point x="124" y="142"/>
			<point x="123" y="68"/>
			<point x="121" y="2" type="curve"/>
			<point x="151" y="-10"/>
			<point x="187" y="-13"/>
		</contour>
		<contour>
			<point x="139" y="619" type="line"/>
			<point x="156" y="619" type="line"/>
			<point x="270" y="629" type="line"/>
			<point x="270" y="652" type="line"/>
			<point x="27" y="652" type="line"/>
			<point x="27" y="629" type="line"/>
		</contour>
		<contour>
			<point x="148" y="417" type="line"/>
			<point x="27" y="350" type="line"/>
			<point x="27" y="320" type="line"/>
			<point x="148" y="386" type="line"/>
		</contour>
		<contour>
			<point x="148" y="280" type="line"/>
			<point x="27" y="214" type="line"/>
			<point x="27" y="184" type="line"/>
			<point x="148" y="249" type="line"/>
		</contour>
		<contour>
			<point x="342" y="520" type="line"/>
			<point x="148" y="414" type="line"/>
			<point x="148" y="384" type="line"/>
			<point x="342" y="489" type="line"/>
		</contour>
		<contour>
			<point x="342" y="383" type="line"/>
			<point x="148" y="278" type="line"/>
			<point x="148" y="247" type="line"/>
			<point x="342" y="352" type="line"/>
		</contour>
	</outline>
</glyph>
